<?xml version="1.0" encoding="utf-8"?>
<!-- Generator: Adobe Illustrator 22.0.1, SVG Export Plug-In . SVG Version: 6.00 Build 0)  -->
<svg version="1.1" xmlns="http://www.w3.org/2000/svg" xmlns:xlink="http://www.w3.org/1999/xlink" x="0px" y="0px"
	 viewBox="0 0 1000 1000" style="enable-background:new 0 0 1000 1000;" xml:space="preserve">
<style type="text/css">
	.st0{fill:#E6E6E6;}
	.st1{fill:#FFFFFF;}
	.st2{filter:url(#Adobe_OpacityMaskFilter);}
	.st3{opacity:0.25;mask:url(#SVGID_1_);}
	.st4{fill:none;stroke:#f15b27;stroke-linecap:round;stroke-miterlimit:10;}
	.st5{fill:none;stroke:#FFFFFF;stroke-width:10;stroke-miterlimit:10;}
	.st6{fill:#B2B2B2;}
	.st7{fill-opacity:0;}
	.st8{opacity:0.9;}
	.st9{opacity:0.9;fill:#FFFFFF;}
	.st10{fill:none;}
	.st11{fill:none;stroke:#f15b27;stroke-width:3;stroke-miterlimit:10;}
	.st12{fill:none;stroke:#BDBDBD;stroke-miterlimit:10;}
	.st13{fill:#f15b27;}
	.st14{fill:none;stroke:#4E4D4D;stroke-width:3;stroke-linecap:round;stroke-linejoin:round;stroke-miterlimit:10;}
	.st15{fill:none;stroke:#CCCCCC;stroke-linecap:round;stroke-miterlimit:10;}
	.st16{clip-path:url(#SVGID_3_);}
	.st17{fill:#FFFFFF;stroke:#000000;stroke-miterlimit:10;}
	.st18{clip-path:url(#SVGID_7_);}
	.st19{fill:none;stroke:#000000;stroke-linecap:round;stroke-linejoin:round;stroke-miterlimit:10;}
	.st20{fill:none;stroke:#B3B3B3;stroke-width:2;stroke-linejoin:round;stroke-miterlimit:10;}
	.st21{fill:none;stroke:#000000;stroke-width:2;stroke-linejoin:round;stroke-miterlimit:10;}
	.st22{fill:#B3B3B3;}
	.st23{fill:none;stroke:#000000;stroke-width:3;stroke-miterlimit:10;}
	.st24{filter:url(#Adobe_OpacityMaskFilter_1_);}
	.st25{opacity:0.25;mask:url(#SVGID_8_);}
	.st26{fill:none;stroke:#000000;stroke-width:0.5;stroke-linecap:round;stroke-linejoin:round;stroke-miterlimit:10;}
	.st27{fill:#4D4D4D;}
	.st28{fill:none;stroke:#B3B3B3;stroke-width:2;stroke-linejoin:round;stroke-miterlimit:10;stroke-dasharray:2,2,2,2,2,2;}
	.st29{fill:none;stroke:#000000;stroke-miterlimit:10;}
	.st30{clip-path:url(#SVGID_10_);}
	.st31{clip-path:url(#SVGID_12_);fill:#4D4D4D;}
	.st32{fill:none;stroke:#FFFFFF;stroke-miterlimit:10;}
	.st33{filter:url(#Adobe_OpacityMaskFilter_2_);}
	.st34{opacity:0.25;mask:url(#SVGID_13_);}
	.st35{fill:none;stroke:#BDBDBD;stroke-width:0.5;stroke-miterlimit:10;}
	.st36{fill:none;stroke:#000000;stroke-width:1.5;stroke-miterlimit:10;}
	.st37{filter:url(#Adobe_OpacityMaskFilter_3_);}
	.st38{opacity:0.25;mask:url(#SVGID_14_);}
	.st39{clip-path:url(#SVGID_16_);}
	.st40{clip-path:url(#SVGID_18_);fill:#4D4D4D;}
	.st41{filter:url(#Adobe_OpacityMaskFilter_4_);}
	.st42{opacity:0.25;mask:url(#SVGID_19_);}
	.st43{filter:url(#Adobe_OpacityMaskFilter_5_);}
	.st44{opacity:0.25;mask:url(#SVGID_20_);}
	.st45{filter:url(#Adobe_OpacityMaskFilter_6_);}
	.st46{opacity:0.25;mask:url(#SVGID_21_);}
	.st47{filter:url(#Adobe_OpacityMaskFilter_7_);}
	.st48{opacity:0.25;mask:url(#SVGID_22_);}
	.st49{filter:url(#Adobe_OpacityMaskFilter_8_);}
	.st50{opacity:0.25;mask:url(#SVGID_23_);}
	.st51{fill:none;stroke:#000000;stroke-width:0.5;stroke-miterlimit:10;}
	.st52{fill:none;stroke:#E0E0E0;stroke-width:2;stroke-linejoin:round;stroke-miterlimit:10;}
	.st53{opacity:0.2;fill:#f15b27;}
	.st54{fill:none;stroke:#f15b27;stroke-width:2;stroke-linejoin:round;stroke-miterlimit:10;}
	.st55{fill:none;stroke:#4D4D4D;stroke-width:2;stroke-linejoin:round;stroke-miterlimit:10;}
	.st56{clip-path:url(#SVGID_25_);}
	.st57{fill:#E0E0E0;}
	.st58{fill:none;stroke:#f15b27;stroke-miterlimit:10;}
	.st59{fill:none;stroke:#E0E0E0;stroke-width:0.75;stroke-miterlimit:10;}
	.st60{filter:url(#Adobe_OpacityMaskFilter_9_);}
	.st61{opacity:0.25;mask:url(#SVGID_26_);}
	.st62{filter:url(#Adobe_OpacityMaskFilter_10_);}
	.st63{opacity:0.25;mask:url(#SVGID_27_);}
	.st64{opacity:0.12;}
	.st65{opacity:8.000000e-02;fill:none;}
	.st66{fill:none;stroke:#BDBDBD;stroke-width:2;stroke-miterlimit:10;}
	.st67{fill:none;stroke:#f15b27;stroke-width:2;stroke-miterlimit:10;}
	.st68{fill:#B0AFAF;}
	.st69{fill:#F1F1F1;}
	.st70{opacity:0.5;fill:#f15b27;}
	.st71{fill:none;stroke:#E0E0E0;stroke-linecap:round;stroke-miterlimit:10;}
	.st72{fill:none;stroke:#000000;stroke-width:2;stroke-linecap:round;stroke-linejoin:round;stroke-miterlimit:10;}
	.st73{fill:none;stroke:#000000;stroke-width:2;stroke-miterlimit:10;}
	.st74{clip-path:url(#SVGID_29_);}
	.st75{fill:none;stroke:#181818;stroke-width:0.5;stroke-miterlimit:10;}
	.st76{fill:#181818;}
	.st77{fill:none;stroke:#3C3C3B;stroke-width:0.5;stroke-miterlimit:10;}
	.st78{fill:none;stroke:#6E6E6E;stroke-width:0.5;stroke-miterlimit:10;}
	.st79{fill:#181818;stroke:#6E6E6E;stroke-width:0.5;stroke-miterlimit:10;}
	.st80{fill:#A4A3A3;}
	.st81{fill:#846D65;}
</style>
<g id="Layer_1">
	<g>
		<path d="M537.9,438.9l6.5-3.4l0.5-1.1l0.3-5.2v-7.2l-1-5.3l-3.1-8.2l1.6-1.2L540,407l-2.4-4.1l-3-3.4l-2.7-2.6v-7.4l-0.4,0.8
			l-0.2,6.5h-0.3l0,11.4l-3.3,1.1l1.1,0.6l2-0.2l0.6,25.8l-4,0.3c0,0-0.5,0.7-0.5,0.9c0,0.2-0.3,0.5,0.6,1.3c0.9,0.8,1.5,1.4,3,2.2
			c1.4,0.8,4.2,1.4,4.7,1.4c0.5,0,4.3-0.5,6.5-0.9c2.1-0.4,5.3-0.9,6-1.2c0.7-0.4,1.1-0.7,1.3-0.9c0.2-0.1,0.8,0.2,0.8,0.2l3.7,0.6
			l0-0.7l-2.6-0.7c0,0,0.6-1.4,0.4-1.7c-0.2-0.3-0.7-0.4-1.8-0.8c-1-0.4-1.9-0.7-2.4-0.8c-0.6-0.1-2.9-0.1-2.9-0.1"/>
		<polyline points="535.5,407.2 534.5,403.7 533.5,401.2 533.5,399.1 536.9,403.4 539.4,407.2 		"/>
		<polyline points="533.8,407.2 533.8,404.4 534.6,407.2 		"/>
		<polyline points="397.6,457.7 410.9,448.9 410.1,442.2 411.9,439.2 414.8,440.3 415.6,447.1 423,444.3 428.3,443.5 427.7,438.8 
			422.9,439.2 422.8,438.2 421.3,438.4 420.7,433.4 414.1,434.3 405.3,438.1 405.3,441.6 398.7,446.9 399.5,453 397.1,454.5 		"/>
		<polyline points="404.8,446.4 403.4,437.4 404.6,435.9 405.6,437 405.9,439.4 406.9,447.1 		"/>
		<polyline points="420.5,441.8 419.1,432.8 420.2,431.3 421.2,432.4 421.5,434.8 422.5,442.5 		"/>
		<polyline points="413.7,437.9 413,432.9 414.1,431.4 415.1,432.5 415.4,434.9 415.9,438.9 		"/>
		<polyline points="397.7,457.6 396,456.7 395.7,454.1 398.4,452.5 397.1,443.5 398.2,442 399.2,443.1 399.5,445.5 400.5,453.2 		
			"/>
		<path d="M569.9,433.3l8.5-7.8l5.6-7.9l1-3.1l2.7-1l5.3,3.7c0,0,2.5,1.7,2.7,1.5c0.2-0.2,2.8,1.4,2.8,1.4v2.6l-8.8,5.7l-7,3.7
			l-10.1,4.8l-2.6-1.2"/>
		<polyline points="717.5,368.3 717.5,343.3 723.3,338.3 723.3,333 724.5,333 724.5,368.3 721,370.4 		"/>
		<polyline points="728,366.8 728,337.1 729,337.1 729,341.4 733.9,347.2 733.9,366.8 730.5,368.8 		"/>
		<polyline points="442.6,479 444.4,479.9 446.2,481.2 446.2,501.8 444.4,502.8 442.6,501.1 		"/>
		<polyline points="446.8,478.5 448.7,479.2 450.6,480.5 450.6,499.5 448.7,500.4 446.8,498.8 		"/>
		<polyline points="458.9,496 459.4,487.2 458.5,478.2 458.4,475 458.4,472.7 460,472 462.3,472.7 462.5,476.9 462.5,483 
			462.2,489.1 463.3,496.2 		"/>
		<path d="M438.4,502.8c-0.1-0.2,0-10.5,0-10.5l1.8-1l1.4,0.7v11.1L440,504"/>
		<path d="M433.5,504.9c-0.1-0.2,0-10.5,0-10.5l1.8-1l1.4,0.7v11.1l-1.6,0.9"/>
		<path d="M452,494.6c-0.1-0.2,0-7.3,0-7.3l1.9-4.2l1.4,0.7v11.1l-1.6,0.9"/>
		<path d="M446.3,515c-0.1-0.2,0-10.5,0-10.5l1.8-1l1.4,5.2v6.6l-1.6,0.9"/>
		<path d="M451.6,512.1c-0.1-0.3,0-13.1,0-13.1l1.8-1.2l1.4,0.9v13.7l-1.6,1.1"/>
		<path d="M459.6,508.4c-0.1-0.2,0-10.5,0-10.5l1.8-1l1.4,0.7v11.1l-1.6,0.9"/>
		<path d="M455.3,510.5c-0.1-0.3,0-13.1,0-13.1l1.8-1.2l1.4,0.9v13.7l-1.6,1.1"/>
		<path d="M464.1,505.6c-0.1-0.2,0-10.5,0-10.5l1.8-1l1.4,0.7v11.1l-1.6,0.9"/>
		<path d="M464.1,492c-0.1-0.2,0-12.4,0-12.4l1.8-1.1l1.4,0.9v13l-1.6,1"/>
		<path d="M468.8,500.9c-0.1-0.2,0-7,0-7l1.9-6.5l1.4,0.9v13l-1.6,1"/>
		<polyline points="739.1,345 744,344.4 744,347.2 744,367.7 741.5,368.8 739.1,367 		"/>
		<polyline points="747.8,344.4 752.8,343.8 752.8,346.6 752.8,367.1 750.3,368.2 747.8,366.4 		"/>
		<polyline points="711.5,363.9 714,365.2 716.5,364.4 716.5,347.8 714,340.2 711.5,348.2 		"/>
		<polyline points="754.3,334.2 759.3,333.6 759.3,336.4 759.3,357 756.8,358 754.3,356.2 		"/>
		<path d="M716.8,396.4v-7.8l1.1-0.7v-5.4V378c0,0,3.7-4.3,3.8-1.4c0.1,2.9,0,7.2,0,7.2l0.8-0.2v10.1l-0.4,2.8"/>
		<polyline points="687.2,370.5 692.2,375.6 692.2,372.6 692.2,393.2 689.7,394.3 687.2,392.5 		"/>
		<polyline points="706.7,367.9 711.7,367.3 711.7,370 711.7,390.6 709.2,391.7 706.7,389.9 		"/>
		<polyline points="678.1,371.2 683.1,370.8 683.1,372.8 683.1,387.4 680.6,388.1 678.1,386.9 		"/>
		<polyline points="692.4,360 697.4,359.5 697.4,361.5 697.4,376.1 694.9,376.9 692.4,375.6 		"/>
		<polyline points="665.8,379.6 670.8,379.1 670.8,381.1 670.8,395.7 668.3,396.5 665.8,395.2 		"/>
		<path d="M477.3,489c-0.1-0.2,0-12.4,0-12.4l1.8-1.1l1.4,0.9v13l-1.6,1"/>
		<path d="M485,485.6c-0.1-0.2,0-9.7,0-9.7l1.8-0.9l1.4,0.7v10.2l-1.6,0.8"/>
		<path d="M489,485.2c-0.1-0.1,0-7.1,0-7.1l1.8-0.6l1.4,0.5v7.5l-1.6,0.6"/>
		<path d="M493.8,482.7c-0.1-0.2,0-10.9,0-10.9l1.8-1l1.4,0.8V483l-1.6,0.9"/>
		<path d="M481.6,493.6c-0.1-0.2,0-10.9,0-10.9l1.8-1l1.4,0.8V494l-1.6,0.9"/>
		<path d="M498.6,489.3c-0.1-0.2,0-10.9,0-10.9l1.8-1l1.4,0.8v11.4l-1.6,0.9"/>
		<polyline points="694.1,387.2 694.1,383.6 695.8,382.8 695.8,372.5 696.6,372.5 696.6,358.5 698.1,358.5 698.1,343.3 699.6,343.3 
			699.6,315.7 700.6,315.7 700.6,307 701.4,307 701.4,302.1 701.6,302.1 701.6,293.7 702.1,293.7 702.1,299.5 702.4,299.5 
			702.4,305.4 702.7,305.4 702.7,318.5 703.5,318.5 703.5,325.4 704.2,325.4 704.2,330.5 704.6,330.5 704.6,348.5 705.9,348.5 
			705.9,363.1 706.4,363.1 706.4,375.5 707.3,375.5 707.3,383.9 708.3,384.5 708.3,387.7 701.2,386.7 694.1,387.7 		"/>
		<g>
			<path class="st73" d="M0,699.5V647l21.9-10.2l14.5-5.9l18-2.5l24.1-1.9l7.7-2.5h4l8.4-2.3v-2.9l-4.2-2.3h-3.4h-3.7L71,615.2v1.5
				l12.1,0.6l-1.4,1.2L69.1,618l-11.4-2.1L46,613.2l-7.6-3.2l-7.4-3.5l1.4-0.5l9.7,4l5.8,2.3l8,1.8l10.5,1.8l0.6-1.8l-17-3.6
				L39.8,606l-5-3.2l-4.2-2.7l-0.1-1.3l2.9-1l-0.8-2l-5,0.9l-0.8-12l3.2-6.8l6.4-7.1l10.9-6.6l8.3-3.4L64,554l9.3-4.1l14.4-3.6
				l7.1-0.7l21.6,1l-6.3,3.2l-9.5,2.7l-9.1,1l-15.9,5l-19.4,4.2l-3.3,5.3l-16.8,14.3l-1.1,7.1l4.5,4.9l-3.4,0.6l1.5,2.6l4.3,0.1
				l0.1,2.1l8.1,3.9l10.4,3l10.4,3.1l14,0.6l6.9-1.1l0.4,4.6l6.8,1l3-1l8,2.7l2.7,2l11.1-1.6l4.3-0.2l8.5-3.1l-20.2-22.4l0.8-3.5
				l-2.8-0.9L110,589l-6.6,5.6l-0.8,8.3l-2.8,0.3l-2.1-0.7l2.8-7.3l4.7-5.2l7.1-4.1l-3.3-0.7l-11.5,6.2l-5.4,5.1l-2.4,6.3l-5.6-1.2
				l8.6-9.5l10.9-5l3.3-2.4l-1.4-1.6l-6.4,2.2l-7.4,2.8l-8.6,5.6l-6.7,7.4l-4-2.1l10.5-8.5l11.2-5.3l9.5-2.8l-2.4-0.9l-11.2,2.2
				l-10.5,4.9l-9,6.2l-3.3,2.5l-2.5-0.4l-1.1-1.4l11.6-7.5l13.3-5.4l11.8-2.5l-1.5-0.8l-17,1.9l-7,1.6l-9.7,4.8L59,590l-3-0.6
				l-0.4-1.7l10-4.1l9.8-2.7l8.3-1.5l13.8-1.2l-2.1-2.6l-14,0.9l-10.4,1.7l-10.6,3.8l-5.4-0.6l9.4-3.8l15.5-2.5l14.4-1.1l-1-2
				l-13.7-0.2l-13.7,1.9l-4.2-0.3l0.4-0.9l11.7-2.2l7.4-0.1l13.5-0.4l0.8-0.3l-8-1.8l-8.1,0.1l-5.4-0.1l-2.6-1.9l11.7-0.1l12.9,1.1
				l2.7-2l4.5,0l6.9-4.8l6.4-3l2.8,0.7l-8.4,4l-5.4,4.9l2.1,1.2l9.7-7l14-5.1l3.6,1.1l-15.3,5.5l-9.4,7.6l0.9,0.8l15.3-7.1l14.9-3.5
				l10.4-0.9v1.6l-20.9,3.7l-6.6,2l-10.9,5.3l1.5,1.1l22-7.3l21.5-2.1l5.4,1.6l-4.5,1l-21.5,1.2l-20.8,7.5l1.2,0.4l19.4-4.6
				l27.3,0.1l3.4,1.9l-4.5,0.9l-26.4-1.1l-18.2,4.1l1.3,0.7l17.4-1.9l17.1,0.4l6.3,0.3l6.9,1.5l-0.6,0.9l-6.8,0.1l-22.4-1.7
				l-16.7,1.6l2,1.5l16.2-0.3l11.1,0.9l11.1,2l2.2,0.8l-2.2,2l-12.2-2.8l-10.9-1.8l-12.7,0.4l-2.3,0.2l-0.6,1.3l11.6,0.3l12.5,2.4
				l10.8,4.4l-5.6,0.6l-10.3-4.6l-5.8-0.8l-5.6-0.5l-6.1-0.3l-3.2-0.1l-0.4,2.3l4.6-0.1l22,19.6l-0.1,2.7l-3.9,2.6l2.9,1l15.8-3.5
				l11.6,9.3l-6.2,6.1l-5.3-0.6l1,4.9l9.3-1.9l5-9.6L166,606.8l2.4-1.6l-2.7-1.2l-1-6.7l2.3-1.7l2.5,0.4l5.2-4l-2.4-2.4l6.2-2.9
				l6.2-6.9l2.1-9l-1.6-4.9l-4.8-1.6l4.7-1.7l-1.9-2.1h-4.3l-20.6-8.1l-14.5-2.3l-17.3-0.5l-6.6,0.3l2.7-4.6l23.9,0.6l21.3,3.1
				l18.4,7.4l-0.8,3.6l1.4,1.6l4.3,0.1l4.3-1.2l19.9,6.3l-1.9,0.4l-18.1-6l-3.3,1.3l3.5,5.5v8.6l-3.1,6.7l4,0.3c0,0,3.7-5.4,3.8-5.6
				c0.1-0.2,0.5-7.1,0.5-7.1l-1.8-3.4l-0.6-1.3l6.9-0.2l-0.6,2.2l-2,0.2l0.6,6.7l-2.5,7.9l-8.2,8.4l-1,1.1l-2.9-0.9l6.2-5.7
				l-4.1-0.6l-9,7.9l-3.5-0.1l-6.2,4.5l1.4,2.7l-3.2,3.5l3.2,1.6l11-2.9l6.3-2.1l4.7-2.2l4.9,1.3l7.2-1.6l0.3-1.7l1.4-3.5l4.4-2.5
				l0.9,0.4l-2.5,2.1l-0.6,2.9l1.5,0.6l8.2-0.9l-2.8-2.5l-4.2-0.2l2-1.1l7.8,1.1l2,1.8l5.7-0.2l12.8-4L227,566.8l5.3-3.9l2.1,0.5
				l-4.9,3.9l13,17.6l5.6,0.7l15.8,21.1v2.9l-12.4,7.3l5.6,3.1l6.8-0.5l3.4,2.5l62.4-29.3l-8.8-1.3l-41.8,18l-6.8-9.4l44.4-18.8
				l-9-3.9l-41.9,16.3l-5.7-5.4l-1.5-5.7l2.7-1l-0.8-3.9l-2.3-1l-1-3.5l-2.4-2.8l-4.4-4.7l-5.9-1.9l7.6-2.1l54.2-5l2.5,2.3l10.2,0.5
				l15.1-5.8l-1.6-2l6.8-0.2l40-21.6l1.3-1.3l5.7,0.8v-2l37.7-18.5l0.7-5.5l-7.8-3l-3.6-1.1l7.2-3.9l6.9,3.9l0.6,7.1l1.9,1.2
				l4.7,1.4l9.1,1l10.4-5.3l14.1-6.3l-3-0.8l-5,0.8l-11.1,6.1l-5.8,3.7l-9.8-0.6l-2.9-2.6l13-5.3l6.2-4.4l3.2-2.7l-1.2-2.3l-4.5-1.3
				l1.2-1.7l10-0.8l0.3,1.9l11.3,5.4l5,0.9l2.2-1.2l-4.2-1.6l-6.1-0.8l-0.3-1.2l2.2-1.7l-1-1.6h-2.8l-3.5,1l3.7-2.8l9.7,1.2
				l10.3-6.5l1.2-3.5l-8.5,1.8l-22.3-7.7l-6.1-0.4l-0.3-3.4l-2.5-1.6l-1.8,1.6l-0.3,4l2,3.2l0.4,0.6l-4-0.1l-1.4-3.2l-0.7-2.7
				l1.1-2.2l1-1.9l-0.5-0.7l-3.2,3.5l-1.5,3.4l0.7,3.6l0.2,1.2l-4.4,0.1l0.3-4.7l1.8-3.2l2.3-3.1l3.3-1.5h-2.5l-7.2,5.1l-2.8,5.1
				l-3.8,1.9l2.1-5.8l6.1-3.9l3.5-2.4l-1.1-0.6l-10.9,5.1l-4.2,3.7l-1.6,3.7l-5.2-1l4.9-5l9.2-5.1l6.9-2.3l-3.6-0.3l-18.7,7.7
				l-2.7,2.4l-3.7-1.3l5.3-3l13-4.8l5-2h-3.4l-9.3,2l-8.7,3.8l-3.1-1.5l8-2.6l5.8-1.3l6.1-1l1.9-0.6l-1.5-0.6l-8.9,0.8l-6.1,1
				l-2.2-0.1l1-1l3-0.5l7.1-0.6h4.5l-2.9-0.8l-6.2-1.4l3.8-1.4l0.3-1.7h3.2l2.3-1.1l0.1,1.7l3.5,2.1l-0.1-3.8l1.3-1.5l2.7-0.5
				l-0.8,1.6l-0.3,3.1l1.4,1.4l1.2,0.7l0.8-2.6l1.6-3l2.5-1.9l3.5-2.2l3.5,0.6l-6.7,2.9l-1.6,2.5l-1.1,3.6l0.6,0.8l1.5,0.2l1.8-2.8
				l5.7-4.1l8.6-3.5l4.1,0.7l-10.7,3.4l-6.1,4.5l-1.5,2.6l1.5,0.7l1.7-2.3l7.6-3.8l12.6-3.2l3.8,1l-14.6,3.3l-8.2,3.6l-0.9,2
				l0.8,0.5l3.5-2.2l7.4-2.4l12.8-3.1l2.7,1.2l-12.6,2.4l-9.4,2.8l-0.7,0.5l-2.2,1.5l15.6-3.3l8.4-1.1l3.9,1.6l-14.5,1l-9.1,2.4
				l-2.3,0.5l0.9,0.5l7.8-1.9l16.5-0.5l-0.4,1.3l-16.6,0.2l-6.2,1.8l1.4,0.7l7.8,0.6l4.9-1.1l0.9,2.7l3.2,1l6.1-2l4,1.5l-4.7,1.7
				l9.2,3.5l4.1,0.5v2.8l0.5,1.7l5,0l0.4-2.4l1.7-2.5l1,0.3l-1.7,2l2.7-0.2l3.7-3l-3.8-0.9l3.2-1.3l0.5,0.8l-1,0.9l2.7-0.1l3.3-1.5
				l0.3-1.2l4.2-2.1l28.9-13.7v-2l4.7-0.3l8-5.4l0.7-2.4l2.6-1.4l-0.2-2.6l0.2-1.8l6.4,1.7l3.8-2.5l0.5-3.1l-4.3-1.3l2.6-1.4
				l4.1-0.4l3.4,1.2l0.9,0.8l9.7-4.9l2.9-2.3v-1.2l4.4-2.1v-1.4l5.5-0.9l2.2-3.2l0.3-3.4l4.1-1.7l2.4,2.8l4.5-3.2l-0.9-2.1l3.8-2.3
				l6.4-0.3l-0.5-2.5l7.2-3.4l-0.6-2.7l7.1-2.3l0.8-1.6l4.5,0.8l8.3,0.6l7.7,2.2l5.4,2.8l7.2,1.4l3.9,1l12.6,0.2l7.5,3.1l11.7,0.5
				l12.5,0.2l2.2-1.8l11.3,1l9.9-0.7l5.2-1.5l0.7-2.6l4.7,0.1v-1.9l6.5-1.6l6.2,0.1l7.7,0.8l8.4,0.8l3.8-2.1l0.3-3.3l1.4-1h4.7
				l6.4-1.1l4.2-1.9l1.1-0.6h15.3l-12.8,4.6l-3.4-0.1l-0.3,1.7c0,0,0.8,1.5,1,1.7c0.3,0.1,1.6,1.1,1.6,1.1l-1,2l6.7,2h3.7l1.1-2.1
				c0,0,8.3-1.2,8.5-1.2c0.2,0,3.1-0.4,3.5-0.5c0.4-0.1,3.1-0.6,4.5-0.5c1.4,0.1,5.9,0.7,6.6,0.7s0.8,0.2,1.6-0.1s3.2-1,5.4-2.1
				s4.7-1.3,5.9-2s4.4-1.1,5.2-1.6c0.8-0.5,1.5-1.1,1.3-1.2c-0.3-0.1-5-2.3-5-2.3s-1.3-1.5-1.4-1.7c-0.1-0.2-1.1-2.2-1.1-2.4
				s0.4-1.1,1.3-1.8s1.3-1,2.3-1.2c1-0.2,3.7-0.4,4.2-0.3c0.5,0.1,1.1,0.1,2.5,0.7s3.4,0.9,3.4,0.9l3.2,0l-1.7-2.9
				c0,0-0.3-0.7-0.7-1s-1.1-0.7-2-1.1c-0.9-0.4-2.3-1.1-2.4-1.2c-0.1-0.1-0.5-0.2-0.6-0.3s-0.6-0.5,0-1.1c0.5-0.6,0.8-0.8,1.1-1.1
				c0.3-0.2,1-0.6,1.3-0.8c0.3-0.2-0.7-0.9-0.7-0.9s-2.5,0.1-2.7,0c-0.3-0.1-0.7-0.2-1.3-0.5c-0.6-0.3-1.6-1.1-1.6-1.1l-1.1-1.5
				c0,0-0.4-0.5-1.2-1c-0.8-0.5-1.9-1-2.6-1.2c-0.7-0.2-1.2-0.2-3.3-0.7s-3.2-1-3.9-1.3c-0.8-0.3-1.7-0.5-2.7-0.9
				c-1-0.4-1.5-0.8-3.7-1.2c-2.2-0.4-3.3-0.8-4.5-1.1c-1.2-0.3-1.9-0.4-3.3-0.8c-1.4-0.3-2.4-0.6-4.3-1c-1.9-0.4-3.7-1-4.2-1.2
				s-1.4-0.9-1.7-1.1s-1.1-0.8-0.9-0.9c0.2-0.2,0.3-1,0.3-1l-1.4-1.5l-3.2-0.8c0,0-6-2.8-6.2-2.8c-0.2,0-4.5,0.3-5,0
				c-0.5-0.3-1.7-0.8-3.7-1.5c-2-0.6-2.8-1.1-4.3-1.3c-1.5-0.2-2-0.2-3.1-0.6c-1.1-0.4,0-0.6-3.5-1s-4.6-0.5-5.5-0.8
				c-0.9-0.3-2-0.7-3.5-1c-1.5-0.4-2.3-0.6-4-1.3s-4.4-1.4-4.9-1.6s-1.3-0.5-2.5-1c-1.2-0.5-2.3-1-3.2-1.1c-0.8-0.1-0.4-0.4-3-0.7
				c-2.6-0.3-3.5-0.5-3.7-0.5c-0.3,0-5.6,0-5.6,0l-2.5-0.4l-5.2,0.4l-4.2,0.4c0,0-2.6,0-3-0.1c-0.4-0.2-2-0.8-2-0.9
				c0-0.1,1-0.4,1.5-0.6c0.4-0.2,2-0.8,2.3-0.9c0.3-0.1,0.8-0.3,1-0.5c0.2-0.3,0.7-0.5,0.5-1c-0.3-0.5-0.6-0.9-0.8-1.1
				c-0.3-0.2-1.2-0.5-1.4-0.6c-0.2-0.1-1.2-0.3-0.8-0.6c0.4-0.2,1.6-0.4,1.9-0.4c0.3,0,11.9-2.7,11.9-2.7l12-3.5l9.8-2.9l7.9-1.9
				l2.8-1.9l-3.6-1.8l-2.5,0.8h-2.3l-1.8,1.9L758,321l-9.5,2.5l-5.1,1.7l-4.4,0.1c0,0-2.7,1.6-2.9,1.7s-5.2,0.2-5.2,0.2l-3.2-1.3
				l-2.4-0.8c0,0-1-0.9-0.7-1.2c0.3-0.3,0.9-0.7,0.9-0.7s-0.9-1.1-1.3-1.5s-0.3-0.6-1.1-1c-0.8-0.4-1.2-0.7-1.2-0.7s0.1-0.2-0.7,0.2
				s-1,1-1,1.2s0.6,1.2-0.6,0.7s-1.4-0.4-1.8-1.1c-0.4-0.7-0.8-1.8-0.8-2.2s0.7-1.1-0.1-2c-0.8-0.9-1.8-1.5-1.8-1.5s-0.9,0-1.9,0
				s-1.8,0.5-2.7,0c-0.9-0.5-1.6-0.6-2.6-1.3c-0.9-0.8-9.3-2.5-9.3-4.8c-0.1-2.3-0.1-3.4,0.7-4.1c0.8-0.7,1.9-1.2,2.3-1.4
				c0.4-0.2,1.5-0.3,2.3-0.3s1.2-0.5,2.5,0s2.3,1,3,1.5s2.6,1.3,3.5,1.7c0.9,0.3,2.5,0.9,4.2,0.9c1.8,0,2.8-0.1,3.7,0.2
				s2.1,0.9,3.3,1c1.3,0.1,1.3-0.2,2.2,0.3s1.8,0.7,1.8,0.9s-0.6,1-1.9,1.2s-2.6,0.1-3.8,0.2s-1.3,0.1-1.6,0.3s-1.3,0.6-1.3,0.6
				s-0.4-0.7-1.3-0.7c-0.8,0-1.2-0.8-1.6,0.1s-0.8,1.6-0.6,2s-1.1,0.8,0.7,1.1c1.8,0.4,1.9,0.5,2.5,0.7s1.3,1.3,2.6-0.1
				c1.3-1.4,1.2-2.3,2.4-2.6c1.2-0.3,1.5-0.6,2.8-0.6s1.1,0,3,0s3.5,0.1,5.7-0.2c2.3-0.3,2.5-0.7,5.9-0.5c3.4,0.2,2.1,0.1,5,0.4
				s4.8,0.6,5.1,0.5c0.3-0.1,1.5-0.5,1.5-0.5s0.8-0.2,0.9-0.4c0.1-0.2,1.1-1,0-1.2c-1.1-0.2-1.2,0.6-2-0.5c-0.8-1.1-4-1.1-0.1-2.1
				s0.3-0.2,4.4-1.2c4.1-1,4.5-0.9,6-1.2c1.5-0.3,3.8-0.6,4-0.8c0.3-0.2,0.4-0.5,0.5-1.4c0.1-0.9-1.2,0,0.1-2.5s1.8-2.7,1.5-2.8
				c-0.3-0.2-0.8-0.3-1.2-0.8c-0.4-0.5-1.2-1-1.8-1.1c-0.6-0.1-3.5-0.8-3.5-0.8L761,294c0,0,1.3,1.2,1.5,1.5
				c0.2,0.3,0.4,0.1,0.4,0.6c0,0.5,0.6,0.5,0,1.3c-0.6,0.8-0.4,0.9-1.5,1.7c-1.1,0.8-0.9,0.9-2.2,1.3s-2.8,0.5-5,0.8
				c-2.1,0.4-2.3,0.7-3.9,0.6s-2.8-0.3-4.9-1c-2.1-0.7-3.7-1.4-4.5-1.5c-0.8-0.1-1.9,0.1-3.6-0.4c-1.7-0.5-4-1.2-5-1.6
				c-1-0.4-3.7-1.4-4.4-1.6c-0.7-0.2-2.9-0.5-4.3-1.2c-1.4-0.7-0.4-1.1-2.5-1.1c-2.1,0-6.4-0.8-6.4-0.8s-1-0.4-2-0.6
				c-1-0.2-2.7-1.2-2.7-1.5s-0.3-2-0.3-2.3c0-0.3,0.4-1.5,0.4-1.5s-0.2-0.1,1.1-0.4c1.3-0.3,2.1-0.9,2.1-0.9s0.3,0.2,1.8-0.5
				c1.6-0.7,4.4-1.7,4.4-1.7s1.6,0.4-0.3-0.7c-1.9-1.1-4.2-1.9-4.4-1.9c-0.2-0.1-0.4,0.1-2.8,0c-2.3-0.1-2.5,0.4-3-0.3
				c-0.5-0.7-2.4-2.2-2.5-2.4c-0.1-0.2-1.2-1.6-1.1-1.9c0.1-0.3,0.9-0.8,1.9-0.8s2.6-0.4,4.1,0s2.7,0.3,3.5,0.8
				c0.9,0.5,1.5,0.4,3.3,1.1c1.9,0.7,4.1,1.3,4.4,1.7s1.1,1,2.3,1.1c1.1,0.1,3.3,0.4,4.3,0.4s3.6,0.5,4.2,0.7
				c0.6,0.2,0.4-0.2,2.5,0.7c2.1,0.9,2.8,0.9,4.3,1.5c1.5,0.6,2.1,0.9,2.9,1.3c0.8,0.4,0.9,0.1,1.1,0.6c0.2,0.6,1.7,0.2,0.1,1.1
				c-1.6,0.9-1.9,1.4-1.9,1.4s0.9,0.5,2,0.6c1,0.1,5,0.4,5.4,0.7c0.4,0.3-3.2-0.1,2.7,0.5c5.9,0.6,6.6,0.5,7.2,0.7
				c0.6,0.2,2.8,0.7,2.8,1.1s-3.8,0.5,0.3,0.7c4.1,0.2,6-0.2,8.1,0.1c2.1,0.3,2.6-0.6,3,0.4c0.4,1,1.3,0.8,1.6,2
				c0.3,1.2,2.3,2.3,2.7,2.5c0.4,0.2,0.8,0.5,2.6,1.3c1.8,0.8,2.8,1,2.8,1s0.2,3.2,0.2,3.6c0,0.4-0.1,1.2-0.6,2.1
				c-0.5,0.9-0.8,1.2-0.7,2.1s1.6,0.8-0.3,2.1s-0.9,1.8-3.1,2.4s-1,1.6-3.9,0.5c-2.9-1.1-2.4-1.2-3.9-2c-1.5-0.8-2.9-0.3-2.9-0.3
				s-2,0.3-3.4,0.3c-1.5,0-0.9,0-2.9,0c-2,0-4.2-0.6-3.8,0.1s1.3,2,2.4,2.1c1.1,0.1,1.1,0,3.1,0s-0.2-0.6,3.7,0
				c3.9,0.6,6.6,0.9,6.8,1.2c0.2,0.3,1.8,0.4,3.2,1.2c1.5,0.8,2.1,1.3,3.5,1.2c1.4-0.1,1.6-0.4,2.5-1c0.8-0.6,0.9-0.4,2.8-1.1
				c1.9-0.7,3.3-1.6,4-2.2c0.8-0.7,1.1-0.4,3.2-1.4c2.1-1,1.9-1.9,2.1-1s0.5,1.5-2.7,2.8s-3.7,1.3-4.7,2.1c-1,0.8-1.4,1.3-2.2,1.7
				c-0.8,0.3-1.7,0.2-0.8,0.3c0.9,0.2,2.8,0.4,3.2,0s0.6,0.1,2.6-1.6c2-1.7,7.2-4.5,7.2-4.5s2.5-0.3,2-0.8c-0.5-0.5-2.2-2.3-3.5-2.1
				s-0.3,0.4-2.9,0.4s-3.7,0.1-4.8-0.4c-1.1-0.5-1.8-0.5-2-1.2s-0.4-0.3,0.1-1.3c0.6-1,1.1-1.3,1.2-1.9c0.1-0.6,0.8-1,1-2.2
				c0.3-1.2-0.6-2.8-0.6-2.8s-1.1-0.2-1.1-0.7s2.5-2,2.7-2s1.8,0.1,3.3,0.3c1.5,0.2,1.9-0.4,3.5,0.3s4.7,2.3,4.7,2.3l-1.9,1
				c0,0-1.2-0.4-0.3,0.3s2.4,0.1,0.8,1.1c-1.6,1-2.7,2-3.2,2.6c-0.5,0.6-1.3,0.5-0.7,1.5c0.6,0.9,1.1,1.2,1.6,1.7
				c0.6,0.4,1.6,0.5,1.8,0.3c0.1-0.2,1.3-1,1.3-1s-1.1-0.7-1.2-0.9s-0.1-0.1,0.8-0.5c0.8-0.4,1.5-0.6,2.6-1.3
				c1.1-0.7,4.1-2.8,4.1-2.8s-0.1-0.1,1-0.8c1.1-0.7,2.8-1.4,3-1.6c0.1-0.2-0.3-0.9,2.5-1.7c2.8-0.8,4.2-1.1,4.2-1.1s-0.8-0.3,1.3,0
				c2,0.3,1.4-1.8,2,0.3c0.6,2,2.3,1.2,0.7,2.6s-4.3,3-4.9,3.6s-1.5,0.7-1.7,2.1c-0.3,1.4-0.6,1.2-0.3,2.4c0.3,1.2,0.4,1.6,1.6,2.6
				s2.7,1.3,3.9,2.2c1.2,0.9,3.1,1,3.2,1.2c0.1,0.3,0.2,0.3,1,0.6c0.8,0.3,1.3,0.6,2.1,1s3.6,0.4,3.6,0.5c0,0.2,2.4,0.7,3.2,0.3
				c0.8-0.4,0.3-0.8,1.6-1.1c1.3-0.4,3-1.2,3-1.2l-6-1.7c0,0-3.2-0.9-5.3-1.6s-2.9-2.3-3.8-2.7c-0.9-0.3-3.5-1.5-2.9-1.9
				c0.5-0.4,3.7-2.9,6.1-1.7s2.3,3,3.5,3c1.2,0,0.4-0.7,2.8,1.1c2.4,1.8,6.2,2.9,7.6,2.6s3.7,0.3,3.5-1.4s0.7-3.2-1.4-3.6
				c-2.1-0.4-4.4-0.5-6.1-0.5c-1.8,0-2.4-0.3-5.1-1.5c-2.7-1.1-3.3-1.3-4.1-2.1c-0.8-0.8-2.2-2.5-1.9-3s2.2-2,3.2-2.2
				s6.2-1.2,7.8,0.1c1.6,1.3,2.1,2.4,3.3,4.4c1.2,1.9,3.1,1.9,3.1,1.9s0.3,0.8,4.1,1.6c3.7,0.8,4,1.2,5.8,0.8s6.5-1.2,6.5-1.2
				s1.7-0.4-0.9-1.8s-4-2.3-5-2.7c-1-0.4-1.4-1.1-4.7-1.9c-3.3-0.8-8.6-2.1-9.3-2.2c-0.8-0.2-0.5-0.6-2.9-1.1
				c-2.4-0.6-3.2-1.1-3.9-0.9c-0.8,0.2-2.6,0.9-4.2,1.2c-1.6,0.3-3.7,0.3-4.2,0.3c-0.5,0-1-1-0.6-1.1c0.4-0.1,14.9-12.5,14.9-12.5
				l-2-2.6c0,0-2.9-1.7-2.9-2.6s-1.9-2.8-1.9-2.8l7.9,3.2c0,0-0.6-0.2,1.8-1.4s3.8-2.6,5-2.6s-0.2,0.1,2.8,0
				c2.9-0.1,6.6-1.6,7.1-2.1c0.4-0.5,1.8-1.1,1.9-1.6s1.9-1.7,0.1-1.7c-1.8,0-0.2-1.2-4.4,0c-4.2,1.2-5.9,1.4-6.9,2
				c-1,0.6-2.5,1.2-4.1,1.5s-4.6,0.2-4.6,0.2s-5,0.1,0.7-1.2c5.7-1.3,8.5-2.5,9.8-2.7s3.3-0.8,5.6-1s3.3-1.9,6.4-1.1
				c3.1,0.8,5,1.2,5.8,2.3s2.2,0.8,1.3,2.1s-1.1,2.2-6,3.6c-4.9,1.4-7.6,1.5-9.6,2.8s-4,0.8-2.5,2.9c1.5,2.1,2.9,2.4,3.4,3.3
				c0.4,0.9,1.3,1.8,1.5,2.3s0.3,0.9,0.8,1.5c0.4,0.6,2,0.7,2,0.7s-2.5,3.2-0.2,4.3s3.5,0.9,5.7,2.3s2.7,2.1,6.1,3s5.2,1.5,6.2,1.5
				c1,0.1,2,0.9,2.9-0.2c0.9-1.1,3-2.3,3.5-3.1c0.4-0.8-2.6-1.2-4.7-1.1s-1.2,0.8-3.5,0s-5.3-1.3-5.4-2.1s-1.1-1.2-1.3-3.3
				c-0.2-2.1,0.7-3.5-0.8-4.1c-1.5-0.7-1.5-1.3-2.4-0.7c-0.9,0.6,0.8,1.6-2.6,0.6s-4.3-1.5-4.9-2.1c-0.6-0.6-1.9-1.1-2.5-1.6
				c-0.7-0.5-1.8-1-1.1-1.9s2.2-2.2,4-2.3c1.8-0.1,0.3,0.1,5.9-1.2c5.6-1.3,7.9-2.8,7.9-2.8s1.6-2.4,1-3.9c-0.6-1.5-1.4-2.9,0.3-3.3
				c1.8-0.3,7.6-3.2,7.6-3.2l15.3-4.5c0,0,8.5-0.2,8.8-0.4s22.5-12,22.5-12l-2.2-1.7l8-5.6h66"/>
			<path class="st73" d="M635.9,390.8c0,0,6.6,1.6,7,1.6c0.4,0,2.6,0.3,4.1,0.8s6.2,1,7.2,1.9s2.3,1,2.8,1.8
				c0.5,0.8,3.5,0.3,3.5,0.3s5.5,1.6,5.8,1.7c0.3,0.1,1.3-0.4,1.5,0s-0.5,0.7,3.1,0.6s9.8,0.2,10.1,0s3.9,0.1,4.3,0.7
				c0.4,0.6,0.9,1.4,2.9,1.8s5.7,0.8,6.5,0.8c0.8,0,3.3,0,5.3,0s6.1,0,6.5,0c0.3,0,4.6-0.1,4.8-1.2c0.2-1,0.8-2.3,0.8-2.3l7,1.2
				l5.9,1.5c0,0,1.4,0.5,1.9,0.5c0.5,0,9.2-0.5,9.2-0.5s1.9-1.8,2-2s0.7-1.3,0.7-1.5c0-0.2-3.5-0.4,0-0.8s5.4-0.3,5.7-0.8
				c0.3-0.4-0.1-1.3,1.8-1.7s6.2-0.9,7.3-1c1.1-0.2,3.9-0.4,6,0c2.1,0.4,4.9,1.2,5.1,1.2c0.3,0,3.6-0.6,3.9-1c0.3-0.4,3-1.2,3.6-1.9
				s2.5-2.5,3.1-2.7c0.6-0.2,3.7-0.5,5.1-0.5c1.5,0,3.8-0.3,4.7-0.3c0.9,0,3.7-1.3,3.7-1.3l6.5-3c0,0,13.8,0,13.9,0
				c0.2,0,1.7-0.1,3.6,0c1.9,0,4.7-0.2,4.7-0.2h10l3.6-1.4c0,0,0.1-0.5,0-1.1c-0.1-0.6-0.1-1.4,0.1-1.9c0.1-0.5,0.4-1.5,2.8-2.3
				c2.4-0.8,4.5-1.3,5.3-1.7c0.8-0.4,4.3-1.9,4.3-1.9s0.6,0.2,0.6-0.4c0-0.6,0.1-1.7,0-2c-0.1-0.3,0.8-0.8-0.8-1.8s-3.2-1.8-4.1-2
				s-3.3-1.4-5.1-1.2c-1.8,0.2-2.7,0.6-3.6,0.6c-0.9,0.1-4.6-0.9-4.6-0.9s-1.2-0.8,0.3-0.7c1.5,0.1,3.9,0,3.9,0s2.5-0.4-0.8-0.9
				c-3.2-0.5-5-1.1-5.2-1.1c-0.2,0-7.3-2-7.3-2l-7.9-3.1l-6.9-1.5l-1.4-3l-13.6-5.2c0,0-7.4-2.6-9.7-3.1c-2.3-0.5-9.2-0.9-10.1-1.6
				c-0.9-0.6-1.3-1.2-3.4-2.1c-2.1-0.8-5.2-2-5.8-2.1c-0.6-0.1,0.4-0.1-4.7-0.8s-5-0.8-7.2-0.9c-2.1-0.1-3.9-0.2-8,0
				s-7.2-0.3-7.7-0.1s-3.2-0.1-3.2-0.1s-3.2-1.5-0.9-2.1c2.3-0.6,3.5-1.1,3.5-1.1l1.8-1.1c0,0,0-0.9-1.1-1.9
				c-1.1-0.9-2.9-2.8-2.9-2.8s-0.3-1.1-1.8-1.9c-1.5-0.7-3.3-1.7-3.9-2c-0.2-0.1-0.8-0.4-1.5-0.6c-1.1-0.4-2.6-0.8-3.8-0.9
				c-1.9-0.1-6.9-2.6-6.9-2.6l-27.6,5.9l0.7,1l27-6.5l4.8,2.6c0,0,0.9,0,2.2,0.1c1.3,0.1,4,0.5,5.1,1.5c1.1,0.9-12.5,5.4-12.5,5.4
				s-7.7,1.7-8.4,2c-0.7,0.3-2.7,1.5-3.2,1.9s-2.9,1-1,1.5c1.9,0.4,1.4,0.8,4.3,0.7c2.9-0.1,6.6-0.7,9.6-0.9c3-0.2,9.3-1.7,9.3-1.7
				s-13.1,6.3-13,6.3c0.1,0-10.2-0.6-10.2-0.6s-0.3,0.9-2.1,0.6c-1.8-0.3-1.5,0.6-2.8-0.9s-2.3-3.7-3-4.5s0.2-1.2-2.9-2.3
				c-3.2-1.1-3.4-0.7-4.7-2c-1.3-1.3-1.9-2.1-2.2-2.5s-1.1-1.9-1.3-2.2c-0.2-0.3,0.2-0.8-1.7-1s-2.5-0.2-2.5-0.2l-7.5,0.2
				c0,0-0.9,2.9-0.9,3.1s1.3,2,1.2,2.5c-0.1,0.5-0.8,1.2-0.5,1.4s3.7,0.3,4.7,0.3s-0.7,3.2-0.7,3.2l-6.8-0.4l-0.7-4.9l-0.8-5.1
				l-1.3,0.7c0,0-0.1,4.5-0.1,4.9s-0.1,2.6-0.1,3.4s-0.3,1.8-0.1,2.2s2.1,0.8,2.1,0.8l-2.5,1.2c3.3,0.8,5.1,0.9,6,1.7
				c0.9,0.8,15.7,0.8,15.7,0.8l5.7,0.7l12.8,4.2l-6.4,4l-9.8-3.3l-2.5,1.6l8.1,3.8l-3.8,1.1l-21.4-4.7l-9-3.4l-3.5-4.9l-0.1-5.4
				l-2.3-0.2l1.1,8.6l4,3.1l8.7,3.4l1.2,1.9l-3.9,1l6.7,2.5c0,0,0.4,1.2,1.4,1.6c0.9,0.4,8.2,1,8.2,1l2.3-0.2l1.3-0.7l-1.2-2.5
				l9.3,0.1l-4,3.9l-1.9,0.9c0,0,0,0.4-1,0.9c-1,0.5-1.3,0.6-1.3,0.6s-1.5,0.3-3.3-0.3c-1.8-0.6-1.3-0.8-3-1
				c-1.7-0.2-3.5-0.7-3.5-0.7s-0.8-0.6-1,0.3c-0.3,0.8-1.2,1.7-1.2,1.7l-1,0.3c0,0,1.1,0.4,2.9,0.5c1.9,0.1,4.5,0.7,4.5,0.7l2,1
				l-2.3,0.6c0,0-0.7,0.6-1.5,1.2c-0.8,0.6-2,0.1-1.6,1.1c0.4,1,1.8,1.3,0.1,1.6c-1.7,0.3-0.7,0-2.2,0c-1.5,0-2.5-0.1-3.5-0.7
				c-0.9-0.6-2.9-1.5-2.9-1.5s0.2-0.3-1.9,0c-2,0.3-2.5,0.2-2.7,0.7s0.8,0.9,2.2,1s1.8-0.3,2.9,0.2c1.1,0.5,2.1,0.9,1.9,1.6
				s-2.6,0.1-0.8,1.1c1.9,1,3.2,0.8,3.3,1.4s-3.9,2.1-3.9,2.1l-8,4c0,0-0.8,1.2-1.1,1.3s-0.9,0.1-1.1-0.4c-0.2-0.5,1.4-1.3-1,0.4
				c-2.4,1.8-2,2.6-3.3,3c-1.4,0.4-1.6,0.6-3.1,1c-1.5,0.5-1.8,1.6-2.5,0.4c-0.8-1.2-0.6-2.9-0.6-3.1c0.1-0.2,2.1-0.6,0-1.7
				c-2.1-1.1-5.4-2.7-5.9-3c-0.5-0.3-2.3-0.7-2.3-1.1s1.4-1.8-0.8-2.3c-2.1-0.5-2.3-0.8-4.4-1.1c-2.1-0.3-5.3-0.9-5.3-0.9
				s1,0.3-2.1,0.8c-3.2,0.6-4.7,0.1-5.6,0.9s-2.1,1.8-2,2c0.1,0.2,1.2,1.7,1.4,1.7c0.2,0,0.2,2.3,3,0s2-2.8,4.1-2.9
				c2.1-0.1,2.1-0.7,4.4-0.1s4,1,4.2,1.2c0.2,0.2,1.3,0.2,0.6,1.3s-0.9,1.4-0.6,1.7c0.3,0.3,1.5,0.6,1.7,1.1c0.3,0.6,3.9,1,3.9,1
				l-1.8,0.7c0,0-1.1,0.8-1.1,1.1c0,0.3,2.1,0.5,0.1,0.7c-2.1,0.2-3.6,0.2-3.6-0.2c0-0.4,0.3-0.3,0-0.4c-0.3-0.1-3.1,0.4-1.5,0.9
				c1.6,0.5,2.6,0.7,3.3,0.7s4.7-0.2,4.7-0.2s3.7,0.7,3.7,1c0.1,0.3,0.4,1.2,0.4,1.4s-0.6,2.1-0.6,2.1s0.1,0.6-0.5,0.8
				s-2.7-0.1-2.7-0.1s0.4,1.1-0.6,1.2c-1,0.1-1.5,0.2-2.7-0.7s-2.1-1.1-2.6-1.7c-0.4-0.6-1.1-1.8-2.5-1.7c-1.3,0.1-2.5,0.3-2.8,0.7
				s-4.4-0.6-1.9,0.8c2.5,1.4,5.1,1.8,5.7,2.2s1.6,0.8,2.7,1c1.1,0.2,3.2,0.4,3.4,0.7"/>
			<path class="st29" d="M620.2,392.2c0,0-2.4,0.4-2.7-0.2s-3.9-1.9,0-2.3s4.8-1,5.7-0.6s1.6,1,1.8,1.3c0.2,0.2-2.1,1.3-3.3,1.7"/>
			<path class="st73" d="M450.1,479.9c0,0-3.2,1.3-6.4,1.7s-14.8,0.8-14.8,0.8l-14.8-1.5l-7.7-2.5l-2.3-1.1c0,0,0.4-1.8,1.3-1.8
				c0.9-0.1,3.4,0.6,3.8,0.9c0.4,0.3,2.8,1.6,4.3,1.8s3.9,0.9,6.9,0.8s6.8,0.5,8.7,0.5s8.5,0,10.3,0s4.8-0.7,6-0.8
				c1.2-0.1,4.9-0.4,5.2-0.4"/>
			<path class="st73" d="M401.5,474.4c-0.3-0.2-5.3-5.7-5.3-5.7s0.4,0.1,0-1.2c-0.4-1.3,0.2-6.3,0.4-6.4c0.2-0.2,0.1-0.1,1.6-1.4
				c1.5-1.3,4-3.6,4.6-3.9c0.6-0.3,2.6-1.5,3.5-1.9c0.9-0.5,5.8-2.9,5.8-2.9l13.6-5.7l5.1-0.7c0,0,1.2,0.3,4-0.4
				c2.8-0.7,6.3-1.7,8.8-1.7c2.5,0,10.3,0.3,11,0.3c0.7,0,1.6-0.1,3.7,0.3s5.6,0.7,6.2,0.8c0.6,0.2-1.3,0.2,1.6,0.3
				c2.9,0.1,4.2,0.1,4.4,0.1s1.4-1.3,1.4-1.3s2-0.4-0.9-0.9c-3-0.6-2.3-0.3-4.4-0.9s-1.5-1.4-5.7-1.5c-4.3-0.1-10.1,0.3-12.4,0
				c-2.3-0.3-3-0.3-5.6-0.3s-10.1,2-10.1,2l-14.4,2.5l-12.8,4.3l-9.2,5.9c0,0-5,6.2-5,6.4s-0.3,6.2-0.3,6.4s1.6,4.5,1.9,4.8
				c0.3,0.3,5.8,4.2,5.8,4.2l1.9-0.3"/>
			<path class="st73" d="M484.1,460.1c-0.4-0.7-1.3-1.6-1.6-2.7c-0.3-1-0.6-2.2-0.6-2.8c0-0.6,0.7-1.2-0.4-2.2c-1.1-1-3.2-2.4-3.7-3
				c-0.5-0.6-1.5-1.3-2.1-1.7c-0.6-0.4-1.6-0.7-1.9-1.3s-1.2-0.8,0-1.4s2.7-1.4,3.6-1.3c0.9,0.1,2.7,0.8,3.3,1.3
				c0.6,0.5,2.4,2.1,3.6,3.1c1.2,1,3.5,5,3.5,5s0.8,5.8,0.8,5.9c0,0.1-2.1,1.3-2.1,1.3"/>
			<polyline class="st73" points="483.6,466.9 490,463.4 490.7,462.4 497.6,462.1 498.4,463.5 488,467.1 			"/>
			<polyline class="st29" points="458.1,484.4 455.2,481.3 456.7,480.7 457.5,480.9 465.9,476.9 467.1,477.4 459.8,482.9 
				459.9,484.9 			"/>
			<path class="st73" d="M440,383.6l-3.5-0.3l0.3-2.2l-1.3-1.2l0.6-1.2l-0.5-1.6l-0.2-4.3l-1.1-0.2l0.8-1.9l1.6-2.1h5.8l-1.3,1.5
				l-1.5,2.3l1.9,1.4l3.4-0.1l-0.7,1.6l-3.2,0.5l3.2,2l-1.7,1.7c0,0-0.1,0.8,0.2,0.9c0.3,0,4.7,2.2,4.7,2.2h1.5l-0.3,1.5l-3.1,2.7
				l-2.9,1.4c0,0,0.3,0.7,0.6,1c0.4,0.2,5.3,0.4,5.3,0.4l3.1-0.3l-0.7,1.4l-4.8,0.8l-8.5-2.2l-2.3-1.5l5.7-1.9l0.5-1.1l1.2-0.7
				l-1-1.7l-0.9-0.1"/>
			<path class="st73" d="M453.3,379.4c0,0-2.5-0.6-2.7-1c-0.2-0.4-0.4-1-0.7-1.1c-0.3-0.2-1-0.6-1-0.7c0-0.1,3.6,0.2,3.7,0.4
				c0.1,0.2,0.5,0.9,1.2,1.2s0.5,1,0.5,1"/>
			<path class="st73" d="M450.5,381.1c0,0,0.4-0.7,0.9-0.7s1.4,0.5,1.8,0.3s1.6-0.4,1.6-0.3c0.1,0.1,0.9,0.7-0.6,0.9
				c-1.5,0.2-1.6,0-1.7,0.2c-0.1,0.2-0.2,0.5-0.3,0.5"/>
			<path class="st73" d="M452,384c0,0,1.3,0.7,1.5,0.8c0.3,0.1,1,0.1,1.3,0.1c0.3,0,0.5,0,0.6,0c0.1,0,1.3-0.5,1.3-0.6
				s0.3-0.1,0.6,0.3c0.3,0.4,0.5,0.5,0.7,0.5s1.5,0.2,1.8-0.1c0.3-0.3,0.8-0.6,0.7-0.7c-0.1-0.1-0.4-1.2-1.5-0.7
				c-1.1,0.5-1.2,0.6-1.2,0.6c-0.1,0-0.7,0-0.8-0.3s-0.3-0.6-0.4-0.6s-0.9,0-1.1,0.1c-0.2,0.1-0.5,0.4-0.8,0.5
				c-0.3,0.1-1.2,0.1-1.2,0.1l-0.9-0.5"/>
			<path class="st73" d="M458.9,386.7c0,0,1.9,0.9,2,0.9c0.1,0,0.5,0.5,1.5,0.2c1-0.3,1.5-0.5,1.7-0.4c0.2,0.1,0.6,0.6,1.3,0.6
				c0.7,0.1,1.8,0.2,1.9,0.1s0.1-1-0.8-1s-0.6,0.1-1.3-0.1c-0.7-0.2-1.3-0.6-1.6-0.5c-0.3,0.1-0.2,0.4-0.8,0.5s-0.8,0.3-1,0.1
				s-1-0.5-1-0.5l-0.8-0.1h-1.2"/>
			<path class="st73" d="M459.4,381.3c0,0-2.6-0.1-2.6-0.2s1-0.7,1.1-0.8s2.7,0.3,2.7,0.3"/>
			<path class="st73" d="M467.6,384.1c-0.1,0-2.8-0.1-3.1-0.3c-0.3-0.2-1.9-1.5-0.4-1.1"/>
			<path class="st73" d="M460,379l-2.5-0.4c0,0,0.4-0.8,1.4-0.6c1,0.2,1.8,0.5,1.8,0.6"/>
			<path class="st73" d="M456.4,375.7c0,0-2.3-0.2-2.1-0.5s2.2-0.7,3.1-0.6c0.9,0.1,2,0.2,2,0.3s-1.5,1-1.5,1"/>
			<path class="st73" d="M464.3,377c-0.2,0-1.4,0.1-1.5-0.2c-0.1-0.3,0.2-0.8,0.8-0.7s1.5,0.2,1.6,0.4"/>
			<path class="st73" d="M465.5,379.3c0,0-1.7-0.5-1-0.8c0.7-0.3,1.8-0.4,2-0.3c0.2,0.1,0.6,0.1,0.3,0.3s-0.4,0.7-0.4,0.7"/>
			<path class="st73" d="M464.4,381.5c0,0-1.8-0.5-0.4-0.6c1.3-0.1,1.6-0.3,1.7,0c0.1,0.3,1,0.7,0.2,0.6"/>
			<path class="st73" d="M468.4,381.7c-0.1-0.3-1.3-1-0.8-1c0.5,0,1.7,0.4,2,0.5c0.4,0.1,0.9,0.1,0.9,0.1l-0.9,0.4"/>
			<path class="st73" d="M470.1,383.6c0,0-2.2-0.4-1.5-0.6c0.6-0.2,2.3,0.3,2.7,0.3s0.9,0,0.9,0l-1.3,0.5"/>
			<path class="st73" d="M471.9,385.8c-0.3-0.1-2.6-0.8-1.8-0.9s2.4,0.1,2.7,0.3s0.9-0.1,0.9,0.2"/>
			<path class="st73" d="M474.1,388.1c0,0-1.9-0.8,0-0.7s1.7-0.3,1.9,0.1c0.1,0.3-0.1,0.4,0,0.5"/>
			<path class="st73" d="M474.6,382.8c0,0-0.4-0.2-0.2-0.5c0.3-0.3,0.5-0.3,0.6-0.6c0.1-0.3,0.6-0.9-0.7-1.3
				c-1.2-0.4-1.8-0.3-1.7-0.5c0.1-0.2,0.3-1,2.1-0.2c1.9,0.8,2,1,2,1.2c0,0.2,0.2,0.6-0.4,0.9c-0.6,0.3-0.7,0.5-0.7,0.5"/>
			<path class="st73" d="M470.5,377.8c-0.1,0-2.3-0.7-2.1-0.8s2.2,0,2.9,0.2c0.6,0.2,1.4,0.2,1.4,0.2l-0.4,0.4"/>
			<path class="st73" d="M478,378.3h-3.7c0,0,1.5-0.6,2.3-0.6s1.8,0,1.9,0c0.1,0,1.4,0.4,1.4,0.4"/>
			<path class="st73" d="M530.1,392.6c-0.1-0.1-2.7-0.7-2.8-0.8c-0.1-0.1-2,0.8-2.5,0.9c-0.5,0.1-2.1,0.8-2.2,0.6
				c-0.1-0.2-1.8-2.1-0.6-2.4c1.2-0.3,2.3-0.7,2.3-0.7s-1.3-0.7-0.1-0.9s1.7-0.4,3.5,0s3.5-0.1,2.3,0.6s-2.3,0.9-1.8,1.3
				c0.6,0.3,2.2,0.9,2.2,0.9"/>
			<path class="st73" d="M512.1,391.8c0,0-2.2-0.8-2.2-0.9c0-0.1,2.5-0.3,2.9,0s0.9,0.5,0.6,0.6"/>
			<path class="st73" d="M519.3,389.6c0,0-1,0.2-1.3,0.2s1.2-0.7,1.7-0.7c0.5,0,1.1-0.3,1.2,0s-0.6,0.7-0.6,0.7"/>
			<path class="st73" d="M504.9,388.9c-0.1-0.1-2.4-1-2.3-1.1c0.1-0.1,1.9,0.1,2.5,0.3c0.6,0.2-0.1-0.1,0.8,0.2
				c0.9,0.3,1,0.3,1.2,0.4"/>
			<path class="st73" d="M507.9,387.8c-0.1,0-3.2-0.5-1.3-0.6c1.9-0.1,2.8,0.7,2.9,0.9c0.1,0.2,0.8,0.4,0.7,0.4"/>
			<path class="st73" d="M499,387.4c0,0-2.1-0.3-2.1-0.3c0,0,1.3-0.8,2.4-0.5c1.1,0.3,1.6-0.1,1.4,0.5"/>
			<path class="st73" d="M493,387c0,0-4-0.8-2.2-1c1.8-0.2,2.8-0.3,3.3,0c0.5,0.3,0.8,0.8,0.8,0.8"/>
			<path class="st73" d="M489.7,385c-0.2-0.1-2-0.9-1.7-1c0.3-0.1,2.5,0,2.7,0c0.2,0,1.2-0.1,0.8,0.3c-0.4,0.5-0.5,0.6-0.5,0.6"/>
			<path class="st73" d="M494.6,384c-0.1,0-1.9-0.7-1.7-0.9s3.6,0.4,3.6,0.4l-0.3,0.6"/>
			<path class="st73" d="M498.8,383.4c0-0.1-2.1-0.3-1.8-0.7c0.4-0.4,0.7-0.7,1.8-0.3c1.1,0.4,1.4,0.2,1.4,0.4
				c0,0.2-0.5,0.5-0.5,0.5"/>
			<path class="st73" d="M496.8,385c0,0-2.1-0.7-0.6-0.7c1.6,0,3,0.9,3,0.9s0.1,0.2,0,0.3"/>
			<path class="st73" d="M502,385.2c0,0-1.6-0.9-1.2-1.1c0.3-0.2,2.2-1.1,2.8-0.1c0.6,1,1.2,1.6,1.2,1.7c0,0.1,0.3,0.4-0.8,0.3"/>
			<path class="st73" d="M508.1,385.5c-0.1,0-2.3-1.2-0.9-1.2c1.4,0,0.4-0.8,1.8,0.2c1.3,0.9,1.7,1,1.6,1.2
				c-0.2,0.1-0.4,0.2-0.4,0.2"/>
			<path class="st73" d="M448.6,372.5c0,0-1.5-0.3-1.5-0.6c0-0.2,1.6-1.5,2.3-1.5c0.7,0,1.2,1.3,1.2,1.3"/>
			<path class="st73" d="M451.1,370.2c-0.1-0.1-2.1-0.6-2-0.7c0.1-0.1,4.3-0.4,4.3-0.4s-0.3,0.8-0.5,0.8s-0.3,0-0.3,0l-0.7,0.3"/>
			<path class="st73" d="M456.8,371.4c-0.3,0-2.4,0.1-2.2-0.2c0.3-0.2,2.1-0.9,2.4-0.9s0.9,0.3,0.9,0.3c0.1,0,1.8,0.2,0.6,0.4
				s-1.1,0.2-1.1,0.2"/>
			<path class="st73" d="M460.7,372.1l-1.6-0.5c0,0,2.7-0.4,2.8-0.4s1.7,0.1,1.8,0.4c0.1,0.3,1.2,0.5,0.2,0.7
				c-1,0.2-1.9,0.2-1.9,0.2"/>
			<path class="st73" d="M471.2,374c0,0-2-0.4-1.7-0.5c0.3-0.1,4.4-0.5,4.5-0.4c0.1,0,0.9,1,0.9,1h-1.5"/>
			<path class="st73" d="M469.6,371.6c0,0,1.2,0.6,0.2,0.2c-1-0.4-1.7-0.5-1-0.9c0.7-0.3,0.5-0.5,1.3-0.4s1.3,0.3,1.1,0.6"/>
			<path class="st73" d="M468.7,369.6c0,0-3-0.5-1.1-0.8s4.3-0.1,4.4,0c0.1,0.1,2.1,0.2,0,0.6s-2.1,0.4-2.1,0.4"/>
			<path class="st73" d="M450.6,366c0.1-0.1-0.9-1.1,0.3-1.2s2.7,0.3,2.8,0.4c0.1,0.1,0.6,0.5-0.4,0.6s-1.1,0.1-1.1,0.1"/>
			<path class="st73" d="M449.9,368.3c-0.1,0-1.8-0.7-1.7-0.8s1.7-0.5,2.4-0.2c0.7,0.2,0.8,0.6,0.6,0.7"/>
			<path class="st73" d="M445.2,365.1c0,0-3.1-0.8-1.4-1c1.7-0.2,2.8-0.2,3.3-0.1s0.8,0.1,1.1,0.2c0.3,0.2,0.6,0.5,0,0.7
				c-0.6,0.2-1.1,0.3-0.9,0.3"/>
			<path class="st73" d="M453.6,363.8c0,0-1.6-0.4-0.8-0.7c0.8-0.2,2.5-0.6,3-0.4c0.5,0.2,0.2,0.7-0.1,0.8"/>
			<path class="st73" d="M454.9,367.3c0,0-1.9-0.1-1.8-0.3s0.2-0.6,1.2-0.6s2.2,0,2.3,0c0.1,0,1.8,0.2,0.6,0.6
				c-1.2,0.4-1.6,0.4-1.4,0.4"/>
			<path class="st73" d="M465.8,367.8c0,0-2.2-0.2-1.9-0.6c0.4-0.4,1-0.7,2.1-0.5c1.1,0.2,1.3-0.1,1.3,0.2c0,0.3,0.2,0.3-0.4,0.5"/>
			<path class="st73" d="M460.1,366.4c0,0-1.4-0.6-1.2-0.7c0.2,0,2.6-0.1,2.6,0s1.5-0.3,0.4,0.3c-1.1,0.5-1.3,0.6-1.3,0.6"/>
			<path class="st73" d="M460.2,369.4c0,0-1.6-0.1-1.6-0.2c0-0.2,2.3-0.5,2.7-0.6c0.4,0,0.8,0.3,0.6,0.5s-0.2,0.1-0.2,0.1"/>
			<path class="st73" d="M546.3,378.1l-0.9,1.4l-0.5,0.9c0,0,0.1,3.6,0,3.7c-0.1,0.1,0.8,1-0.9,0.4s-2-0.4-2.3-1.1
				c-0.3-0.7-1.1-1.6-1-2c0.1-0.4,1.7-1.4,1.8-1.5c0.1-0.1,0.4-0.3,0.4-0.9s0.1-1.5,0.1-1.5s2.5-0.5,3.3-1.1c0.9-0.5,5-1.9,5.2-2.2
				c0.2-0.3,0.9-1.5,1.2-1.9s1.2-2.2,2.3-2.5c1.1-0.3,3.3,1.2,3.3,1.2l-5.4,3.5l5.2-2.1l1.7,0.7l-5,2c0,0-0.7,1.2-2.1,1.3
				c-1.4,0.2-4.2,0.5-4.3,0.5c-0.1,0-0.7,0.9-1.1,1.1"/>
			<path class="st73" d="M535.1,379.1c0,0-1.6-0.1-1.6-0.9s-0.4-1.9,0.5-1.4s1.7,2,1.7,2.2"/>
			<path class="st73" d="M534.8,373.2c0,0-4.4-1.1-2.1-1.1c2.4-0.1,5.5,0.7,5.5,0.8c0,0.1-2.9,0.8-3.1,0.7"/>
			<path class="st73" d="M528.5,374.8c0,0,2.1,0.2,0.8-0.3c-1.4-0.5-2-1-1.8-1c0.2-0.1,1.6-0.8,2.3-0.2c0.7,0.6,1.1,1.5,1.1,1.5"/>
			<path class="st73" d="M521.4,375.3c-0.7-0.1-3.1-0.9-2.3-1.1c0.9-0.2,3.6,0.5,3.6,0.5"/>
			<path class="st73" d="M524.4,378.6c0,0-3.9-1.3-0.9-1.3c3.1,0,4.8,0.9,4.8,0.9l-0.6,0.5"/>
			<path class="st73" d="M560,360.2c0,0-8.2-0.2-9.7-0.4c-1.5-0.2-1.8-0.2-2.7-0.5c-0.9-0.3-2.3-0.7-4.5-0.4s-1.5,0.2-2.7,0.6
				c-1.1,0.4-3.8,1.5-3.8,1.2c0.1-0.3,4.8-2.8,5.5-2.8s3.3,0.3,4.7,0.5c1.4,0.2,4.7,0.5,5.4,0.5c0.7,0,4.4,0,5.1,0s3,0,3.1,0.1
				c0.1,0.1,0.5,0.4,0.5,0.3c0-0.1,0.5-1.7-0.8-2.1s-1.9-0.8-3.4-0.7c-1.5,0.1-5.5,0.4-6.1,0.3c-0.6-0.1-1.1-1-0.5-1s2.1-0.7,4.8,0
				c2.8,0.7,8.6,2,8.6,2s0.7,1.3,0.7,1.5s-0.7,0.8-0.9,1c-0.2,0.2-1.6,0.8-1.6,0.8s0.2,0.4,1.3,0.4c1.2,0,2.1-0.6,1.4,0.4
				s-0.9,1.2-2.1,1.4c-1.2,0.1-0.8-0.3-2.8,0c-2,0.3-2.4,0.7-4,0.9c-1.5,0.2-2.8-0.5-2.7,0.3c0.1,0.8,0.3,1.5-0.3,1.7
				c-0.7,0.2-2.2,0.5-3.6,0c-1.4-0.5-2.3-0.5-1.8-0.9c0.5-0.3,3.7-1.6,3.8-1.7s0.8-0.2,0-0.7s-1-0.6-1.2-0.6c-0.2,0-0.6-0.2-2.8-0.2
				s-3.9,0.2-4-0.2c-0.2-0.4-0.3-1.8,2.1-1.8c2.4,0,0.7-0.4,3.7,0.4s5.9,1.3,6.8,1.3s2.7,0.1,3.1-0.2c0.5-0.3,0.8-0.9,0.8-0.9"/>
			<path class="st73" d="M544.5,365.2c0,0-2.6-2.7,0-2.3s3.8,0.8,3.8,0.8s-0.4,0.4-1.5,0.9"/>
			<path class="st73" d="M507.5,376.3c0,0-4.3,0.7-4.3,0s1.5-0.6,1.5-0.6"/>
			<path class="st73" d="M498.2,374c0-0.1-0.6-0.9,0-1.2c0.6-0.3,2.7-0.4,2.7-0.4s1.7,0.7,1.9,0.7c0.3,0,0.9,0,0.9,0l-3.9,0.5
				c0,0-0.3,0.7-0.1,0.6s0.3-0.1,0.3-0.1"/>
			<path class="st73" d="M493.6,373.5c0,0-3.8-0.7-3.8-0.7s0.4-0.6,1.1-0.7c0.7-0.1,0.9-0.1,1.1-0.3c0.2-0.2-1.1-0.3-1.5-0.3
				c-0.3,0-1.7-0.2-0.8-0.4c0.9-0.1,4-0.4,4.4-0.4c0.3,0,0.2-0.2,0.3,0c0.2,0.2-0.3,1.3-0.3,1.3s-0.6,0.5,0.5,0.1
				c1.1-0.3,1.3-0.5,1.8-0.8c0.5-0.3,0.8-0.3,0.8-0.3l0.6,0.6l-3,1.4"/>
			<path class="st73" d="M486.5,370.5c0,0-1.7,0.7-1.9,0.2c-0.1-0.5-0.4-1.1,0-1c0.4,0.1,1.3,0.2,1.3,0.2l3.1-0.7v0.3v0.4"/>
			<path class="st73" d="M507.7,372.4c0,0-0.6,0.4-0.6,0c0-0.4-0.2-0.6,0.3-0.8c0.5-0.2,0.1-0.3,0.7-0.3c0.5,0,1.1,0.3,1.1,0.3
				s-0.8,0.5,0,0.3"/>
			<path class="st73" d="M511.9,373.6c0,0-1.2,0.4-1.2-0.1s-0.1-1.6,0.5-1.5c0.6,0.1,0.1,0.3,0.7,0.2c0.6-0.1,1-1,1-0.9
				s0.2,1.5,0.2,1.5s0.6,0.6,1,0.5c0.4,0,1.9,0,1.9,0.2s-1.6,0.5-1.6,0.5"/>
			<path class="st73" d="M523.6,370.1c0,0-0.9,0.1-0.9,0c0-0.1,1.3-0.6,1.6-0.6c0.3,0,1,0.4,1,0.4l-0.3,0.5"/>
			<path class="st73" d="M517.5,371c0,0-1.5-0.3-1.1-0.6c0.4-0.3,1.5-0.4,2.6-0.2s1.6,0.7,1.9,0.7c0.3,0.1,1.2,0.2,1.1,0.3
				c-0.1,0.2-1.4,0.3-1.4,0.3l-2.8-0.3"/>
			<path class="st73" d="M530.3,370c0,0-1.1-0.5-0.9-0.7c0.2-0.2,2.9-0.2,3.1-0.2c0.2,0,0.7,0.1,0.9,0.1s0.5,0.3,0.5,0.3"/>
			<path class="st73" d="M481.6,363c0,0-3.2-0.5-1.1-1c2.1-0.6,4.1,0.8,4.1,0.8"/>
			<path class="st73" d="M482.7,365.9c-0.3-0.2-1-1.2,0.4-1.2s1.6,0.4,1.6,0.5"/>
			<path class="st73" d="M488.5,365.3c0,0-2.3,0.5-1.5-0.6c0.8-1.1,1.5-2.1,2.9-2.2c1.5-0.1,5.3-0.9,3.4,0c-1.9,0.9-4.8,2.3-4.7,2.2
				"/>
			<path class="st73" d="M484.4,359.7c-1.2-0.6-2.8-1.1-3.1-1.8c-0.3-0.7-1.6-2.3-0.4-2.3c1.2,0,2.1,0.6,2.2,1.1
				c0.1,0.6-0.1,1.3,0.7,1.5c0.8,0.2,1.7,0.3,1.7,0.3"/>
			<path class="st73" d="M489,355c-0.1-0.1-4.4-1-4.4-1.2c0-0.2,0.3-1.7,1-1.7s2.1,0.1,2.4,0.2c0.3,0.1,2.1,0.8,2.1,0.8l0.6,0.4"/>
			<path class="st73" d="M492,351.5c0,0-2.4,0-2.5-0.3c-0.2-0.3,1.4-0.6,2.5-0.6s3.5,0,3.5,0l4.5,0.9c0,0,1.9,0.6,1.6,0.6
				c-0.3,0-4.2,0.3-4.2,0.3h-4.3l-2-0.2"/>
			<path class="st73" d="M496.8,357.5c-0.2,0-7.6,0.3-7.7,0c-0.1-0.3-1.7-1.3,1.7-1.3s2.7,0.2,4.6,0.4c1.9,0.2,4.7,0.7,4.7,0.7"/>
			<path class="st73" d="M495.6,362.2c-2.4-0.4-8.2-1.5-7-1.6s5.4,0.4,6.4,0.6c1,0.2,2.3,0.2,2.3,0.2"/>
			<path class="st73" d="M508.9,350.7c0,0-3.9,2.8-4.2,2.9c-0.3,0.1-2,1.6-2.8,1.4c-0.8-0.2-1.6-1.1,0.4-1.8
				c2.1-0.6,3.5-0.5,2.4-1.1"/>
			<path class="st73" d="M524.5,360.7c-1-0.2-3.7-0.5-3.3-0.9c0.4-0.4,3.2-0.2,3.3-0.1"/>
			<path class="st73" d="M522.5,357.6c0,0-1.1,0-1.6,0.2c-0.5,0.1-1.9,0.6-2.5,1.1c-0.6,0.5-0.7,1.6-1.1,0.7
				c-0.4-0.8,1.1-2.3,1.9-2.7c0.8-0.4,1.4-0.9,1.9-0.9s2.6,1.3,2.7,1.4c0.1,0.1,0.3-0.2,0.3-0.2"/>
			<path class="st73" d="M533.1,360.1c-0.1,0-2.7-1.1-2.6-1.4c0.2-0.3,2.4-0.5,2.6-0.6c0.2-0.1,1.4,0.6,1.4,0.6"/>
			<path class="st73" d="M531.4,354.6c0-0.1-1.9-0.7-1.1-1.1s2.6-1,3-0.7c0.4,0.3,1.7,0.6,1.7,0.6"/>
			<path class="st73" d="M548,353.7c0,0-3.1-1.5-3.1-1.6s2.5-0.7,2.5-0.7s1.5-0.3,1.6-0.2c0.1,0,0.9,0.2,0.9,0.2l0.3,0.5v0.3"/>
			<path class="st73" d="M524.7,346.8c0,0-6,1.1-7.2,1.3c-1.2,0.2-1.5,1.3-3.9,1c-2.5-0.3-4.1-0.4-4.1-0.4v-0.9c0,0,5.7-1.1,7.7-1.7
				c2-0.6,3.3-1.2,4.6-1.1s3.9,0.8,3.9,0.8"/>
			<path class="st73" d="M505.6,345.4c0,0-1.7,1.2-2.8,1.5s-0.7,0.6-1.8,0.4c-1.1-0.2-3.1-0.3-2.4-1s1-1.9,3-1.9
				c2.1-0.1,4.6-0.2,4.6-0.2"/>
			<path class="st73" d="M505.6,350.8c0,0-3.8-0.3-3.3-0.9c0.6-0.5,1.1-0.9,1.9-0.8c0.9,0.1,2.2,0.2,2.2,0.2"/>
			<path class="st73" d="M513.9,352c0,0-2.2-1.7,0.4-1.1c2.6,0.5,4.6,0.8,2.7,1.1c-1.9,0.4-1.6,0.2-1.6,0.2"/>
			<path class="st73" d="M511,357.4c-0.2,0-2-1.1-0.6-1.8c1.4-0.7,0.3-1.9,2.1-1c1.7,0.9,0.5,1,0.5,1"/>
			<path class="st73" d="M525.3,352.4c-0.5-0.4-3-1.5-2.5-1.6c0.6-0.1,1.9-0.3,2.5,0.3c0.5,0.6,0.5,0.6,0.5,0.6"/>
			<path class="st73" d="M524.6,349.7c0,0-4.4,0.2-4.8,0.3c-0.4,0.1-0.4,0.7-1,0.7c-0.6-0.1-2.3,0.3-1.1-0.7c1.2-1,5.5-1.3,5.5-1.3
				s1.4,0.2,1.6,0.2c0.2,0,0.9,0.1,0.9,0.1l0.9,0.5"/>
			<path class="st73" d="M523.4,353.9c-0.3-0.1-2.9-0.5-2.8-0.4c0.1,0.1-0.2,0.6-0.2,0.7s-1.8-0.6-1.1-0.9c0.7-0.3,1.5-1.1,2.6-0.7
				c1.1,0.4,1.5,0.3,2.1,0.5s1.2,0.9,1.4,0.9"/>
			<path class="st73" d="M526.4,356.7l-2.5-1.5c0,0,2.1,0,2.5,0.2s1,0.7,1.1,0.7"/>
			<path class="st73" d="M528.5,358.6c-0.3-0.3-1.3-1.1-0.4-1s1.1,0,1.3,0.4c0.2,0.3,0,0.5,0,0.5"/>
			<path class="st73" d="M511.4,358.4c-0.1,0-2.7-0.3-1.8-0.5c0.8-0.2,2.9-0.2,2.9-0.2h1v0.3"/>
			<path class="st73" d="M505.5,357.3c-0.1,0-1.5-0.7-1.1-0.8c0.4,0,2,0.6,2,0.6l-0.6,0.1"/>
			<path class="st73" d="M498.7,360c-0.1,0-3.1-0.9-2-1c1.1-0.1,1.6-0.7,2.2,0s1.4,1.1,1.4,1.1"/>
			<path class="st73" d="M502.6,359.4c0,0-1.2-1-1.1-1s3.1,1,3.1,1s-0.5,0.5-0.7,0.6s-0.9,0.2-1.8,0.5c-0.9,0.3-1.2,0.3-1.1,0.4
				s0,0.3,0,0.3"/>
			<path class="st73" d="M506.7,367.2c-0.1,0-4.9-2.2-4.9-2.2s0.6-0.1,1.9,0.5s2.4,0.9,2.4,0.9"/>
			<path class="st73" d="M498.2,364.9c-0.4-0.1-1.1-0.3-1-0.8c0.1-0.5,0-0.6,1-0.5s2,0.3,2.1,0.1c0.1-0.2-0.3,0.5-0.3,0.5"/>
			<path class="st73" d="M500,367.5c-0.7-0.3-3.1-1.4-1.4-1.3c1.7,0.1,2.4,0.6,2.4,0.6"/>
			<path class="st73" d="M494.9,367.2c0,0-2.3-0.3-1.7-0.5c0.6-0.3,1.4-0.5,1.8,0c0.5,0.5,1.6,0.8,1.6,0.8"/>
			<path class="st73" d="M490.6,368c-0.2-0.2-1.7-1-1.1-1s1.9,0.4,2,0.4"/>
			<path class="st73" d="M505,363.2l-1.3-1.1c0,0,1.3-0.3,1.7-0.2c0.4,0.2,1.6,0.6,1.6,0.6"/>
			<path class="st73" d="M512.5,365.2c0,0-2.3,0.3-2-0.2c0.3-0.5,1.5-1.3,2.4-0.8c0.9,0.5,1.5,0.7,1.5,0.7"/>
			<path class="st73" d="M511,360.7c0,0-1.5,0.2-1.5-0.1s0.6-0.8,1.2-0.7s0.9,0.3,0.9,0.3"/>
			<path class="st73" d="M515.1,362.6c-0.1,0-4.1-0.9-2.7-0.8c1.4,0.1,3.6,0.2,3.6,0.2"/>
			<path class="st73" d="M518.1,364.6c-0.4-0.1-2.4-0.5-2-0.6c0.4-0.1,2.8-0.1,2.8-0.1"/>
			<path class="st73" d="M523.4,365.2c0,0-2.3-1.2-1.9-1.3c0.4-0.1,1.7,0.8,2.2,0.8c0.4,0,3-0.8,3-0.8l-0.6,1.1l-1.9,0.7"/>
			<path class="st73" d="M520.2,367.5c-0.3,0-5.1-0.2-5.1-0.2s-0.6-1.1,1.1-1.1s1.9,0.3,3.7,0.3c1.7,0,2-0.5,2-0.5"/>
			<path class="st73" d="M511.2,368.8c0,0-1.7-1.1,0-1.2c1.7-0.1,2.2-0.1,2.2,0C513.4,367.7,511.2,368.8,511.2,368.8z"/>
			<path class="st73" d="M519.5,369.1c0,0-1.4,0.3-1.4,0.2s2.3-1,2.3-1"/>
			<path class="st73" d="M507.9,370.5c0,0-1.5,0.9-1.5,0.8c0-0.1,1.5-1.1,1.5-1.1"/>
			<path class="st73" d="M515.7,360.3c0,0-1.4-0.7-0.7-0.9s1.7-0.4,1.8,0c0.2,0.4,0.5,1,0.5,1"/>
			<polyline class="st73" points="997.2,205.5 953.1,231.9 939.9,231.9 931.2,235.2 997.2,235.2 			"/>
			<polyline class="st73" points="586.2,454.9 640.5,471.4 602.8,493.4 557.5,482.4 541.2,471.9 			"/>
			<polyline class="st73" points="644.8,468.3 595.6,454.9 623.7,442 667.6,454.1 			"/>
			<polyline class="st73" points="670.9,451.9 624.3,439 646.3,425.1 691.8,439.2 			"/>
			<polyline class="st73" points="691.8,431.7 678.5,432.7 646.6,423.7 666.4,415.9 680.6,408 700.2,412.1 689.7,417.6 693.7,430 
							"/>
			<polyline class="st73" points="642.1,396.6 621.8,412 611.9,408.4 632.3,393.4 			"/>
			<polyline class="st73" points="736.3,335.4 751.7,335.4 772.7,340.7 771.2,331.9 756.4,326.5 737.4,331.2 739.7,332 735.9,334.5 
							"/>
			<polyline class="st73" points="618.2,414.2 572.4,442 563.5,445.9 556.7,442 608.3,410.6 			"/>
			<polyline class="st73" points="645.8,397.5 624.3,412.8 635.1,416.4 661.3,402.7 			"/>
			<polyline class="st73" points="620.7,415.5 631.1,418.5 600.5,443.6 578.4,451.9 567.2,446.6 575.2,442.8 			"/>
			<polyline class="st73" points="758.1,326.5 772.7,331.6 774.5,341.5 793.4,347.1 803.4,347.8 798.2,335.3 828.6,324.4 
				831.2,320.1 791.7,310.1 774.7,319.3 			"/>
			<path class="st73" d="M637.5,388.1l12.3,4.2l30-23.6l21.5-17.7c0,0-12.1-1.5-12.5-1"/>
			<polyline class="st73" points="651.3,393 661.3,396.4 672.4,396.5 718.2,361.2 702.8,352.7 			"/>
			<polyline class="st73" points="719.6,360.1 705.9,350.7 717.5,339 741.5,339 770.3,347.8 750.3,354.6 749.8,358 			"/>
			<polyline class="st73" points="716.1,338.6 705.1,349 705.6,339.3 714,333.2 710,329.4 714.5,327.4 720.7,331.8 713.4,335.6 			
				"/>
			<polyline class="st73" points="552.5,443.9 573.9,453.4 481.5,488.3 470.9,485.3 			"/>
			<polyline class="st73" points="540.4,479 527,489.5 577.8,508.4 522.4,540.7 459.5,516.1 500.2,496.9 490.6,490.9 534.3,472 			
				"/>
			<polyline class="st73" points="773.7,349 786.9,353.6 791.1,357.5 809.9,362.8 805.4,364.1 793.4,365.2 761.2,358 752.8,358.5 
				753.8,354.6 			"/>
			<polyline class="st73" points="773,364.7 757.5,361.9 722.5,364.7 678.1,396.5 691.7,400 701.7,395.1 718.2,398.8 730.4,391.7 
				738.1,380.9 758.1,383.9 765.7,377.4 749.8,370.4 774.3,370.4 			"/>
			<polyline class="st73" points="653.7,473 688.6,491.5 642.9,493.4 625.7,500.1 617.2,496.8 			"/>
			<polyline class="st73" points="606.7,502.5 624.8,505.9 639.3,521.1 600.1,531.4 585.3,521.4 585.3,516 			"/>
			<polyline class="st73" points="643,525.3 664.3,540.7 629.9,550.1 619.7,549.2 602,534.8 			"/>
			<polyline class="st73" points="698.7,519 699.3,522.3 706.4,528.7 665,539.8 645.7,524.6 658.4,522.1 			"/>
			<polyline class="st73" points="427.4,509.6 336.8,555 357.1,563.8 369,559.4 373.4,548.2 435.1,512.6 			"/>
			<polyline class="st73" points="261.1,639 349,595.9 332.7,584.9 362.1,571 351.4,601.6 345.8,609.1 327.7,627.1 305.4,637.9 
				270.2,644.7 			"/>
			<polyline class="st73" points="349.4,572.8 327.8,584.1 343.8,595.7 253.8,637.1 222.1,616.8 244,609.5 237.3,595.6 250,591.7 
				261.1,609.5 249.4,616.5 256.4,620.1 262.2,619.8 266.4,621.6 328.3,593.2 321.5,591 278.9,608.7 274,601.4 344.4,571 			"/>
			<path class="st73" d="M498.6,552.3l-41.7-16.9l-16.8,8.4l-16.5-7.2c0,0-14.8,7.9-15.2,7.9s-8.1-3.8-8.1-3.8l33.3-16.7l12.7-1.3
				l63.5,24.6"/>
			<polyline class="st73" points="578.5,515.6 536.2,539.8 539.3,542.5 569.4,530.6 586.5,530.6 576.1,524 			"/>
			<polyline class="st73" points="878.8,296.9 855.5,310.1 837.4,314.6 838,327.2 804.7,338.3 812.3,349 827.8,357.6 886.5,368.8 
				885,356 896.8,347.8 892.9,340.7 902.1,330.8 898.4,322.6 925.7,307.9 			"/>
			<polyline class="st73" points="894.4,400.8 892.5,409.7 829.7,411.7 819,400 			"/>
			<polyline class="st73" points="933.6,402.7 924.9,414.5 947.5,417.9 949.1,410.3 945,404.3 			"/>
			<polyline class="st73" points="897.3,401.3 894.9,411.7 920.8,413.1 926.7,403.2 			"/>
			<polyline class="st73" points="933.6,378.6 901.1,377.8 902.8,382.9 899.5,399.1 925.7,399.6 			"/>
			<polyline class="st73" points="936.1,375.1 900.8,375.1 891.4,357.6 897.1,355.1 933.6,361.1 939.1,369.3 			"/>
			<polyline class="st73" points="899.5,353.4 932,358.6 927.3,348 929.4,338.7 958.6,315.6 932,309.7 905.9,325.7 908.3,332.9 
				901,342.7 904.8,349.7 			"/>
			<polyline class="st73" points="375,565.8 479.2,578.3 449.5,601.9 364.5,591 			"/>
			<polyline class="st73" points="512.2,564.5 489.2,582.5 481.3,604.1 618.5,625.2 638.3,596.8 568.1,590.4 			"/>
			<polyline class="st73" points="246.5,655.9 274.2,674 331.8,655.9 397.7,618.4 407.2,603 362.1,596.6 351.4,613.7 332.4,632 
				308,644.7 			"/>
			<polyline class="st73" points="879.3,288.1 850.9,276.8 865.2,266.9 882.5,258.2 912.5,249.4 923.9,240.4 950.3,252.7 976.1,254 
				938.3,276.2 892.6,276.9 			"/>
			<path class="st73" d="M859.9,368.8c0.7,0.5,7.7,12.1,7.7,12.1l-17.4,14.9l41.9,1.3l4.9-15.1l-8.2-11.1"/>
			<polyline class="st73" points="1.6,695.9 306.8,640 329.3,628.2 349.5,609.3 360,591.7 376.3,549.9 470,494.7 601.6,444.6 
				631.3,421.2 672.2,398.1 723.9,361.5 760.2,359.5 774.4,362.6 796.5,366.5 811,363.6 820.2,356.3 810,349 802.1,336.1 
				834.1,323.9 835.7,313.3 837.4,311 855.9,306.7 876.6,294.5 896.1,279 941.6,277.7 987.1,251.6 998.3,235.4 			"/>
			<polyline class="st73" points="94.4,793.7 391.6,679.6 447.7,646.7 470.1,623.6 484,580.7 520.1,551.7 574.5,531.9 602.8,531.9 
				657.6,519.3 782.9,510.8 879.9,466.4 914.2,456.8 943.9,440.8 951.8,409.8 939.9,386.3 947.8,370.2 931.8,349.3 931.8,339.5 
				997.8,287.4 			"/>
			<polyline class="st73" points="360,591.7 653,631.5 697.9,635.9 763.8,640.1 837,627.5 874.6,634.1 998.3,640.1 			"/>
			<polyline class="st73" points="598.9,531.9 583.1,523.3 583.1,514.5 598.9,504.4 695.2,444.9 697.9,428.8 693,418.4 726.9,400.6 
				792.4,402 1006.6,493.9 			"/>
			<polyline class="st73" points="787.6,400.6 773.6,387 774.9,381.1 778.3,372.4 776,362.1 			"/>
			<polyline class="st73" points="792.4,402 813.6,397.6 896,398.9 900.7,381.4 889.3,356.8 901.6,348 897.8,341.4 905.7,331.2 
				902.9,323.8 915.8,316.1 932.7,305.8 			"/>
			<polyline class="st73" points="879.8,293.6 878.1,292.4 879.8,293.6 964.3,313.9 998,321.9 			"/>
			<line class="st29" x1="588.7" y1="419.5" x2="605.6" y2="410"/>
		</g>
	</g>
</g>
<g id="Layer_2">
</g>
</svg>
