<?xml version="1.0" encoding="utf-8"?>
<!-- Generator: Adobe Illustrator 21.1.0, SVG Export Plug-In . SVG Version: 6.00 Build 0)  -->
<svg version="1.1" id="Layer_1" xmlns="http://www.w3.org/2000/svg" xmlns:xlink="http://www.w3.org/1999/xlink" x="0px" y="0px"
	 viewBox="0 0 400 231" style="enable-background:new 0 0 400 231;" xml:space="preserve">
<style type="text/css">
	.st0{fill:#D64E29;}
</style>
<path class="st0" d="M400,180.2c-0.3,0.2-0.2,0.5-0.2,0.8c-0.4,0.1-0.8,0.1-1.3,0.1c-0.1-0.1-0.2-0.2-0.3-0.2c0,0.1,0,0.2-0.1,0.3
	c-0.3-0.2,0-0.2-0.2-0.3c0,0.7-0.1,0.7,0,1.2c-0.1,0.1-0.1,0.2-0.2,0.3c-0.3,0.1-0.6,0.3-0.8,0.4c0,0.1,0,0.2,0,0.2
	c-0.4,0.2-0.8,0.3-1.2,0.2c0-0.2-0.2-0.5-0.1-0.7c0.1-0.3,0-0.7-0.1-1c-0.2,0-0.4-0.1-0.6-0.1c0-0.1,0-0.2,0-0.3
	c0.1,0,0.2,0.1,0.3,0.1c-0.1-0.3-0.4-0.4-0.6-0.6c-0.1-0.7,0.1-1.4-0.1-2.1c-0.2,0-0.3-0.1-0.5-0.1c0-0.2,0-0.4,0-0.6
	c-0.1-0.3,0-0.6-0.1-1c-0.5-0.1-1-0.1-1.5-0.2c-0.6,0.2-1.2,0.1-1.8,0.1c0-0.2-0.1-0.3-0.2-0.5c-0.2,0-3,0-3.5,0.1
	c0,0.2,0,0.4,0,0.6c-0.1,0.1-0.2,0.1-0.3,0.1c-0.3,0-0.7,0-1,0.1c-0.1,0.3-0.1,0.6-0.1,0.9c-0.6,0.1-1.2-0.1-1.8,0
	c0,0.3-0.1,0.7,0,1c-0.1,0.5-0.1,1-0.1,1.5c0.2,0.3-0.1,0.7,0,1c0,0.4,0.1,0.8-0.1,1.2c0,0,0.1-0.1,0.2-0.1c0,0.3-0.1,0.5-0.1,0.7
	c0,0-1.5,0-1.7-0.1c0,0-0.1,0.1-0.2,0.1c0,0,0-0.2,0-0.2c0,0,0,0.1,0,0.2c-0.2,0-0.4,0-0.6,0c0,0.2-0.1,0.4-0.1,0.6c0,0-0.1,0-0.2,0
	c0.1,0.1,0.1,0.2,0.2,0.3c-0.1,0-0.3,0-0.4,0c0.1,0,0.2,0,0.3,0c-0.1,0.1-0.3,0.2-0.4,0.1c-0.6-0.1-1.2,0-1.8-0.1
	c-0.1-0.2,0-0.4,0-0.6c0,0-0.1-0.1-0.1-0.1c0,0,0-0.1,0-0.1c0-0.6,0-1.3,0-2c0,0,0,0.1,0,0.2c-0.1-0.3-0.4-0.3-0.7-0.3
	c0.1-0.5,0-1-0.1-1.4c0.1-1.2-0.1-7.5-0.1-7.8c-0.1-0.1-0.3-0.1-0.5-0.3c-0.3,0.2-2.8,0.1-3.1,0.1c0,0.3,0,0.6,0.1,1
	c-0.1,0.2-0.2,0.4-0.3,0.5c-0.2-0.1-0.2-0.3-0.3-0.4c-0.2,0-0.5,0-0.7,0c0,0.3-0.1,0.5-0.3,0.7c0,0,0.1,0.1,0.2,0.1
	c0-0.1,0.1-0.2,0.2-0.3c0.1,0,0.2,0,0.3,0c0,0.3,0,0.5-0.1,0.8c-0.1-0.1-0.2-0.1-0.3-0.3c-0.1,0-0.3,0.1-0.4,0.1c0,0.2,0,0.4,0,0.5
	c-0.3,0.3-0.5,0.1-0.3,0.8c0.1,0,0.3-0.1,0.4-0.1c0,0.1,0,0.1,0.1,0.2c-0.2,0.1-0.4,0.2-0.6,0.3c0,0.5,0.1,0.7-0.4,0.8
	c-1.8-0.1-1,0.4-1.3,1.7c0,0.4,0.3,0.4-0.3,0.6c0,0.5-0.3,1.9-0.4,2.3c-0.2-0.1-0.3-0.3-0.3-0.5c0,0,0.1,0,0.2,0c0,0-0.1,0-0.1-0.1
	c0-0.1,0-0.2,0-0.3c-0.3-0.3-0.1-0.7-0.2-1c-0.2,0-0.3,0-0.5-0.1c0-0.2,0-0.3,0-0.5c-0.2,0-0.4,0-0.6,0c0,0.2-0.1,0.3-0.1,0.5
	c-0.2,0-0.3,0-0.5,0c0,0.1,0,0.3,0,0.4c-0.6,0.2-1.2,0.1-1.7,0.1c0-0.1-0.1-0.3-0.1-0.4c0,0.1,0,0.3,0,0.4c-0.2,0-0.3,0-0.5,0.1
	c-0.1,0.1-0.2,0.2-0.3,0.3c0,0.5,0,1-0.1,1.5c-0.1,0-0.2,0-0.3,0c-0.1,1.3,0,1.5-0.3,2c-0.1,0.2,0,0.4,0,0.6
	c0.1,0.4,0.1,0.8,0.1,1.2c-0.2,0-0.2,0.2-0.2,0.3c0,0-0.3,0.1-0.6,0.3c0,0,0,0-0.1-0.1c-0.1,0.3-0.5,0.3-0.6,0
	c-0.5,0-3.2-1.1-3.4-1.1l0,0c-0.5-0.2-1-0.4-1.5-0.6c-0.2,0-0.1,0-0.3-0.1c0,0,0,0,0,0c-0.5-0.2-1-0.4-1.5-0.7c0,0,0,0,0,0
	c0,0-0.1,0-0.1,0c0,0,0,0,0,0c-0.4-0.2-0.8-0.3-1.2-0.5l0,0c-0.1,0-0.2-0.1-0.4-0.1c0,0,0,0,0,0c-2.2-0.8-2.4-0.6-2.5-0.9
	c0,0,0,0,0,0c0,0,0,0-0.1,0c-0.1,0-0.2,0-0.2-0.1c0.1-1.7-0.3-17.9-0.3-18c-0.1-0.1-0.3-0.1-0.5-0.2c-0.1-0.9,0-14.7-0.1-15.3
	c-0.1,0-0.2,0-0.3,0.1c-0.1-0.4-0.1-6.8,0-7.2c0,0,0-0.1,0-0.2c0.2-0.6-0.2-2,0-2.8c-0.1,0-0.3-0.1-0.4-0.1c0-0.4,0-12.2,0-12.6
	c0-0.4,0-4.9,0-5.4c0-0.1,0.1-0.3-0.1-0.4c0,0.2-0.1,0.5-0.2,0.7c-0.1,0-0.2-0.1-0.2-0.1l0-6.5c0-0.3,0.1-0.7,0-1
	c0.1-0.3,0.1-0.7,0-1c0.1-0.4,0.1-0.8,0.1-1.2c-0.1-0.6-0.1-1.2-0.1-1.7c0,0,0-0.1,0-0.1c0-0.1,0-0.2,0.1-0.3c0,0-0.1-0.1-0.2-0.1
	l0-8c0-0.2,0-10.8,0-10.8c-0.2-0.7,0-4.2,0-4.6c0-0.7-0.1-1.4-0.1-2.1c-0.1-0.1-0.2-0.1-0.3-0.2c0-2.8,0-5.5,0-8.3c0,0,0-0.1,0-0.1
	c0.1-0.2,0.1-0.5,0-0.7c0.1-0.4,0-0.9,0-1.3c0-0.1,0.1-0.2,0.1-0.2c0,0-0.1-0.1-0.1-0.2c0,0,0-0.1,0-0.1c0-0.1,0-2.8,0-2.9
	c-0.1,0.1-0.3,0.2-0.3,0c0-0.2,0-0.3,0-0.5c0.1,0,0.3,0,0.4,0c-0.1-0.2-1.2-0.4-1.5-0.3c0,0,0.1-0.1,0.1-0.2c-0.1,0-0.2,0-0.2,0
	c0-0.2-0.1-5.3,0-5.7c0-0.1,0-1,0-1.2c0-0.2,0-0.8,0-1c0-0.4,0-4.3,0-4.6c0-0.2-0.1-0.3-0.2-0.5c0.1-0.7,0-12.7-0.1-12.9
	c-0.2,0-0.4-0.1-0.6-0.1c0-0.1,0-0.2,0-0.2l0,0.2c0,0-0.1,0-0.2-0.1c0,0,0.1-0.1,0.1-0.1c0,0,0.1,0,0.1,0c-0.1-0.1-0.1-0.2-0.1-0.3
	c0,0,0,0,0,0c-0.2-0.4-0.2-12.1-0.2-12.3c-0.2-0.1-0.5-0.1-0.7,0c0-0.1-0.1-0.2-0.1-0.3c0.1-0.1,0.3,0,0.4,0c0-0.1,0.1-0.2,0.1-0.3
	c-0.3,0.1-0.6,0.1-0.9,0.3c0-0.2-0.1-4.8,0-5.5c-0.2-1.1-0.3-10-0.3-10.4c-0.3,0,0,0.5-0.2,1.9c0.1,0.3,0,0.5,0,0.8
	c0.1,0.2,0.1-0.1,0.1,6.4c0,0.2-0.3,0.4-0.1,0.6c0.1,0.3,0.1,0.6,0,0.9c0.1,0,0.3,0.1,0.4,0.2c-0.1,0-0.2-0.1-0.3-0.1
	c-0.1,0.2-0.1,0.4,0.1,0.6c0,0.1-0.1,0.2-0.1,0.3c-0.1,0-0.2,0-0.3,0c0,0,0,8.9,0,8.9c0,0-0.1,0.1-0.1,0.2c0,0-0.1,0-0.1,0l0,0v3.8
	c0.1,0.2,0.1,0.5,0.1,0.8c0,0-0.1-0.1-0.1-0.2v1.7l0,0l0,0v0.2h0.1v0.1c0,0-0.1,0-0.1,0v0.5c0.1,0.1,0.1,0.2,0.2,0.3
	c0,0-0.1,0-0.2,0v0.7c0.1,0.1,0.2,0.3,0.2,0.6c0,3.2,0,3,0,3.2c0,0.1,0,0.1,0,0.2c0,0,0-0.1,0-0.1c0,0.1-0.1,0.2-0.2,0.3
	c0,0.1,0,4.4,0.1,4.6c0,0,0,0,0,0v0.4c0,0,0.1,0.1,0.1,0.1c0,0,0.1-0.1,0.1-0.1c0,0.1,0,0.3-0.1,0.4c-0.1,0-0.1,0-0.2,0
	c0,13.5,0.1,12.7-0.2,13c0,0,0,0,0,0c0,0,0,0-0.1,0c-0.1,0.1-0.2,0.1-0.2,0.1c0,0,0,0,0,0c0,0,0,0,0,0c-0.1,0-0.2,0-0.3,0
	c0,0-0.1,0.1-0.1,0.1v0.8c0,0,0,0,0,0c0,0,0,0,0,0v0.5c0,0,0,0,0.1,0c-0.1,1.1-0.1-0.3-0.1,2.1c0,0,0,0,0.1,0c0,0.2,0,0.4,0,0.5
	c0,0-0.1,0-0.1,0v0.3h0c0,0,0,0,0,0v0.4c0,0,0.1,0.1,0.1,0.2c0,0-0.1,0-0.1,0c0,0,0,0,0,0V71c0,0,0.1,0,0.1,0c0,0.1,0,0.2,0,0.3
	c0,0,0,0,0,0V72c0,0,0.1,0.1,0.1,0.1c0,0.1-0.1,0.1-0.1,0.2v0.8c0.1,0,0.2,0,0.3,0c-0.1,0.1-0.2,0.2-0.3,0.3c0,0.1,0,0.2,0,0.3
	c0,0,0,0,0,0c0,2.9,0.1,3-0.2,3.2c0.1,0,0.1,0,0.2,0c-0.1,0.1-0.2,0.1-0.3,0.1c-0.1,0.1-0.3,0.1-0.4,0.1v0.3c0,0,0,0,0.1,0
	c0,0,0,0-0.1,0.1v7.5c0,0,0,0.1,0.1,0.1c0,0,0,0-0.1,0c0,10.5,0.1,9.9-0.2,10.2c-0.1,0.6-0.3,1.2-0.3,1.2c-0.1,0.1-0.1,0.1-0.2,0.2
	v0c0,0,0,0,0,0c-0.1,0.1-0.1,0.1-0.8,0.3c0,0.1-0.1,0.3-0.1,0.4c0.1,0.1,0.1,0.3,0.1,0.5c0,32.4,0.3,31.3-0.8,31.3c0,0,0,0,0,0
	c0,0-0.1,0-0.1,0c-0.3,0.1-0.7,0-0.9-0.2c-0.4,0.1-0.8,0-1.2,0.1c0.5,0.3,0.4,0.8,0.4,1.4c0,0,0,0,0,0c0,0.2,0.2,0.3,0,0.5l0,0v1.4
	c0.1,0,0.1,0,0.2,0c-0.1,0.1-0.1,0.1-0.2,0.2c0,23.9,0.4,23.8-1,23.5c-0.2,0.1-0.3,0.2-0.5,0.3c0-0.1,0-0.2,0-0.3
	c-0.4,0-0.8,0.1-1.2,0.1c0,0,0,0.1,0.1,0.1c-0.1,0-0.3,0-0.4,0c0.1,0.2,0.2,0.3,0.3,0.5c0,0,0.1,0.1,0.1,0.1c0,0.1,0,0.2,0,0.3
	c0.4,0.3,0.3,0.3,0.3,5c0,0,0,0,0,0c0,0,0,0,0,0c0,13.6,0.1,12.9-0.3,13.2c-0.1,0.2-0.3,0.4-0.5,0.4c0,0,0,0,0,0
	c-0.1,0-0.2,0-0.3,0.1c0,0,0,0,0-0.1c-0.3,0-0.5-0.2-0.6-0.3c0,0,0,0,0,0c-0.1,0-0.1,0.1-0.2,0.1c-0.1-0.4-0.2-0.9-0.2-1.3
	c0,0,0.1,0,0.1-0.1c0,0-0.1,0-0.2,0c0-0.9-0.3-1.1-0.8-3.8c-1.5-0.8-8.6-4.4-9.3-4.6c-0.1,0-0.1,0.1-0.2,0.1c0,0.2,0.1,0.3,0.1,0.5
	c-0.1-0.1-0.2-0.1-0.3-0.2c0-0.3,0-0.6,0-0.9c-0.1,0-0.3-0.1-0.4-0.1c0-0.1-0.1-0.1-0.1-0.2c0.2,0,0.3-0.1,0.5-0.1
	c0-0.2,0-0.5-0.1-0.7c-0.2,0-0.4-0.1-0.4-0.3c0.2,0,0.3-0.1,0.5-0.1c0-0.2,0-0.5,0-0.7c-0.1,0-0.3,0-0.4,0c0-0.1-0.1-0.2-0.1-0.3
	c0.1,0,0.3,0,0.4-0.1c0.1-0.2,0-0.5,0-0.7c-0.1,0-0.2,0-0.3,0c0-0.1,0-0.2,0-0.3c0.1,0,0.3,0,0.4,0c0.1-0.4,0.1-0.7,0-1.1
	c-0.4,0.1-0.8-0.1-1.2,0c0-0.2,0-0.4,0-0.6c-0.1,0-0.2-0.1-0.2-0.1c-0.1,0-0.2,0.2-0.2,0.3c-0.1-0.2-0.2-0.3-0.3-0.5
	c0.1-0.5-0.3-0.9-2.5-4.6c-0.5-0.3-0.3,0.6-0.3-3.4c-0.4-0.1-0.5-0.3-2.5-1.9c0-2.3-0.1-2.4,0-2.9c0-0.1-0.1-0.2-0.1-0.3
	c-0.1,1.1-0.1,2.1-0.1,3.2c-0.6,0.5-1.2,0.9-1.7,1.5c-0.2,0.2-0.5,0.4-0.8,0.5c0,1,0,2,0.1,2.9c0,0.1-0.2,0.1-0.3,0.2
	c-0.3,0.4-0.4,0.9-0.7,1.3c-0.5,0.5-1.2,1.8-1.3,2.3c0,0-0.1,0-0.1,0c0,0.4-0.5,1.4-0.7,1.6c0,0,0,0.1,0.1,0.2
	c-0.2,0-0.3-0.1-0.5-0.1c-0.1,0.1-0.3,0.2-0.4,0.3c-0.1,0.2-0.1,0.3-0.1,0.5c-0.3-0.2-0.7,0.1-0.9-0.1c-0.1,0.3-0.1,0.5-0.1,0.8
	c0.1,0,0.3,0.1,0.4,0.2c0,0.1,0.1,0.2,0.1,0.2c-0.2,0-0.3,0.1-0.5,0.1c0,0.2,0,0.4,0.1,0.6c0.1,0,0.2,0,0.3,0.1
	c0,0.1,0.1,0.1,0.1,0.2c0,0-0.1,0.1-0.1,0.2c-0.1,0-0.3,0-0.4,0c0,0.2,0,0.4,0.1,0.6c0.2,0.1,0.4,0.2,0.4,0.4
	c-0.2,0-0.3,0.1-0.5,0.1c0,0.2,0,0.4,0,0.6c0.2,0.1,0.3,0.2,0.5,0.3c-0.1,0.1-0.1,0.1-0.2,0.2c-0.1,0-0.2,0-0.3,0c0,0.2,0,0.3,0,0.5
	c0.5,0.5,0,11.6,0.2,12.4c-0.6-0.1-2.7,0.1-3.5-0.1c-0.2,0-0.5,0.1-0.7,0.1V178c0,0,0.1-0.1,0.2-0.1c0,0-0.1,0.1-0.2,0.1
	c0-2.6-0.2-10.7-0.7-13.2c-0.2-0.1-16.1-5.1-16.5-5c-0.5,1.2-1.4,11.2-1.4,11.2c0-0.1-0.1-8.5-0.1-8.6c-0.1-0.4,0-12.8,0-13.4
	c-0.1-0.1-0.1-0.2-0.2-0.3c-0.3,0.3-0.8,0.1-1.3,0c0-1.5,0-3,0-4.5c-0.1,0-0.2-0.1-0.3-0.1v-0.2c-0.1,0-0.2-0.1-0.3-0.1
	c0-0.1-0.1-0.2-0.1-0.2c-0.1,0-0.2,0.1-0.3,0.1c0-0.7,0-1.5,0-2.2c-0.3-0.1-0.5-0.1-0.8-0.1c0-0.1,0-0.2,0-0.3
	c-0.1,0-0.3-0.1-0.4-0.1c0.1-0.1,0.1-0.1,0.2-0.2c0-0.5,0-1.1,0-1.6c0,0-0.1-0.1-0.1-0.1c0-0.2,0-0.3,0-0.5c-0.1,0-0.2,0-0.2,0
	c0,0.1-0.1,0.2-0.1,0.3c-0.3,0-0.7-0.2-0.9-0.4c0,0.3-0.1,0.5-0.1,0.7c-0.3,0-0.6-0.1-0.9-0.2c-0.1-0.1-0.1-0.3-0.1-0.4
	c-0.3-0.1-0.5,0-0.7,0.1c0,0-0.1,0-0.1-0.1c0,0-0.1,0-0.1,0.1c0,0,0,0-0.1,0c0,0,0,0,0,0.1c0,0,0.1,0,0.1,0.1c0,0-0.1,0-0.1,0
	c0,0.2,0,0.3-0.1,0.5c0,0.4,0,0.8-0.1,1.2c-0.1,0-0.3,0-0.4,0c0,0.1-0.1,0.2-0.1,0.3c0.1,0,0.3,0,0.3,0.2c-0.1,0-0.2-0.1-0.2-0.2
	c0,0.3,0,0.2-0.2,0.5c0.2,0.4,0,0.8,0.1,1.3c-0.1,0-0.2,0-0.3,0l0,0c0,0.1-0.1,0.1-0.1,0.2c0,0,0,0,0,0l0,0c0,0,0,0,0,0.1
	c0,0,0,0.1,0.1,0.2c-0.2,0-0.4,0.1-0.4,0.4c0,0-0.1,0-0.1,0c0,0.1,0,0.2,0,0.3c-0.1,0-0.1,0-0.2,0c0,0,0,0.2,0,0.2
	c-0.4,0-0.8,0-1.2,0c0,0-0.1-0.1-0.1-0.1c-0.2,0-0.3,0-0.5-0.1c0,0,0,0,0,0c-0.1,0-0.2,0-0.3,0c0,0.1-0.1,0.2-0.1,0.2
	c-0.2,0-0.4,0-0.7,0c-0.2,0.1-0.1,0.4-0.2,0.6c-0.3-0.1-0.6-0.1-1-0.1c0-0.3,0-0.6-0.1-1c-0.1,0-0.2,0-0.3,0c0-0.1-0.1-0.2-0.1-0.3
	c-0.1-0.1-0.2-0.2-0.3-0.3c-0.1,0-0.2,0-0.3-0.1c0-0.6,0-2,0-2c-0.1-0.2-0.4-0.1-0.5-0.2c-0.2,0-0.2-0.2-0.2-0.3c-0.2,0-0.3,0-0.5,0
	c0.1-0.1,0.1-0.2,0.2-0.3c0-0.5,0-1,0-1.5c-0.2-0.2-0.2-0.5-0.2-0.7c-0.4,0-0.8,0.1-1.2,0c-0.2-0.1-1.8,0.1-2.3,0.1l0,0
	c0,0-0.1,0-0.1,0l0,0c-0.5,0.1-1.1,0.1-1.7,0.2c-0.3,0.6-0.2,1.3-0.2,1.9c0,0,0.1,0.1,0.2,0.1c0,0.2,0,0.4-0.1,0.5
	c-0.4,0-0.8-0.1-1.1,0.1c0,0,0,2,0,2.3c-0.1-0.1-0.2-0.2-0.3-0.2c0,0.2-0.1,0.4-0.4,0.4c0,0.1,0,0.2,0,0.3c-0.1,0-0.1,0-0.2,0.1
	c-0.1,0.2-0.2,0.4-0.3,0.5c0.2,0.9,0.1,0.1,0.1,4.1c-0.4-0.2-0.8,0-1.3-0.1c-0.4,0.5,0,2.8-0.3,5.7c0,0,0,0,0,0v0.6
	c-9.6,0-8.9,0-9.1,0c-0.1,0.6-0.1,1.2-0.1,1.8c0.1,0.1,0.2,0.2,0.3,0.2c0,0.1-0.1,0.1-0.2,0.2c0.1,0,0.2,0,0.3,0c0,0.3,0,0.5,0,0.8
	c0,0-0.1,0.1-0.1,0.1c0,0.1,0,0.2,0,0.3c0,0.1,0.1,0.2,0.2,0.3c0,0-0.1,0-0.2,0.1c-3.4-0.6-3.2-0.6-3.3-0.7c0-0.6,0-4.8,0-5.1
	c0-0.1,0-0.1,0-0.2c0-0.1,0.1-18.7,0-18.9c0.1-0.4,0-0.9,0.3-1.3c-0.4,0-0.7,0.2-1,0.4c0,0-0.1-0.1-0.2-0.1c-0.3,0.1-0.7,0-1,0
	c0,0-0.1-0.1-0.1-0.2c0-0.1,0-0.1,0.1-0.2c-0.5-0.1-1.1-0.1-1.6-0.1c0-0.5,0.2-1,0.2-1.6c-0.8-0.2-4.3-0.2-4.5-0.2
	c0,0.7,0.4,1.4,0.2,2.1c-0.1,0-0.2,0-0.3,0c0-0.7,0-1.5,0-2.2c-0.7,0-1.3-0.1-2-0.2c0,0.5,0,1.1,0,1.6c-0.4,0-0.7,0-1.1,0
	c0,0-0.1-0.1-0.2-0.1c0,0-0.1,0.1-0.1,0.1c-0.8,0-1.7,0-2.5,0c0,0.6,0,1.3,0,1.9l0,0c0,0.1,0,4.2-0.1,5c-0.4,0.8-0.9,1.5-1.4,2.2
	c0,0,0,0.1,0.1,0.1c0,0.1,0,0.2,0,0.3c0,0-0.1,0-0.2,0.1c0,0.1-0.1,0.2-0.1,0.3c-0.1,0-0.2,0.1-0.3,0.1c0-0.1-0.1-0.3-0.1-0.4
	c0,0,0,0-0.1,0c-0.2,0.1-0.5,0.1-0.7-0.1c0,0-0.9,0-1.2-0.1c-0.2-0.2-0.2-0.5-0.3-0.6c-0.1,0-0.3,0-0.3,0c-0.1,0.1,0,0.3,0,0.4
	c-0.1,0.1-0.3,0.1-0.4,0.2c-0.2-0.1-2.2-0.1-2.4-0.1c-0.4,0.1-0.8,0.2-1.3,0.2c0,4.8,0,4.7-0.1,5c0.1,0.4,0,0.8,0,1.2
	c0.1,0.3-0.6,0.2-1.4,0.3c0,0-0.2,15.7-0.2,15.7c0,0.7-0.1,1.4,0,2.1c-0.5,0-1,0-1.5,0.1c0,0.1,0,0.2,0,0.2
	c-0.4,0.3-0.2,0.9-0.3,1.4c0,0-0.1-0.1-0.1-0.1c-0.5-1-3.1-5.1-3.2-5.2c0-1.3,0-10.3,0.1-11.8h-1.8c0,0.1-0.1,0.1-0.2,0.2
	c0,0,0-0.1,0-0.2h-1.7c-0.5,0.7-2.3,3.9-3,4.8c0-0.3,0.1-16,0.1-16.3c0-0.2,0-0.3-0.1-0.5c-0.5,0-1,0-1.6,0c0-0.1,0.1-0.2,0.1-0.3
	c-0.2,0-2.4-0.3-3.5,0c0,0.1-0.1,0.2-0.1,0.3c-0.5-0.1-1,0-1.5-0.1c0,0.2,0,0.3-0.1,0.5c0,0.2-0.2,25.2-0.3,25.8
	c-0.1-0.2-2.7-4.6-2.9-5.1c-0.2-0.1-0.5-0.2-0.7-0.3c0,0.1,0,0.1,0,0.2c-0.3-0.1-0.5-0.1-0.8-0.1c0,0.3,0,0.5,0,0.8
	c-0.3-0.3-0.3-0.7-0.7-0.9c-0.4,0-0.8,0-1.2-0.1c-0.1,0.4-0.3,21.4-0.3,21.9c-0.4-0.1-2.1-1-2.3-1c-0.2,0-0.3-0.1-0.5-0.3
	c-0.1,0-0.1,0-0.2,0c0-0.1-0.1-0.1-0.1-0.2c0-0.3,0-0.6,0-0.9c0-0.2,0.1-2.1-0.1-2.4c-0.1-0.2-0.3-0.2-0.5-0.3
	c0-0.2-0.1-0.3-0.1-0.5c-0.1,0-0.3,0-0.4,0c-0.2,0.1-0.4,0.1-0.5,0c-0.3,0-0.6,0-0.9,0c-0.3,0.1-0.6,0.2-0.9,0c-0.2,0-0.3,0-0.4,0
	c0,0-0.1-0.1-0.1-0.1c-0.2-0.1-0.4-0.1-0.4-0.3c-0.3-0.4-0.5-0.7-0.7-1.1c-0.3-0.1-5.1,0.1-5.3,0.1c-0.1,0.1-0.1,0.2-0.2,0.3
	c0,0.1,0,0.3,0.1,0.4c-0.6,0.1-1.1,0.1-1.7,0.1c-0.1,0.1-0.1,0.3-0.2,0.4c-0.2,0-0.4,0-0.7,0c0.1-0.1,0.2-0.2,0.3-0.2
	c0-0.1-0.1-0.2-0.1-0.3l0.2,0c-0.1-0.1-0.2-0.2-0.3-0.2c0.1-0.1,0.1-0.1,0.3-0.2c0,0,0,0,0,0c0,0-0.1,0-0.2,0c0-0.1,0-0.2,0-0.3
	c-0.1-0.2,0,0,0-3.3c-0.1,0-0.3,0-0.4,0c-0.1,0-0.2,0-0.3,0.1c0-0.1,0-0.2,0-0.3c-0.2-0.3-0.2-0.5-0.2-1c0,0,0,0,0,0c0,0,0,0,0,0
	c0-0.1,0-1.2,0-1.3c-0.2,0-0.5,0-0.7,0c-0.1-0.4,0-0.8-0.1-1.1c-0.1-0.1-0.2-0.2-0.3-0.3c0,0-0.1,0.1-0.2,0.1c0,0-0.1,0-0.2,0
	c-0.2,0-0.4,0-0.6,0c-0.1,0-0.1,0-0.2,0c0,0,0-0.1,0-0.2c-0.1-0.1-0.2-0.3-0.2-0.6c0-21.3-0.2-20.2,0.6-20.4
	c0.1-0.2,0.1-0.5,0.1-0.7c-1.9,0-2.2,0.1-2.4-0.3c-0.4,0-0.8-0.1-1.2-0.1c0-0.3,0-0.5,0.1-0.8c0,0,0-0.1,0-0.2
	c0.5-5.3-0.3-6.4-2.9-8c0.1-0.4-0.1-2.5-0.1-3c0-0.2,0-0.4-0.3-0.3c-0.1,0.2,0,0.5-0.1,0.7c0,0,0,0.1,0,0.1
	c-0.1,0.8-0.1,1.6-0.2,2.4c-1.2,0.3-1.3,0.5-1.8,1c0,0,0,0.1,0.1,0.2c-0.1,0.1-0.2,0.2-0.3,0.3c-0.1,0.1-0.3,0.1-0.4,0.2
	c0,0.2,0,0.4,0,0.6c0,0-0.1,0-0.2,0.1c-0.1,0.4-0.2,0.8-0.3,1.2c0,0.1,0,0.1,0,0.2c-0.2,0.3-0.1,0.7-0.2,1.1c0,0,0.1-0.1,0.2-0.1
	c-0.1,0.3-0.1,0.8-0.3,1.1c-0.2,0.3,0.1,1.7,0,1.9c-0.1,0.2,0.1,0.4,0.1,0.6c-0.1,0-0.2,0-0.2,0c0,0,0.1,0.1,0.1,0.1
	c0,0.1-0.1,0.3-0.1,0.4c0.1,0,0.2,0,0.3-0.1c0.2,0.1,0.5,0.1,0.5,0.4c-0.5-0.2-1.8-0.1-2.5,0.1c0,0,0,0,0,0c0.1,0,0.1,0,0.2,0
	c0,0.2-0.1,0.7-0.5,0.6c0,0,0,0,0,0c0,0,0,0,0,0c0,0,0,0,0,0c-0.1,0.1-0.3,0.1-0.5,0c0,0,0,0,0,0.1c-0.1,0-0.2,0-0.2,0
	c0-0.1,0-0.2,0-0.3c-0.1-0.3-0.1-0.5-0.1-1.3l0,0c0,0,0,0,0-0.5l0,0c0-2.4,0.1-6,0.1-6.1c0,0,0.1-0.1,0.2-0.1
	c-0.2-0.2-0.2-0.4-0.2-0.7c-0.8-0.6-3.8-1.3-6.2-1.3c0-0.1-0.2-3.2-0.2-3.3c-0.1,0-0.2,0.1-0.3,0.1c0,0.5-0.2,3.2-0.2,3.3
	c-0.9-0.2-5.1,0.6-6.1,1.4c0.1,0.1,0.2,0.3,0.3,0.4c-0.1,0-0.2,0.1-0.2,0.1c-0.1,0-0.2,0-0.3-0.1c0-0.2,0.2-14.2,0.1-14.5
	c-0.5,0-5.9-0.2-6-0.4h-2.5c0,0,0,0,0,0c-0.3,0-0.7,0-1-0.1c-0.1,0-0.1,0.1-0.2,0.1c0,0.1-0.1,0.2-0.1,0.3c-0.1,0-0.2,0-0.2,0
	c-0.1-0.2-0.3-6.4-0.3-6.6c-0.9-0.1-1.8-0.3-2.7-0.4c0-3.7,0-4.9,0.1-6.1c-0.2,0-0.4-0.1-0.6-0.2c-0.1-0.3,0-0.5,0-0.8h-15.1
	c0,0,0,0,0,0.1c0,0-0.3-0.1-3.6-0.1c0,0,0,0,0,0.1c-0.9-0.1,0.6-0.1-2.9-0.1c0,0.4,0,0.7,0,1.1c-0.2,0-0.3,0-0.5,0
	c-0.1,0.2-0.2,6.1-0.2,6.3c0,0.1,0,0.3-0.1,0.3c-0.3,0-0.6-0.1-0.9,0c-0.5,0.1-1,0-1.6,0.1c0,0-0.2,0.1-0.2,0.1
	c0,1.3-1.5,32.9-1.5,33.2c0.1,0.3,0.1,0.6-0.1,0.8c0,0.1,0,0.3,0,0.4c-0.1-0.1-0.1-0.2-0.2-0.2c0,0-0.1,0.1-0.1,0.1
	c0,0-0.1,0.1-0.1,0.1c0,0,0,0-0.1,0c0,0-0.2,0-0.3,0c0,0,0,0,0,0c0,0-0.1,0-0.1,0c-0.4,0.1-0.7,0.1-0.9,0c-0.2,0-0.3,0-0.5,0.1
	c-0.2-0.9,0.3-12.1,0-12.6c-0.5,0,0,0.2-2.6-0.3c0,0,0,0,0,0.1c-0.4-0.1-0.9,0-1.3-0.2c0-0.2,0.1-0.4,0-0.6
	c-0.1-0.1-0.3-0.1-0.4-0.1c0-0.2,0-0.5,0-0.7c0,0.2,0,0.5-0.1,0.7c-0.3,0-0.7,0-1-0.1c-0.1-0.6-0.2-1.2-0.3-1.8c0,0-0.1-0.1-0.2-0.1
	c1-0.7,1.1-3.3-0.7-4c0.1-0.8-1.7-7.8-1.9-8.6c0-0.1,0.1-0.2,0.1-0.3c-0.5,0.2-1,0.3-1.6,0.3c-0.1,0.2-0.3,0.3-0.5,0.4
	c0,0,0,0.1,0.1,0.1c-0.1,0-0.2,0.1-0.3,0.1c0,0-0.1,0.1-0.1,0.2c-0.2,0.1-0.4,0.3-0.6,0.4c-0.1-7.5,0.4-8.3-0.3-10.2
	c-0.1,0-0.3-0.1-0.3-0.1c0,0,0,0,0,0c-0.3-0.2-0.7-0.1-1-0.2c-0.3-0.1-0.5,0.1-0.7,0.3c-0.3-0.2-1.1-0.8-1.5-0.1
	c-0.4,0.7,0.1,50.9-0.2,51.4c0.1,0.3,0.1,0.6,0,0.8c0,0,0.1,0.1,0.1,0.1c-0.1,0-0.2,0.1-0.2,0.2c0.1,0.1,0.1,0.2,0.2,0.2
	c-0.1,0.3,0,2.1,0,2.4c-0.1,0-0.2-0.1-0.3-0.1c0,0.2,0.3,0.5,0,0.5c0.1,0,0.2,0,0.3,0c0,0.2,0,0.4,0,0.6c-0.1,0-0.3,0.2-0.4,0
	c0-0.1-0.1-0.3-0.1-0.4c0,0.3,0,0.5,0.2,0.7c0,0-0.1,0.1-0.1,0.1c0.1,0,0.3,0,0.4,0.1c0,0,0,0.2-0.1,0.2c0,0,0,0,0.1,0.1
	c0,0.1,0,0.3,0,0.4c-0.1,0-0.2,0-0.3,0c0,0,0,0,0,0c0.1,0,0.2,0,0.2,0c0,0.1-0.1,0.2-0.1,0.3c-0.1,0-0.3-0.1-0.3-0.1
	c0.2,0.1,0.3,0.2,0.5,0.2c0,0.2,0.1,0.6-0.2,0.6c0,0-0.1-0.1-0.1-0.1c0-0.1-0.1-0.2-0.1-0.3c0,0.1,0,0.3,0,0.4
	c0.1,0.1,0.2,0.3,0.3,0.4c0.1,0,0.1,0.1,0.2,0.1c0,0.2,0,0.3,0,0.5c-0.1,0-0.3,0.1-0.4,0.1c0,0.1,0,0.2,0,0.3
	c-0.1,0.1-0.1,0.3-0.1,0.4c0,0.1,0.1,0.2,0.1,0.3c-0.1,0-0.2,0-0.3,0c0,0,0.2,0.1,0.2,0.1c-0.1,0-0.1,0.1-0.2,0.2c0,0,0.1,0,0.2,0
	c-0.2,0.3-0.2,0.7-0.2,1c-0.1,0-0.2,0-0.2,0c0.1,0,0.2,0.1,0.2,0.2c0,0.1,0,0.3,0,0.4c0,0-0.1,0.1-0.2,0.2c0,0.3,0,0.6,0,0.9
	c-0.1,0-0.3,0-0.4,0c-0.2-0.5,0.1-15.2,0.2-15.3c0.1-0.7-0.3-1.4-0.3-2.1c-0.2-0.2-0.5-0.1-0.8-0.2c-1.2,0-6.7-0.2-7.3-0.3
	c0,0,0-0.2,0-0.2c-0.1-0.1-0.1-0.1-0.2-0.2c-0.3,0-0.6,0-0.8,0c0,0,0.1,0.1,0.1,0.2c0.2,0,0.3,0,0.5,0c-0.1,0.3-0.4,0.3-0.6,0.3
	c0-0.2-0.3-2.2-0.2-3.6c-0.3-0.3,0-0.8-0.1-1.2c-0.1-0.1-0.2-0.2-0.3-0.3c-0.1-0.1-0.1-0.3-0.1-0.4c0.2,0.1,0.3,0.2,0.5,0.3
	c0-0.1,0-0.2,0-0.3c-0.2-0.1-0.4-0.3-0.6-0.5c0-0.6-0.5-1.1-0.4-1.7c0,0,0-1.4,0-3.6c-0.2,0.3-0.2,1.8-0.1,2
	c-0.3,0.2-0.5,0.3-0.8,0.5c0-0.1,0-0.2-0.1-0.3c-0.2,0-0.3,0-0.5,0c-0.1-0.1-0.1-0.1-0.2-0.2c0.2-0.7,0.1-1.4,0-2.1
	c-0.2,2.5,0.1,2.5-0.1,4.1c-0.3-0.4-0.5-0.7-0.9-1c-0.4,0.3-0.6,0.7-0.9,1c-0.1-0.8,0.1-13.8,0.3-14.6c-0.1-0.4-0.1-1.8,0-2.1
	c-0.1-0.3,0-3.4,0.1-3.6c-0.1-0.4-0.1-0.8,0-1.2c-0.1-0.3,0-3.3,0.1-3.6c-0.1-0.5,0-0.9,0-1.4c0,0,0-0.1,0.1-0.1
	c0-0.1-0.1-0.2-0.1-0.2c0.3-1.1-0.1-7.4,0.3-7.9c0-5.5,0.2-9.8-2.3-14.8c0,0,0.1-0.1,0.1-0.2c-0.1-0.1-0.2-0.1-0.3-0.2
	c-0.3-1.3,0-0.4-0.8-2.7c-0.3-0.7-0.9-1.3-1-2c-0.3-0.3-0.3-0.7-0.2-1.1c0-0.4-0.1-0.8-0.3-1.2c-0.9-1-1.7-1-2.5,0.2
	c-0.1,0.5-0.3,1-0.2,1.6c-0.2,0.6-0.3,1.2-0.8,1.6c0-0.3,0.1-0.5,0-0.8c0-0.2,0.1-0.4,0.1-0.7c0,0-0.1-0.1-0.2-0.1
	c0-1.2,0.1-1.4-0.4-2.2c-0.1,0.1-0.3,0.2-0.2,0.4c0,0-0.1,0-0.2,0c0.1-1,0-2.1,0-3.1c0.1-0.5,0.1-1.1,0-1.6
	c-0.3,0.4-0.1,6.1-0.3,7.1c-0.1,0.1-0.1,0.1-0.2,0.2c0.1,0,0.2,0.1,0.3,0.1c0,0.1-0.1,0.2-0.1,0.3c0.1,0.2,0.1,0.3,0,0.5
	c0,0.3,0,0.6,0.1,0.9c0.6,0.3,0,0.6-0.2,1.8c0,0.2-0.1,0.5-0.3,0.5c0,0.1,0,0.2,0,0.3c-0.2,0.2-0.3,0.5-0.4,0.8
	c-1.3,2.7-1.5,4.6-1.7,5.4c0,0.1,0,0.3,0,0.7c0,0,0,0.1,0,0.1v1h0c0,0.1,0,0.2,0,0.3c0,0,0,0,0,0v0.8c0,0,0,0,0.1,0
	c0,0,0,0.1-0.1,0.1v1c0.1,0,0.1,0,0.2,0c0,0.1,0,0.3-0.1,0.4c0,0,0,0-0.1,0v0.7c0.2,0.1,0,0.3,0,0.4v0.7c0,0,0,0,0.1,0
	c0,0.1,0,0.3-0.1,0.4c0,0.9,0,1,0,1.1c0,0,0,0,0,0v0.8c0,0,0,0,0,0c-0.1,0.8,0,1-0.1,1.3c0,3.6,0.1,3.6-0.2,3.8
	c0,3.1-0.1,3.8-0.1,6.3c0,0,0,0,0,0.1c0,0.5,0,0.4,0,0.5c0,0.2,0-0.7,0,15c0,0.5-0.3,0.8-0.7,0.8c0,1,0,2.1,0,3.1c0,0-0.1,0-0.1,0
	l-0.2,14.7c0,0.1,0.1,3.7-0.1,3.9c0,0.3,0,0.6,0,0.9c-0.3,0-0.7-0.1-1-0.1v-4.8c0,0,0,0,0.1,0c0-1.2,0.1-2.3,0.1-3.5
	c-0.7-0.2-3.7,0-4.2-0.3c0.1-0.5,0-1,0.1-1.5c0-0.1-0.1-0.2-0.1-0.3c0,0-0.1,0-0.1,0c0-0.6-0.2-1.2-0.1-1.8c0-0.2-0.1-0.4-0.1-0.6
	c0,0,0.1,0,0.1,0v0c-0.1,0-0.2-0.1-0.2-0.2l-0.9-3.5c-0.1-1.4,0.2-3.3,0-3.9c0,0.7-0.2,1.4-0.1,2.1c-0.2,0.2-0.5,0.3-0.7,0.5
	c0-0.1-0.1-0.2-0.1-0.3c-0.2-0.1-0.5-0.1-0.7-0.1l0-2.9c-0.3,4,0,3.8-0.2,4.9c-0.2-0.3-0.4-0.7-0.7-0.9c-0.1,0-0.2,0.1-0.3,0.1
	c-0.5,0.7-0.8,1.5-1.3,2.2c0,0-0.1,0-0.2,0.1c-0.1,0.1-0.3,0.2-0.4,0.3c-0.1,0.3-0.3,0.6-0.4,0.9c0.1,0,0.1,0,0.2,0.1
	c0,0,0,0.2,0,0.2c-0.1,0.1-0.2,0.2-0.3,0.3c0.1,0.4-0.1,0.8-0.3,1.2c0,0.4-0.3,2.3-1.1,2.5c0,0,0,0.1,0,0.1c0.1-0.1,0.2-0.1,0.3-0.2
	c0,0.2,0,0.3-0.1,0.5c-0.3-0.3-0.7-0.1-1.1-0.1c-0.1,0-0.1-0.1-0.1-0.2c-0.2,0-0.7,0-0.8,0c0,0,0,0.1,0,0.1c-0.1,0-0.2-0.1-0.3-0.1
	c-0.3,0-0.5,0-0.8,0c0-0.5,0.3-18.4,0.4-19.2c0-0.3,0.3-16.4,0.4-16.9c-0.2-0.8,0.2-8.4,0.2-8.5c-0.1-0.4-0.1-0.8,0-1.3
	c0-0.2,0.1-13,0-13.2c-0.1-0.1-0.1-0.2-0.3-0.4c0,0,0-0.1,0-0.2c-0.9-1.4-2.3-5.1-3.3-7.7c0,0.1,0.1,0.2,0.2,0.3
	c-0.3-0.4-1.6-5.6-1.8-5.7l0,0l0,0c0,0-0.1-0.1-0.2-0.1c0-0.1,0-0.3-0.1-0.4c0-0.2-0.4-2.8-0.2-4.1c0-0.2-0.1-0.3-0.1-0.5
	c0,0-0.1,0.1-0.2,0.1c0,0-0.1-0.1-0.2-0.1c0,0.1,0,0.3,0.2,0.3c0.1,4.5-0.5,3.5-0.6,5.1c-0.1,0.1-0.1,0.1-0.2,0.3l0,0
	c-6.5,14.9-5.9,13.8-6.1,13.9c-0.3,1.5-0.3,27.9-0.3,28.1l0,0v0.4c0,0,0,0,0.1,0l-0.1,1l0,0v0l0-0.1c-0.1,1.2-0.1,2.5,0,3.7h-0.1
	v0.6c0,0,0,0,0,0l0,6.2c-0.1,0-0.3,0-0.4-0.1c0,0,0,0,0,0c0,0,0,0-0.1,0c0,0,0,0,0,0c-3,0-3.5-0.3-7.2,0.4c0,0,0,0.1,0,0.1
	c0.5,0.3,1.2,0.2,1.8,0.3c0.8,0.2,1.7,0,2.6-0.1c0.1,0.2,0.1,0.5,0.1,0.7c-0.1,0-2.3,0.3-2.5,0.4c0,0.1,0.1,0.2,0.1,0.3
	c0.8,0.1,1.5-0.2,2.3-0.3c0,0.3,0,0.7,0,1c-0.1,0.3-0.1,0-1.6-0.1c0,0.4,0,0.8-0.2,1.1c-0.1,0-2.8,0.3-2.8,0.4
	c-0.2-0.1-0.5,0-0.7,0.2c0,0-0.1,0-0.1,0c0,12.4,0.1,11.7-0.2,11.8v0.5c0,0.1,0,0.2-0.1,0.3c-0.4,0.1-0.8,0.2-1.2,0.2
	c0-0.5,0.1-3.6,0.1-3.7c-0.1-0.1-0.2-0.1-0.3-0.2c0-3.4,0.1-4.3,0.1-4.3c-0.2-0.1-0.3-0.3-0.5-0.4c-0.3,0-0.7,0-0.8-0.3
	c-0.3-0.1-0.5-0.1-0.8,0c0,0-0.1,0.1-0.1,0.2c-0.2,0-0.4,0-0.7,0c-0.1-0.4,0-0.8-0.1-1.2c-0.2,0-0.3,0-0.5,0c0,0-0.1-0.2-0.1-0.2
	c0-0.6,0.1-1.2,0.1-1.8c-0.6-0.1-1.3,0.2-1.9-0.2c0.1,0,0.3,0,0.3,0c0.1-0.1,0.1-0.2,0-0.3c-0.5,0-1,0-1.4,0v-0.2
	c1.5,0.1,2.2-0.3,2.9-0.7c-0.2,0-5.7-0.2-6-0.2c-0.1,0-0.3,0.1-0.4,0.1c0,0-0.1-0.1-0.1-0.1c-0.2,0.1-0.5,0.2-0.7,0.2
	c0.3,0.8,0,3.2,0,4.1c0,0,0.1,0.1,0.1,0.1c0-0.1,0-0.2,0-0.3c0.1,0.1,0.3,0.2,0.4,0.3c-0.1,0.1-0.2,0.2-0.2,0.2c-0.3,0-0.5,0-0.8,0
	c-0.1,0.2-0.3,0.3-0.4,0.3c0,0.3,0,0.6,0,0.9h0c0,0.3,0,0.7,0,1c-0.5,0-1,0.1-1.6,0.2c0,0.1-0.1,0.1-0.1,0.2
	c-0.1-0.2-0.3-0.1-0.5-0.2c0,0.4,0,0.8-0.1,1.3c0.1,0.5-0.1,0.9,0,1.4c0.1,0,0.2,0,0.4,0c0-0.1,0.1-0.2,0.1-0.3
	c0,0.1,0.1,0.2,0.2,0.2c0.1,0,0.3-0.1,0.4-0.1c0.2,0,0.4,0,0.5-0.1c0,0,0.1,0.1,0.2,0.1c0.1-0.1,0.3-0.1,0.4-0.2
	c0,0.4,0,0.7-0.1,1.1c-0.3,0-2,0.1-2.2,0.3l0-0.1c0,0.1,0,0.2-0.1,0.3c0,0-0.4,8.7-0.3,9.2c0,0.1-0.1,0.3-0.1,0.4c0,0,0,0.1,0.1,0.1
	c-0.1,0.4-0.2,6.7-0.2,6.8c-0.3,0.2-0.6,0-1,0.1c-0.2,0-2.7,0.1-3,0.2c0.4,0.3,1.1-0.1,1.3,0.5c-0.8,0.1-1.5-0.1-2.2-0.1
	c-0.1,0.1-0.2,0.2-0.3,0.3c-0.4,0-0.7,0-1.1,0c0,0,0,0-0.1,0c0.3,0.1,0.2-0.1,0.2,5.6c0,0.3-0.4,0.4-0.6,0.3
	c-0.1,0.1-0.3,0.1-0.4,0.1c-0.2,0-0.3,0-0.5,0c-0.1-0.2-0.2-0.4-0.3-0.6c0.1-0.5,0.3-0.3,0.1-2c-0.1-0.1-0.2-0.2-0.2-0.3
	c0-0.3,0.1-1.6,0.1-1.9c0-0.1-0.2-0.2-0.3-0.2c0-0.3-0.3-0.2-0.6-0.8c-0.8-0.3-0.8-0.2-1.2,0.3c-0.9-0.1-1.2-0.8-3-0.8
	c-0.2,0.1-0.3,0.1-0.6,0c0,0,0,0,0,0c0,0,0,0-0.1,0c-0.3,0-0.7,0-1.5,0V231h400.4v-51.1C400.2,180.2,400.1,180.1,400,180.2z"/>
</svg>
