<?xml version="1.0" encoding="utf-8"?>
<!-- Generator: Adobe Illustrator 21.1.0, SVG Export Plug-In . SVG Version: 6.00 Build 0)  -->
<svg version="1.1" id="Layer_1" xmlns="http://www.w3.org/2000/svg" xmlns:xlink="http://www.w3.org/1999/xlink" x="0px" y="0px"
	 viewBox="0 0 1318.4 1462.5" style="enable-background:new 0 0 1318.4 1462.5;" xml:space="preserve">
<style type="text/css">
	.st0{fill:#B0431D;}
</style>
<path class="st0" d="M1318.6,1461v-334.6c-1,1.3-1.9,0.7-2.7,1.4c-1.7,1.1-1,3.4-1,5.1c-2.7,0.7-5.5,0.8-8.3,0.6
	c-0.5-0.8-1.3-1.1-2.2-1.4c-0.1,0.4-0.3,1.2-0.4,1.7c-1.9-1.3-0.2-1-1-1.8c0.1,4.6-0.7,4.4-0.2,7.9c-0.5,0.5-0.9,1.1-1.3,1.7
	c-1.8,0.7-3.7,1.6-5.4,2.5c0.1,0.4,0.2,1.1,0.2,1.5c-2.5,1.2-5.3,2.3-8.1,1.2c-0.2-1.5-1.2-3-0.9-4.6c0.4-2.3-0.1-4.4-0.5-6.6
	c-1.2-0.2-2.6-0.4-3.8-0.5c0-0.7,0-1.4,0-2.2c0.5,0.2,1.1,0.4,1.7,0.5c-0.7-1.8-2.6-2.7-3.9-3.8c-0.8-4.5,0.4-9.2-0.8-13.7
	c-1-0.3-2.2-0.6-3.2-0.8c0-1.4,0.1-2.8,0.1-4.2c-0.8-1.9-0.3-4.2-0.5-6.2c-3.2-0.6-6.5-0.6-9.6-1.4c-3.9,1.1-8,0.5-11.9,0.9
	c-0.3-1.1-0.7-2.3-1.3-3.3c-1,0-19.9-0.3-22.8,0.5c0,1.3,0,2.7-0.1,3.9c-0.4,0.8-1.4,0.5-2,0.6c-2.3,0-4.6,0-6.9,0.4
	c-0.5,1.9-0.5,3.9-0.4,5.8c-3.9,0.4-7.9-0.6-11.8,0.2c-0.2,2.3-0.4,4.6-0.2,6.9c-0.7,3.3-0.4,6.6-0.9,9.8c1.2,2-0.5,4.3,0.3,6.5
	c-0.1,2.7,0.6,5.3-0.5,7.9c0.2-0.2,0.7-0.6,1-0.9c-0.3,1.6-0.6,3.2-0.8,4.8c-0.1,0-10-0.3-10.9-0.4c-0.3,0.2-0.9,0.6-1.2,0.8
	c0-0.3-0.1-1-0.2-1.3c0,0.3-0.1,0.8-0.1,1c-1.2,0-2.5-0.1-3.7-0.1c-0.2,1.3-0.4,2.7-0.5,3.9c-0.3,0-0.8,0.1-1,0.2
	c0.4,0.6,0.7,1.1,1.2,1.7c-0.6,0-1.7,0-2.4,0c0.7,0.1,1.5,0.2,2.3,0.3c-0.6,0.9-1.7,1.2-2.7,0.9c-3.8-0.7-7.7,0-11.6-0.5
	c-0.6-1.3,0.1-2.8,0.3-4.1c-0.2-0.2-0.6-0.6-0.7-0.8c0.1-0.2,0.2-0.7,0.2-0.9c-0.3-4.2-0.1-8.5-0.2-12.8c0,0.3-0.1,0.9-0.2,1.2
	c-0.9-1.7-2.9-2.3-4.6-2.3c0.4-3.1,0-6.2-0.7-9.2c0.5-8.1-0.6-48.9-0.9-51.3c-0.8-0.8-2.3-0.8-3.1-1.6c-2.2,1.3-18.1,0.8-20.3,0.7
	c-0.1,2,0.3,4.1,0.5,6.2c-0.4,1.2-1.1,2.5-1.9,3.5c-1.1-0.6-1.5-1.9-2.3-2.9c-1.4,0-3,0-4.4,0.1c0.1,1.8-0.6,3.4-2,4.4
	c0.3,0.1,0.9,0.4,1.3,0.5c0.3-0.6,0.6-1.3,1-1.9c0.5,0,1.4-0.1,1.9-0.1c-0.2,1.7-0.3,3.4-0.6,5.1c-0.7-0.4-1.4-0.9-1.8-1.6
	c-0.8,0.3-1.6,0.6-2.4,0.9c0,1.1,0.1,2.4,0.3,3.6c-2.3,1.6-3.3,0.4-2.2,4.9c0.9-0.2,1.9-0.4,2.9-0.7c0.1,0.4,0.3,0.9,0.4,1.4
	c-1.3,0.6-2.9,1.1-4.2,1.6c0,3.3,0.8,4.8-2.4,4.9c-11.9-0.7-6.7,2.7-8.8,11.4c0.1,2.9,1.6,2.4-2.3,4.1c0.2,3.2-1.7,12.5-2.5,15.1
	c-1.3-0.6-1.8-2.2-2.2-3.5c0.3,0,0.9,0.1,1.2,0.1c-0.2-0.1-0.6-0.3-0.8-0.4c-0.1-0.6-0.2-1.1-0.3-1.7c-1.9-1.7-0.4-4.6-1.1-6.8
	c-1-0.2-2-0.3-3-0.4c-0.1-1-0.1-2-0.1-3.1c-1.2,0-2.5-0.2-3.7,0.1c-0.3,1-0.4,2-0.6,3.1c-1,0-1.9,0.1-3,0.1
	c-0.1,0.9-0.1,1.8-0.2,2.9c-3.7,1-7.6,0.7-11.4,0.6c-0.3-0.8-0.5-1.6-0.8-2.5c-0.2,0.8-0.3,1.6-0.3,2.4c-1.1,0.1-2.3,0.2-3.3,0.4
	c-0.8,0.6-1.4,1.3-2,2.2c0.1,3.3-0.3,6.7-0.7,9.9c-0.4,0.1-1.2,0.2-1.6,0.3c-0.8,8.2-0.1,10-1.8,13.2c-0.8,1.1-0.1,2.5,0.2,3.7
	c0.6,2.5,0.5,5,0.4,7.6c-1,0.2-1.3,1.2-1.1,2.2c0,0-1.9,0.9-3.7,1.7c-0.1-0.1-0.3-0.3-0.4-0.4c-0.7,1.6-3.1,2-4.1,0.3
	c-3.2-0.2-21.1-7.1-22.1-7.5l0,0c-3.3-1.3-6.5-2.7-9.6-4.1c-1.1-0.2-0.8-0.1-1.6-0.4c0-0.1,0-0.2,0-0.3c-3.5-1.5-6.6-2.9-10-4.4
	c-0.1,0.1-0.1,0.2-0.2,0.2c-0.2-0.1-0.4-0.2-0.7-0.3c0.1-0.1,0.1-0.1,0.2-0.2c-2.5-1-5-2-7.6-3.1l-0.1,0.1c-0.8-0.3-1.5-0.6-2.4-0.9
	c0,0,0,0,0-0.1c-14.3-5.3-15.6-4-16.4-5.8c-0.1,0-0.1-0.1-0.2-0.1c-0.1,0.1-0.2,0.1-0.4,0.2c-0.5-0.1-1-0.3-1.5-0.4
	c0.6-11-2-117.4-2-117.7c-0.9-0.8-2.3-0.9-3.4-1.3c-0.7-5.7,0.1-96-0.9-100.3c-0.5,0.2-1.1,0.3-1.6,0.5c-0.7-2.6-0.9-44.7-0.2-47.2
	c-0.1-0.2-0.2-0.7-0.3-1c1.1-4-1.1-13.4,0-18c-0.9-0.3-1.8-0.6-2.8-0.9c0.2-2.4,0.2-79.7-0.3-82.5c0.3-2.6,0.3-32.4-0.1-35.3
	c0.2-0.9,0.8-2.3-0.5-2.7c-0.2,1.5-0.6,3.1-1.1,4.6c-0.4-0.2-1.2-0.6-1.5-0.8l-0.1-42.4c0.3-2.2,0.4-4.4-0.1-6.6
	c0.4-2.3,0.5-4.4,0-6.7c0.4-2.6,0.4-5.2,0.9-7.8c-0.6-3.7-0.4-7.6-0.9-11.3c-0.1-0.2-0.2-0.5-0.3-0.6c0.1-0.7,0.2-1.5,0.4-2.3
	c-0.3-0.2-0.9-0.7-1.2-0.9l-0.2-52.5c-0.3-1,0-70.6,0.1-71c-1.1-4.5,0.3-27.8,0.1-30c0.3-4.6-0.9-9.1-0.5-13.7
	c-0.7-0.5-1.5-0.9-2.3-1.3c0-18,0.1-36.2-0.1-54.2c-0.1-0.2-0.2-0.7-0.3-0.9c0.5-1.4,0.4-3.1,0.1-4.5c0.6-2.9-0.1-5.6-0.2-8.5
	c0.2-0.5,0.4-1,0.6-1.5c-0.1-0.3-0.4-0.8-0.5-1.1c0.1-0.2,0.2-0.6,0.2-0.8c-0.1-0.5-0.3-18.3-0.3-18.8c-0.7,0.5-1.6,1.2-2.2,0.2
	c-0.2-1.1-0.1-2.3-0.1-3.3c0.9,0,1.8,0,2.8,0c-0.7-1.3-7.7-2.5-9.5-1.6c0.1-0.3,0.4-0.8,0.5-1.1c-0.4,0-1.1,0-1.5,0
	c0-1-0.4-34.6-0.2-37.1c-0.2-0.6-0.2-6.7-0.1-7.9c-0.2-1-0.3-5.2-0.1-6.9c-0.3-2.6-0.2-28-0.3-30.2c0-1.2-0.8-2.3-1.4-3.3
	c0.8-4.6-0.3-83.4-0.5-84.6c-1.3-0.3-2.8-0.5-4.1-0.7c0-0.4,0-1.1,0-1.4l-0.2,1c-0.3-0.1-0.8-0.3-1.1-0.4c0.2-0.2,0.5-0.6,0.7-0.8
	c0.3,0,0.6-0.1,0.9-0.3c-0.4-0.7-0.7-1.4-0.8-2.3c0,0,0,0.1-0.1,0.1c-1.1-2.4-1.2-79.5-1.2-80.5c-1.5-0.5-3.1-0.7-4.5,0
	c-0.3-0.6-0.5-1.1-0.7-1.7c0.8-0.6,1.7,0.1,2.7,0.3c0.3-0.5,0.5-1.1,0.5-1.8c-1.9,0.5-4.1,0.4-5.7,1.7c0-1-0.5-31.2-0.2-35.8
	c-1.5-7.1-1.9-65.3-2-68.1c-2.3-0.1-0.2,3.1-1.4,12.2c0.7,1.7-0.3,3.5-0.2,5.3c0.9,1.4,0.4-0.9,0.5,41.9c0.2,1.5-1.7,2.6-0.7,4
	c0.9,1.8,0.9,3.9,0.3,5.7c0.9,0.1,1.7,0.5,2.5,1.2c-0.6-0.2-1.3-0.4-1.9-0.6c-0.6,1.3-0.7,2.7,0.4,3.7c-0.2,0.6-0.4,1.3-0.6,1.9
	c-0.7,0-1.4,0.1-2,0.1c0,0.1-0.2,58-0.2,58c-0.1,0.3-0.4,0.8-0.5,1c-0.2,0-0.6-0.1-0.8-0.2l-0.3,0.3v24.8c0.6,1.5,0.8,3.3,0.7,4.9
	c-0.3-0.3-0.5-0.6-0.7-1v10.9l0,0l0,0v1.3h0.7v0.6c-0.3,0.1-0.5,0.1-0.7,0.2v3c0.4,0.7,0.8,1.4,1,1.9c-0.2,0.1-0.6,0.2-1,0.2v4.6
	c0.9,0.8,1.4,2,1.4,3.7c0,20.8,0.1,19.8-0.3,21c0,0.4,0,0.8,0,1.2c-0.1-0.2-0.1-0.4-0.2-0.7c-0.3,0.6-0.8,1.2-1.3,1.6
	c0,0.8,0.2,29,0.5,29.8c-0.1,0-0.2-0.1-0.3-0.1v2.9c0.2,0.2,0.5,0.4,0.6,0.6c0.2-0.2,0.7-0.6,0.9-0.8c-0.2,0.9-0.3,1.9-0.5,2.9
	c-0.4,0-0.7,0-1,0c0,88.2,0.6,83.3-1.4,85.3c0.1,0.1,0.2,0.2,0.2,0.3c-0.1,0-0.3-0.1-0.4-0.1c-0.4,0.4-1,0.7-1.5,0.9
	c0,0.1,0,0.2,0,0.3c-0.1-0.1-0.2-0.1-0.3-0.2c-0.6,0.2-1.2,0.3-1.9,0.3c-0.3,0.2-0.5,0.4-0.8,0.6v5.1c0.1,0.1,0.1,0.2,0.2,0.2
	c-0.1,0-0.1,0.1-0.2,0.1v3.4c0.2,0,0.3,0,0.5,0c-0.5,7-0.5-1.7-0.5,13.8c0.1,0.1,0.3,0.2,0.4,0.2c0,1.2,0,2.4,0.1,3.6
	c-0.1-0.1-0.4-0.2-0.5-0.3v1.6h0.1c0,0.1-0.1,0.1-0.1,0.2v2.7c0.2,0.3,0.5,0.6,0.7,1c-0.2,0-0.5,0.1-0.7,0.2c0,0,0,0,0,0.1v13.7
	c0.2-0.1,0.4-0.2,0.5-0.2c-0.1,0.5-0.2,1-0.3,1.6c-0.1,0.1-0.1,0.1-0.2,0.2v5c0.3,0.3,0.6,0.6,0.9,0.9c-0.2,0.4-0.6,0.8-0.9,1.1v5.5
	c0.6,0.1,1.2,0.1,1.8,0.2c-0.5,0.6-1,1.2-1.6,1.7c0,0.7,0,1.4,0.1,2.2c-0.1,0-0.2,0-0.3,0.1c0,19.2,0.4,19.4-1.3,21.2
	c0.4,0,0.8-0.1,1-0.1c-0.6,0.5-1.3,0.7-2,0.9c-0.7,0.4-1.6,0.7-2.5,0.8v1.7c0.1,0,0.3,0,0.4,0c-0.1,0.1-0.3,0.3-0.4,0.4v49.1
	c0.1,0.3,0.3,0.6,0.5,0.9c-0.1,0-0.3,0-0.5,0c0,68.5,0.4,64.6-1,66.6c-0.8,4.2-1.9,8-1.9,8c-0.4,0.5-0.8,0.9-1.3,1.3v0.1
	c0,0-0.1,0-0.2,0c-0.7,0.4-0.7,0.4-5.4,1.7c-0.3,0.8-0.5,1.6-0.7,2.5c0.5,0.8,0.9,1.7,0.9,3c0,212.5,2.3,205-5.3,205.1
	c-0.1,0.1-0.2,0.1-0.3,0.2c-0.1-0.1-0.4-0.2-0.6-0.2c-2.2,0.8-4.3,0.2-6.1-1.1c-2.7,0.4-5.4,0.3-8,0.8c3.5,1.6,2.9,4.9,2.9,9.1
	c0.1,0,0.1,0,0.2,0c0.1,1,1.1,2.3-0.1,3.1l-0.1-0.1v9.2c0.4,0.1,0.8,0.1,1.1,0.2c-0.4,0.4-0.8,0.9-1.1,1.3
	c0,156.7,2.8,155.6-6.6,153.9c-1,0.8-2.2,1.5-3.3,2c-0.1-0.7-0.3-1.5-0.3-2.3c-2.7,0.2-5.3,0.4-7.9,0.5c0.1,0.2,0.3,0.7,0.4,0.9
	c-0.9,0-1.7,0-2.7,0c0.5,1,1.1,2.2,1.6,3.3c0.2,0.2,0.7,0.5,0.9,0.6c0,0.7,0,1.3,0,2c2.9,1.9,2.2,2.2,2.2,32.8c0,0,0,0,0.1,0
	c0,0,0,0.1-0.1,0.1c0,89.2,0.8,84.2-2,86.3c-0.6,1.3-1.7,2.4-3.3,2.8c0,0.1,0,0.1,0,0.2c-0.5,0.1-1.5,0.3-1.9,0.4c0-0.2,0-0.3,0-0.5
	c-1.7-0.2-3-1-3.7-2.2c0,0.1,0,0.2,0,0.3c-0.5,0.2-0.9,0.4-1.3,0.7c-0.6-2.9-1.5-5.8-1.5-8.8c0.1-0.1,0.4-0.3,0.6-0.5
	c-0.3-0.1-0.8-0.2-1.1-0.3c-0.3-6-1.8-7.3-5.5-24.7c-9.5-5.3-56.2-28.9-60.7-30.2c-0.5,0.2-0.9,0.5-1.3,0.7c0.3,1,0.6,2,0.9,3.2
	c-0.8-0.4-1.5-0.9-2.3-1.3c0-2-0.1-4.1-0.1-6c-0.9-0.3-1.7-0.5-2.7-0.7c-0.3-0.5-0.6-0.9-0.8-1.4c1.1-0.3,2.3-0.6,3.5-0.9
	c0-1.5-0.2-3-0.6-4.4c-1.2-0.3-2.9-0.6-2.4-2.3c1-0.2,2-0.4,3.1-0.7c-0.2-1.4-0.3-3-0.3-4.4c-0.9-0.1-1.7-0.2-2.6-0.2
	c-0.2-0.6-0.5-1.2-0.4-1.8c0.9-0.2,1.7-0.3,2.8-0.4c0.6-1.5,0.2-3.3-0.1-4.8c-0.8,0-1.5,0-2.3,0c0-0.7,0-1.5,0-2.3
	c0.8,0,1.6,0,2.5,0.1c0.6-2.4,0.4-4.7-0.1-7.1c-2.6,0.6-5.1-0.6-7.6,0.2c0-1.3,0-2.7,0.2-4c-0.5-0.2-1.1-0.5-1.5-0.6
	c-0.9,0.3-1.1,1.3-1.4,2c-0.7-1.1-1.3-2.3-1.9-3.5c0.7-3.1-2-6.1-16.7-30.4c-3.1-1.7-1.7,4-2.2-22c-2.6-0.6-3.1-1.6-16.5-12.5
	c0.2-15.3-0.5-15.5,0.3-19c-0.3-0.6-0.6-1.2-0.9-1.7c-0.4,7-0.8,13.9-0.6,20.9c-3.7,3.3-7.9,6-11.4,9.5c-1.4,1.5-3.4,2.5-5.2,3.3
	c0.2,6.4-0.1,12.8,0.4,19.3c-0.2,0.9-1.3,0.8-2,1.2c-1.7,2.6-2.8,5.6-4.5,8.2c-3,3.2-7.7,12-8.5,15c-0.2-0.1-0.5-0.2-0.7-0.2
	c-0.3,2.5-3.6,9.2-4.4,10.2c0.1,0.3,0.3,0.9,0.4,1.2c-1.1-0.3-2.3-0.6-3.4-0.9c-0.8,0.6-1.7,1-2.4,1.8c-0.4,1-0.5,2.2-0.7,3.3
	c-1.9-1.1-4.3,0.6-6.1-0.5c-0.4,1.8-0.7,3.6-0.6,5.5c0.8,0.3,1.6,0.6,2.6,1c0.2,0.5,0.4,1,0.7,1.5c-1.1,0.3-2.3,0.5-3.3,0.8
	c-0.2,1.3,0.3,2.6,0.6,3.9c0.6,0.1,1.2,0.3,1.8,0.5c0.2,0.5,0.5,0.9,0.8,1.4c-0.2,0.2-0.5,0.8-0.7,1c-0.9,0-1.7,0.1-2.7,0.2
	c0.1,1.3,0.1,2.6,0.4,3.9c1.2,0.5,2.5,1.2,2.9,2.6c-1.1,0.3-2.3,0.6-3.3,0.9c0,1.2,0,2.6,0.3,3.8c1.1,0.6,2.3,1.1,3.2,1.9
	c-0.4,0.4-0.8,0.7-1.2,1.1c-0.8-0.1-1.5-0.1-2.3-0.1c0,1.1,0.1,2.3,0.2,3.5c3,3-0.1,76.1,1.1,81.1c-3.7-0.7-17.4,0.7-22.9-0.5
	c-1.5-0.3-3,0.5-4.4,0.9v-1.5c0.3-0.3,0.8-0.6,1.2-0.9c-0.3,0.1-0.9,0.4-1.2,0.5c-0.1-16.8-1-70-4.4-86.1
	c-1-0.4-105.2-33.5-108.4-32.6c-3,7.9-9,73.2-9,73.3c0-0.6-0.5-55.9-0.4-56.5c-0.5-2.7-0.3-84-0.1-87.9c-0.5-0.7-0.9-1.5-1.4-2.3
	c-2.3,1.9-5.5,0.5-8.2,0.2c0-9.8,0-19.7,0-29.5c-0.8-0.2-1.5-0.5-2.3-0.7v-1.5c-0.7-0.2-1.4-0.5-2-0.7c-0.3-0.5-0.6-1-0.8-1.5
	c-0.5,0.2-1.1,0.4-1.6,0.6c0-4.8,0.2-9.6-0.1-14.4c-1.6-0.4-3.3-0.6-5-0.6c-0.1-0.7-0.2-1.3-0.3-1.9c-0.9-0.3-1.7-0.5-2.6-0.8
	c0.4-0.4,0.8-0.9,1.3-1.3c0-3.6,0-7.1-0.2-10.7c-0.2-0.2-0.7-0.6-0.9-0.8c0-1.1,0-2.3,0-3.3c-0.4,0-1.1,0-1.5,0
	c-0.3,0.6-0.5,1.1-0.8,1.7c-2.3-0.3-4.4-1-6.1-2.4c-0.2,1.6-0.4,3.2-0.4,4.8c-1.9-0.3-3.9-0.5-5.7-1.1c-0.7-0.6-0.4-1.7-0.5-2.5
	c-1.7-0.4-3.4,0-4.8,0.9c-0.2-0.1-0.6-0.3-0.8-0.4c-0.2,0.1-0.5,0.3-0.7,0.4c-0.1,0-0.3,0-0.4,0c0,0.1,0,0.2,0,0.4
	c0.2,0.1,0.5,0.3,0.7,0.6c-0.2,0.1-0.5,0.2-0.8,0.3c-0.1,1.1-0.3,2.2-0.6,3.3c0.1,2.7,0,5.4-0.4,8.1c-0.9,0.1-1.7,0.2-2.7,0.2
	c-0.2,0.6-0.5,1.2-0.7,1.8c0.9,0,1.7,0,1.7,1.3c-0.5-0.3-1-0.7-1.5-1c0,1.6-0.3,1.4-1,3.5c1,2.7,0.3,5.4,0.5,8.2
	c-0.5,0-1.4,0.1-1.8,0.1l-0.1-0.1c-0.2,0.5-0.5,0.9-0.8,1.4c0,0.1,0,0.2,0,0.3l-0.2-0.1c-0.1,0.1-0.2,0.3-0.3,0.4
	c0.2,0.3,0.3,0.7,0.5,1c-1.3,0.2-2.5,0.8-2.5,2.4c-0.1,0.1-0.4,0.2-0.5,0.3c0,0.7,0.1,1.4,0.2,2.2c-0.5-0.1-0.9-0.2-1.4-0.3
	c0,0.3,0.1,1,0.1,1.4c-2.7-0.1-5.3-0.2-7.9-0.3c-0.2-0.2-0.4-0.5-0.6-0.8c-1.1-0.1-2.3-0.3-3.4-0.7c0,0.1,0,0.2,0,0.3
	c-0.4,0-1.2-0.1-1.6-0.1c-0.2,0.5-0.4,1-0.6,1.5c-1.4,0-2.9-0.1-4.3,0.1c-1,0.9-0.7,2.5-1.1,3.7c-2-0.7-4.2-0.5-6.2-0.4
	c0-2,0.2-4.2-0.4-6.2c-0.4,0-1.3,0-1.7,0.1c-0.3-0.7-0.5-1.4-0.7-2c-0.8-0.5-1.5-1.1-2.3-1.6c-0.6-0.3-1.4-0.3-1.8-0.8
	c-0.2-3.9,0.2-12.8,0.1-13.4c-0.7-1.2-2.4-0.8-3.6-1c-1.1,0.1-1-1.3-1.3-2c-1.1-0.1-2.3-0.1-3.3-0.2c0.4-0.6,0.8-1.2,1.3-1.8
	c0.1-3.3,0.1-6.7,0-9.9c-1.4-1.2-1-3.2-1.1-4.8c-2.7-0.3-5.4,0.9-8-0.2c-1.4-0.6-11.8,0.9-15,0.9l0,0c-0.3,0-0.6,0-0.9,0l0,0
	c-3.6,0.8-7.4,0.7-11.1,1.4c-1.9,4-1,8.4-1.2,12.7c0.3,0.2,0.9,0.7,1.2,0.9c-0.2,1.1,0.3,2.7-0.8,3.5c-2.5,0.1-5-0.4-7.5,0.4
	c0,0,0,13,0.2,15c-0.7-0.6-1.3-1.3-2.3-1.5c0,1.5-0.9,2.7-2.5,2.7c0,0.6,0,1.2,0,1.8c-0.4,0.1-0.9,0.3-1.3,0.5
	c-0.5,1.3-1.2,2.6-2.3,3.6c1.2,5.7,0.7,0.5,0.8,26.6c-2.7-1.1-5.5-0.3-8.3-0.6c-2.6,3.4-0.1,18-1.7,37.3c-0.1,0-0.2,0-0.3-0.1v3.7
	c-63,0-58.6-0.1-59.5,0.1c-0.8,3.8-0.6,7.7-0.6,11.6c0.7,0.5,1.4,1,2.2,1.5c0,0.6-0.9,0.8-1.2,1.2c0.4,0,1.3,0.1,1.7,0.2
	c0,1.6,0.2,3.4-0.1,5c-0.2,0.1-0.6,0.4-0.8,0.6c0,0.6-0.1,1.2-0.1,1.8c0.3,0.6,0.7,1.3,1.1,1.9c-0.3,0.1-0.8,0.3-1,0.4
	c-22.1-4.2-20.9-3.7-21.6-4.5c-0.2-4.1,0.3-31.7,0-33.4c0.1-0.5,0.2-0.9,0.3-1.4c-0.1-0.5,0.4-122.7,0.2-123.8
	c0.5-2.9,0-5.9,1.6-8.5c-2.4,0.3-4.5,1.5-6.7,2.5c-0.3-0.2-0.8-0.5-1.1-0.6c-2.3,0.4-4.6-0.1-6.9,0.3c-0.2-0.3-0.7-0.8-0.9-1
	c0.1-0.4,0.2-0.9,0.4-1.3c-3.5-0.9-7.1-0.7-10.6-0.7c0.2-3.5,1.3-6.9,1.5-10.3c-5.5-1-28.3-1.5-29.2-1.3c0.1,4.6,2.8,9.1,1.4,13.7
	c-0.8,0.1-1.5,0.2-2.3,0.3c0-4.8,0-9.5,0-14.3c-4.4-0.3-8.8-0.7-13.2-1c0,3.5,0,7.1,0,10.6c-2.4,0-4.7,0-7.1,0
	c-0.3-0.2-0.8-0.7-1-0.9c-0.2,0.2-0.7,0.7-0.9,0.9c-5.4,0-11-0.1-16.4,0c0,4.1-0.1,8.2-0.1,12.3l0,0c0.1,0.9-0.3,27.6-0.4,32.7
	c-2.9,4.9-5.9,9.7-9,14.4c0.1,0.2,0.3,0.6,0.4,0.8c-0.1,0.6-0.2,1.3-0.2,1.9c-0.3,0.1-0.9,0.3-1.2,0.4c-0.3,0.6-0.5,1.2-0.8,1.8
	c-0.8,0.3-1.5,0.5-2.3,0.8c-0.3-0.9-0.5-1.8-0.6-2.9c-0.2-0.1-0.3-0.2-0.5-0.3c-1.4,0.5-3.4,0.4-4.8-0.6c-0.3-0.1-5.9-0.2-7.8-0.5
	c-1-1.2-1-3-1.9-4.2c-0.8-0.1-1.7-0.3-2.3,0.3c-0.9,0.5,0,1.6,0.1,2.5c-0.8,0.4-1.7,0.7-2.6,1c-1.1-0.5-14.5-0.4-15.6-0.4
	c-2.8,0.9-5.5,1-8.4,1.5c0,31.7,0.1,30.7-0.4,32.9c0.4,2.6,0,5,0.3,7.6c0.7,2.3-3.7,1.5-8.9,1.6c0,0-1.2,102.5-1.1,103.1
	c-0.3,4.6-0.4,9.3-0.3,14c-3.3,0.2-6.7,0.1-9.9,0.5c0,0.4-0.1,1.1-0.1,1.5c-2.8,2.3-1.2,6-1.6,9.1c-0.2-0.2-0.6-0.5-0.9-0.7
	c-3.3-6.5-20.6-33.1-21.2-34.3c-0.1-8.7-0.1-67.7,0.4-77.5H120c-0.3,0.4-0.6,0.7-1,1c0-0.3,0-0.7,0-1h-10.9
	c-3.3,4.4-14.8,25.8-19.7,31.7c0-1.6,0.5-105,0.8-106.7c-0.2-1-0.3-2.2-0.4-3.2c-3.5,0-6.9,0-10.3,0c0.2-0.7,0.4-1.4,0.6-2.2
	c-1-0.1-15.7-1.6-22.7,0c-0.2,0.6-0.4,1.3-0.6,2c-3.3-0.9-6.7-0.2-9.9-0.4c-0.1,1.1-0.3,2.2-0.4,3.3c0.3,1.3-1.1,165.1-1.9,169
	c-0.7-1.2-17.5-29.9-19-33.5c-1.4-0.7-3-1.1-4.4-1.6c0,0.4-0.1,0.7-0.1,1c-1.7-0.4-3.5-0.7-5.3-0.6c0,1.7,0,3.6-0.2,5.3
	c-1.8-1.6-2-4.5-4.3-5.8c-2.7,0-5.4,0-8.1-0.6c-0.6,2.4-2,474.6-2,474.6L1318.6,1461z"/>
</svg>
