<svg id="Layer_1" data-name="Layer 1" xmlns="http://www.w3.org/2000/svg" xmlns:xlink="http://www.w3.org/1999/xlink" viewBox="0 0 1000 1000"><defs><style>.cls-1,.cls-2{fill:#f15b27;}.cls-1,.cls-5{stroke:#f15b27;stroke-miterlimit:10;stroke-width:25px;}.cls-3{clip-path:url(#clip-path);}.cls-4{fill:#fff;}.cls-5{fill:none;}</style><clipPath id="clip-path"><circle class="cls-1" cx="500" cy="500" r="475.7"/></clipPath></defs><title>earth</title><circle class="cls-2" cx="500" cy="500" r="475.7"/><g class="cls-3"><path class="cls-4" d="M-213.54,198.15c6.44-7.06,14-11.13,24-10.65,6.26.29,12.05-1.95,15.84-10-3.8,1.13-6.26,2.67-8.34,2.26-2.7-.53-5.09-2.61-7.62-4,1.7-2,3.1-5.22,5.17-5.75,3.38-.86,7.21.06,10.85.17,3,.09,5.94.08,8.9.12v-11c3-1.25,7.21-3.9,11.72-4.7,16.15-2.88,32.37-5.47,48.64-7.52,13.23-1.67,26.56-2.9,39.88-3.25,3.68-.1,8.56,2.73,11,5.74,7.33,9.15,11,11.05,22.82,8.4,8.6-1.92,17.12-5.66,25.72-5.8a464.25,464.25,0,0,1,57.54,2.3c8.51.92,16.48,6.5,24.79,9.71,1.86.72,4.84,1.33,6.1.38,13.82-10.34,28.69-6.57,43.11-2.87,11.8,3,15.56,2.41,22.15-8.28,1.65-2.66,2.51-6.09,4.72-8A17.75,17.75,0,0,1,163,141c1.38-.12,3.23,4.27,4.7,6.72,2.29,3.82,4.44,7.73,7.15,12.48l24.48-9,2.06,1.75c-1.85,2.87-3.17,7.57-5.65,8.3-12,3.51-22.67,12.22-37.6,11.5-.1,9.57-9.19,10.21-17.44,13.57a155.64,155.64,0,0,0-33.09,18.49c-8,5.89-7,14.22,1.45,19.57,5.11,3.25,11.25,5,17.1,6.93,4.48,1.48,9.22,2.18,14.08,3.29-1.13,4.1-3.16,7.57-2.6,10.55.6,3.25,3.15,7.89,5.7,8.52s8.86-2.42,9.11-4.41c1.4-11.39,10.25-13.68,18.53-16.17,5.57-1.67,7.25-4.57,6.83-9.85-.28-3.4,0-6.83-.12-10.25-.1-4.65.65-8.31,6.49-9.09,2.26-.31,4.46-2.4,6.35-4.05,8.85-7.75,15.61-9.16,25.64-3.46,3.09,1.76,5.61,6.2,6.46,9.86,1.88,8.16,3.29,9.39,10.66,6,2.58-1.2,5-2.85,7.68-3.72s7-2.46,8.41-1.24c1.77,1.54,1.95,5.66,1.76,8.6-.84,13.41,1,16.7,12.85,22.58,4.78,2.38,5.67,6.34,2.11,10.52-7.27,8.54-15.81,14.13-27.79,14.38-11.59.23-23.19,1.81-34.7,3.41-3.89.54-7.52,3-11.27,4.54.17.93.34,1.86.52,2.78h25l-11.48,12.3h24l1,2.56-34.73,17.4V294.92c-12.74,3.28-23.42,8.28-30,19.78-.93,1.63-2.34,3.81-3.86,4.14-18.72,4-26.94,19.87-38.29,32.5-5.73,6.38-13.61,10.85-20.57,16.1a46.48,46.48,0,0,1-7.79,5.22C82.7,379,81.77,389.88,85.43,402.11,87.78,410,86.35,416,77.52,422c-2-6-4.43-11.14-5.4-16.58-2-11.35-12.17-19.57-23.67-17.73a11,11,0,0,0-6.62,4.56c-3.89,6-8.41,5.07-14.06,3-4.14-1.48-9.24-2.84-13.2-1.73-13.39,3.75-25.65,9.29-29,25.21-1.47,6.91-4.64,13.44-6.55,20.29C-24,449.79-18.48,460-8.1,463.69c11.4,4.07,21.45.08,26.41-10.45.85-1.79,1.42-4.66,2.75-5.09,3.73-1.21,8-2.41,11.6-1.52,1.57.39,3.2,6.21,2.48,8.95-2,7.63-5.21,14.93-8.47,23.78,4.86.24,8.64.5,12.42.61,11.29.35,13.39,2.86,11.74,14.22-.33,2.25-.75,4.49-1,6.75-1.21,10.57.59,19.82,10.57,26,2.09,1.28,3.31,4,4.09,6.8-11.23-5.71-25.21-6.71-29-22.94-1.26-5.47-9-10.21-14.68-13.69-7.59-4.62-16.09-7.78-24.3-11.34-3.52-1.53-7.6-4.08-10.9-3.44-13.89,2.67-25-3.5-36.14-9.91a84.2,84.2,0,0,1-13-9.65c-2-1.72-4.59-4.8-4.22-6.78,2.5-13.55-7.65-22-12.4-32.59-4.62-10.29-9.52-20.47-14.4-30.64-1.76-3.67-3.83-7.18-6.08-11.35-8.12,6.4-2.56,11.8-1.16,16.89,2.51,9.16,5.52,18.19,7.07,27.68-10-11.23-14.78-24.76-16-39.15-.69-8.23-1.73-14.67-9.6-19.23-3.26-1.88-6.2-6.38-7-10.15-1.94-9.7-2.71-19.65-3.6-29.53-.15-1.69,1.23-3.71,2.32-5.3,9.85-14.5,18.74-29.86,30.12-43.07C-91.57,271.59-94,265-94.85,257c-.82-7.75-1-15.87.4-23.48,2.77-14.91-5.49-22.57-20.4-26.75a93.94,93.94,0,0,0-22.72-3.45c-6.5-.16-13.05,1.63-19.57,2.6-.54.08-1.09.71-1.56.64-15.55-2.44-26.43,12.84-40.24,10.07l-14.6-8.24Z"/><path class="cls-4" d="M186.38,919.37c-13-7.68-21-19.69-27.59-32.75-1.2-2.37-2.79-6.08-1.8-7.76,7.56-12.9-.64-22.56-6.92-31.83-4.07-6-6.2-11.59-6.56-18.72-1.72-34.07-3.91-68.12-5.81-102.18a29.6,29.6,0,0,1,.88-10.08c2.62-8.64-2-13.53-8.5-17.35-20.82-12.22-40.08-25.43-48.73-50-3.3-9.37-10.5-17.44-16.39-25.77-3.58-5.07-4.6-9.29-.34-14.57,1.49-1.84,2.16-6,1.08-7.94C62.6,595,64.2,591,67.22,586.3c6.73-10.52,13.19-21.25,19-32.29,1.54-2.92,1.25-7.61.15-10.94-2.3-6.93-2.34-12.13,4.27-17.13,7.76-5.88,14.56-13.05,23.43-21.17L122.74,524c1.79-3.87,3.6-7.21,4.89-10.74,1.53-4.22,3.94-5.33,7.79-3,9.18,5.53,19.23,6.44,29.63,5.85,1.91-.11,4.31,0,5.73,1.06,12.85,9.36,25.43,19.1,38.35,28.38,3.59,2.58,7.86,5.11,12.1,5.75,17.13,2.59,25.88,17.87,18.52,33.28-.22.45,0,1.09,0,2.25,13.72-1.6,25,3.36,35.84,11.51,4.12,3.09,11.3,2.47,17.13,2.85,15.41,1,26.73,10.44,38.41,18.76,2.26,1.61,2.91,7.36,2.2,10.77a28,28,0,0,1-6.17,11.95c-9.56,11.14-12.49,24.39-14.57,38.41-1.91,12.85-5.47,25.46-8.46,38.14-1.91,8.13-7.79,12.19-15.42,14.29-5.77,1.59-11.49,3.33-17.27,4.85s-9,4.55-7,11.12c.56,1.85,1,4.25.31,5.86-5.42,12.33-11.11,24.54-16.83,36.74-.71,1.5-2.14,2.65-3.08,4.07-7.41,11.24-9.39,11.94-22.49,7.87a35.61,35.61,0,0,0-3.86-.77l-1.31,2c3.07,2.49,5.94,5.27,9.24,7.4,4.35,2.81,5,6,1.86,9.89-4.51,5.6-7.89,13.06-17.58,10.34-1.11-.31-4.76,3.1-4.52,4.18,2.38,10.62-4.38,11.19-14.05,10.63,9,11.37,6,21.45-.64,30.64,11.94,8.29,11.92,10.37,7.16,23.71-1.84,5.17-.27,11.56-.25,17.39Z"/><path class="cls-4" d="M817,390.89c3.64,11.9,5.79,24.61,14.14,34.45,6.09,7.17,14.37,6,22.45-1.45,2.86-2.63,5.66-5.32,7-6.61,7.71,7.73,14.87,14.54,21.46,21.85,1.28,1.42,1.48,5.64.32,7.17-13,17.19-25.43,35.06-47.91,41.75-6.68,2-12.44,6.87-18.91,9.79-13.5,6.1-21.57,2.61-24.57-11.76-2.51-12-9.45-21-16.33-30.45-4.34-5.94-7.94-12.42-11.74-18.74-6-9.94-11.24-20.41-18.09-29.7-2.7-3.66-8.89-4.74-14.33-6.14,15.62,26.71,19.83,58.83,42.92,81.6,7.18,7.08,11.46,17.5,15.69,27,2.66,6,6.14,6.26,11.38,5.78,12.35-1.12,24.73-1.84,37.9-2.79-1.18,10.36-3.09,20.11-9.76,28.45-17.56,22-34.91,44.11-52.61,66-6.58,8.13-9,16-5.55,26.68C774.15,645,775.82,657,777,668.86c.86,8.39-2,16-9.79,21.36a100.77,100.77,0,0,0-15.93,14.06c-5.89,6.25-9.1,13.55-6.52,22.65,1.94,6.85.28,12.7-6.21,17a18.44,18.44,0,0,0-7,8.29c-6.74,18.68-22.2,30.14-36.06,42.36-6.5,5.73-17.06,6.89-25.84,10-1.25.44-2.83-.19-4.23,0-15.2,1.71-16.21.54-20.05-15-1.66-6.73-5.59-12.9-8.28-19.4-3.31-8-8.57-15.89-9.13-24.1-1-15.48-7-28.8-14.49-41.47-5.38-9.06-5.49-18-.65-25.79,11.64-18.66,8.59-36.78,0-54.81-4.46-9.32-11-17.64-15.83-26.81-1.75-3.33-1.71-7.84-1.69-11.81,0-6.67,2-13.66.57-19.9-.93-4-6.42-9.47-10.17-9.72-7.16-.49-11-4.16-15.66-8.41-6.82-6.14-15.56-4.63-23.64-2.78-13.51,3.09-26.81,7.1-40.35,10.1-15.49,3.43-26.37-5.51-35.65-15.78s-18.23-21-25.08-32.9c-3.35-5.81-3.4-15-1.7-21.9,2.43-9.78,5.08-18.94,2.88-29.23-2.52-11.79,3.68-21.9,9.69-31,5.88-8.87,14.42-15.93,21.21-24.27,3.93-4.82,6.71-10.59,10-15.94,2.06-3.34,3.53-7.29,6.27-9.91,5.87-5.63,12.4-10.58,17.78-15.07,6.37-.57,12.24-1.4,18.12-1.55,21.87-.56,42.72-7.43,64.24-10,2.64-.32,5.37.17,8.07.29-.19,2.4.28,5.11-.68,7.15-5.2,11.2,4.48,18.92,15.21,22.06a79.23,79.23,0,0,1,16.41,6.6c14.68,8.2,19.34,6.87,26.38-9,5.94,2.25,11.75,5.58,17.93,6.59,14,2.28,28.12,3.48,42.22,5,10.25,1.11,15.76-4.91,19.36-13.43a56,56,0,0,0,2.57-8.13c3-11.78,1.52-13.65-10.61-13.78-6.84-.07-13.67.08-20.51,0-14.44-.24-20.75-6.37-21.43-20.54-.11-2.18-.5-4.35-.89-7.62-3.6,1.33-6.35,2.74-9.26,3.29-2.7.51-5.57.11-10.69.11,2.29,4.8,4,8.48,5.85,12.29-7,11.37-10.51,11.45-16.75-.25-3.56-6.66-6.47-13.66-9.67-20.51-.36-.77-.52-1.84-1.13-2.24Q630.67,304.67,615,294.6c-.7-.45-2.09.18-4.21.44,3.58,17.52,23.66,18.31,30,30.75-2.64,3.27-5,6.15-7.35,9.11-3.67,4.7-6.37,11.27-15.13,8.36,1-1.62,1.14-2.35,1.54-2.51,11.7-4.63,12.64-8.65,3.33-17.18-3.5-3.21-8-5.29-12-8-4.36-3-8.78-6-12.84-9.45-4.41-3.71-8.06-7.34-13-.26-1.39,2-6,3-8.77,2.48-6.25-1.2-10.29.79-14,5.64-2.33,3.08-6,5.11-8.5,8.1-3.09,3.7-6.52,7.57-8.08,12-2.25,6.36-17.73,18-24.47,17a11.68,11.68,0,0,1-2.46-.69c-6.9-2.68-18.55-4.09-19.73-8.36-2.62-9.57-.82-20.7.94-30.9.48-2.81,7-5.85,11.1-6.37,3.83-.49,8.07,3.23,12.13,3.25,4.63,0,10.77-.59,13.57-3.5,4.18-4.36,3.14-10.66-1.6-15.31-2.38-2.34-5-4.43-8.47-7.45l10-3-6.66-7.3c3.68-.66,6-1.28,8.41-1.48a36.72,36.72,0,0,0,22.17-9.4c9.34-8.13,19.47-16.23,30.68-21,7.36-3.14,17.23-.44,26-.3.48,0,1,.9,1.42.85,6.42-.83,12.81-2.38,19.23-2.49,7.71-.12,13.51-1.68,15-10.43.24-1.4,2-3.74,2.89-3.65,11.52,1.31,8.47-6.82,8-13.45,4.59,0,8.71.45,12.63-.22,1.62-.28,2.83-3,4.22-4.58-1.74-1.14-3.42-3.11-5.24-3.24-3.64-.28-7.34.58-11,.74-7.7.34-11.18-5.45-7.87-12.38,1.71-3.57,2.61-7.53,3.88-11.31-4.42.95-9.41.93-13.17,3.06-10.36,5.87-11,12.27-9,24.17.87,5.4-3.71,12.73-7.79,17.52-3,3.52-9.05,4.83-14,6.07-1.57.39-5.23-2.24-5.81-4.14-3.07-10.15-12.58-11.76-20.19-15.59-2.38-1.2-6.18.43-9.47.78-4-10.42-1.89-15.32,8.27-18.51,2.08-.66,5-1.75,5.63-3.39,5.06-12.25,16.78-17.38,26-25.12,2-1.64,4.38-2.8,6.13-4.62,15.44-16,34.67-15.12,54.07-11.52a400.07,400.07,0,0,1,39.63,10c3,.89,5.23,4.63,7.8,7.06-3.66,1.12-7.25,2.78-11,3.21-4.92.55-10,.13-14.93.13-.25,1-.51,2.08-.77,3.12,5.35,4,10.47,8.42,16.19,11.79,1.73,1,6.12.08,7.64-1.53,11.46-12.13,26.95-16.53,41.61-22.58,1.3-.54,2.83-1.55,4-1.27,12.42,3,23.92,1.76,34.73-5.75,1.33-.92,5.39,1.71,8,3.07,8.94,4.71,18,8.69,28.34,5,1.23-.43,2.18-1.61,3.54-2.65-3.53-4.51-7.25-8.44-9.9-13a10.69,10.69,0,0,1-.68-8.52c.56-1.29,5-1.6,7.57-1.19,8.89,1.43,15,8.13,16.32,17.38.32,2.24-.52,5.09.58,6.69,1.57,2.26,4.45,3.63,6.76,5.38,1.16-2.57,3.77-5.53,3.19-7.61-1.57-5.64-4.49-10.9-6.87-16.31L865,139c2.62,4,4.91,8.24,8,11.83,1.52,1.75,4.51,2.25,6.83,3.31.82-2.7,2.82-5.66,2.29-8.06-2.83-12.76-3.08-12.87,9.33-15.27,6.67-1.29,13.55-1.52,20.18-3,5.43-1.19,11.6-2.3,15.68-5.61,5.53-4.49,10.86-6.54,17.81-6.21,15.75.76,31.52,1,47.28,1.72,2.66.12,5.28,1.31,9,2.28l-8.74,14.07c6.32,0,10.84-.15,15.34,0,4.76.19,9.49.78,14.24,1.07,9.76.6,19.73,2.65,29.21,1.28,11.13-1.61,21.23-1.16,31.68,2.93,6,2.33,12.68,2.9,19.1,3.9,3.35.53,7.1-.53,10.19.53,11.71,4,21.72,3.31,29.31-7.93.63-.94,4.29-.79,5.93.06,14.16,7.33,29.29,7.67,44.8,7.85,11.18.12,22.28,3.35,33.48,4.74,10.7,1.34,21.49,2,32.21,3.18a131.57,131.57,0,0,1,15.1,2.82c5,1.19,9.37,2.46,14-2.35,2-2.14,7.58-2,11.22-1.35,16.45,3.2,32.73,7.23,49.18,10.4,5.78,1.12,11.88.67,17.84.84,10.64.32,20.19,2.9,28.13,14.87-7-1.53-11.93-2.56-16.85-3.68-8.55-1.95-17.51-7.39-25.19,4.13l20,12L1346.28,207c-.39-2.39-.76-4.72-1.39-8.59-5.68,3.47-11.8,5.69-15.6,10-3.45,3.9-.34,7.66,4.73,9.32,8,2.64,10.52,9.73,10.8,16.9.31,7.78-1.25,15.63-2.11,24.68-9.41-3.61-14.49-10.18-19.47-16.93-2.25-3.06-4.39-6.44-7.34-8.68-8.92-6.77-11.1-15.19-4.69-24.44,3.71-5.37,2.36-9.94-.73-14.09-3.68-4.94-7.21-1.26-11,1-1.7,1-5.2.79-6.93-.33-7.34-4.78-9.95.1-11.71,5.6-3.74,11.64-3.53,11.6-15.81,9.38q-11.73-2.13-23.57-3.7c-14.25-1.89-28.62,16.21-23.61,29.83a8.8,8.8,0,0,0,4.47,4.4,13.71,13.71,0,0,0,7.51,1.13c18.56-3.48,30,6.19,39.12,20.55.75,1.19,2,2.54,1.89,3.73-.84,9.79-1.19,19.71-3.19,29.28-1.55,7.4-6.46,12.33-15.39,11.8-2-.12-4.22,3.36-6.26,5.28-.34.31-.2,1.09-.35,1.64-1.54,5.49-5.59,11.9-4,16.2,1.76,4.72,8.66,7.59,13.44,11.11,9.11,6.74,9.89,11.6,1.9,18.24-2.49,2.07-6.88,3.49-9.84,2.8-2.06-.49-3.34-5-4.64-7.85-1-2.25-.84-6-2.43-6.9-6.62-3.78-11.69-8.51-15-15.56-.56-1.23-5.66-2-7.15-.89-5.87,4.31-7.89.82-10.13-3.78-3.68-7.58-6.64-7.93-11.73-1.19-4,5.33-7.62,11-12.77,18.48H1212c-.5,2.69-.25,4.81-1.18,5.77-7.93,8.13-2.93,14.39,2.81,20.44,7.07,7.44,14.27,14.55,16.78,25.21,3.17,13.51-5.49,33.49-18.89,37.18-14.13,3.9-22.62,12.14-27.81,25.14-1.09,2.74-3.28,5.05-7,7.22a99.64,99.64,0,0,1-.82-10.31c.1-6.49-3.38-10.93-9.11-11.5-3-.3-7.37,3-9.54,5.9-7.8,10.32-6.88,9.89,1.86,19.27,7.28,7.81,13,17.12,18.86,26.15,1.44,2.23,1.17,6.12.53,9a22.6,22.6,0,0,1-4.27,8.25c-12.33,16.24-17,16.69-31,2.8-5-4.95-9.44-10.41-14.36-15.89-10.16,7.53-2.77,19.3-7.27,27.71L1119,528c-.89-5.49-1.87-11-2.63-16.49-.91-6.66-.86-13.56-2.6-20-2.61-9.64-3.8-9.79-13-5.81-.52-.21-1.47-.39-1.49-.65-1.23-14.87-15.44-21.29-21.76-33.15-6.81-12.78-21.77-12.55-32.37-2.75-7,6.5-15.17,11.8-22.29,18.22-9.22,8.31-14.62,18.65-13.87,31.5.29,4.81.87,9.61,1.11,14.43.33,6.79-3.42,11.11-8.92,14.42-5.8,3.48-9.92,1.76-12.29-4.08-7.28-17.9-14.55-35.82-21.31-53.92-1.29-3.45-.32-7.78-.25-11.7.15-8.54-2.62-10.41-10.86-9-3,.51-7.28-.91-9.7-2.95-6.47-5.47-11.71-12.51-18.51-17.45-4.75-3.45-11.13-5.37-17.05-6.36-7.23-1.22-15,.32-22.07-1.28-7.75-1.75-15-5.79-22.5-8.7-3.4-1.31-7-3.35-10.39-3.25-14.28.42-23.54-8.79-33.64-16.52-1.07-.82-2-1.84-3-2.77Z"/><path class="cls-4" d="M501.7,94.23C490.12,100.1,482.65,105,480,115.9c-.84,3.41-9.6,5.86-15.09,6.91-8.36,1.59-11.32,4.08-11.07,12.7.35,12-2.85,15-15,16.71-11.25,1.54-22.4,3.95-33.49,6.47-3.12.71-5.75,3.37-8.77,4.75-6.58,3-13.09,6.41-20,8.42s-12.29,5.34-15.67,12a74,74,0,0,1-7.17,10.58C346,204.67,343,205.1,333.2,196.82c-10.92-9.24-11.82-22.83-14.53-35.51-.16-.74,3.42-3.27,5.29-3.32,13.16-.34,15.8-4.27,12.41-17-4.88-18.29-15.66-29.07-35.09-30.37-2.49-.17-4.89-1.79-9.08-3.43,10.58-7,25.2,1.86,31.79-9l-1.34-4c-4.35.76-8.73,1.39-13,2.31-12,2.54-24,4.85-35.83,8-5,1.33-9.3,5.06-14.24,6.71-8.24,2.73-16,8.55-25.57,4.6-3.91-1.62-8.42-2-12.09-3.94-3.39-1.82-6-5-9-7.64,3.26-2.8,6.11-7.06,9.85-8.09,7.05-1.93,14.82-1.2,21.92-3,12.49-3.21,24.61-7.9,37.09-11.17A44.06,44.06,0,0,1,298.5,81C326.75,85,355,87.21,383.5,84c6.18-.7,12.73,2.7,19.13,2.82,21.63.41,43.28.19,64.92.23,7.76,0,15.58-.48,23.25.39C494,87.78,496.86,91.08,501.7,94.23Z"/><path class="cls-4" d="M259.2,169.64c1.27,4.18,2.31,7.63,3.67,12.13l-10.2-.62c-.31,1.48-1,2.87-.81,4.09,1.76,9.45.59,10.79-8.26,7.76a96.61,96.61,0,0,1-17.06-7.62c-6.46-3.74-6.2-6.54.14-10,1-.55,2.35-.74,3-1.53,2.81-3.4,7.94-7.24,7.58-10.39-.74-6.54-1.71-14.53-10.65-16.56-4.7-1.07-9.29-2.95-14-3.46-3.26-.36-6.69,1.1-10.07,1.57-2.16.29-5.49,1.18-6.32.18-1.77-2.15-3.9-6.73-3-7.87,2.49-3,6.32-5.84,10-6.58,5.87-1.16,12.12-.95,18.16-.55a113.8,113.8,0,0,1,17.26,2.76c3.82.86,7.38,2.84,11.19,3.81,5.15,1.31,9.6,2.09,9.35,9.53-.1,3.08,4.38,6.22,6.52,9.5C271.12,164,268.81,169.12,259.2,169.64Z"/><path class="cls-4" d="M830.33,669.45c.43,3.94,2.36,9.32,1.28,14-2.49,10.71-6.48,21.06-9.8,31.58-2.27,7.21-5.13,14.33-6.47,21.72-1.54,8.47-7.76,10.13-14.19,11-6.64.89-8.66-4.83-9.58-9.81-1.26-6.82-1.64-13,3.59-19.82,3.66-4.76,3-13.49,2.75-20.4-.19-5.76,1.54-8.22,6.6-11C813.21,682.05,821.07,675.78,830.33,669.45Z"/><path class="cls-4" d="M46.91,136.93c8.56-12.18,26.14-16,35.72-6.72,10.31,10,21,7.06,32.47,5.26,3-.46,8.74.28,8.94,1.3,1,5,2.86,11.44-4.53,13.51-7.7,2.15-14.84,5.65-23.89,2.84-6.44-2-14.33,1.22-21.52.87-2.95-.15-8-3.33-8.21-5.55-.81-7.46-5.4-8.28-11.1-8.88C52.38,139.3,50.08,138,46.91,136.93Z"/></g><circle class="cls-5" cx="500" cy="500" r="475.7"/></svg>