<?xml version="1.0" encoding="utf-8"?>
<!-- Generator: Adobe Illustrator 22.0.1, SVG Export Plug-In . SVG Version: 6.00 Build 0)  -->
<svg version="1.1" xmlns="http://www.w3.org/2000/svg" xmlns:xlink="http://www.w3.org/1999/xlink" x="0px" y="0px"
	 viewBox="0 0 1000 1000" style="enable-background:new 0 0 1000 1000;" xml:space="preserve">
<style type="text/css">
	.st0{fill:#E6E6E6;}
	.st1{fill:#FFFFFF;}
	.st2{filter:url(#Adobe_OpacityMaskFilter);}
	.st3{opacity:0.25;mask:url(#SVGID_1_);}
	.st4{fill:none;stroke:#f15b27;stroke-linecap:round;stroke-miterlimit:10;}
	.st5{fill:none;stroke:#FFFFFF;stroke-width:10;stroke-miterlimit:10;}
	.st6{fill:#B2B2B2;}
	.st7{fill-opacity:0;}
	.st8{opacity:0.9;}
	.st9{opacity:0.9;fill:#FFFFFF;}
	.st10{fill:none;}
	.st11{fill:none;stroke:#f15b27;stroke-width:3;stroke-miterlimit:10;}
	.st12{fill:none;stroke:#BDBDBD;stroke-miterlimit:10;}
	.st13{fill:#f15b27;}
	.st14{fill:none;stroke:#4E4D4D;stroke-width:3;stroke-linecap:round;stroke-linejoin:round;stroke-miterlimit:10;}
	.st15{fill:none;stroke:#CCCCCC;stroke-linecap:round;stroke-miterlimit:10;}
	.st16{clip-path:url(#SVGID_3_);}
	.st17{fill:#FFFFFF;stroke:#000000;stroke-miterlimit:10;}
	.st18{clip-path:url(#SVGID_7_);}
	.st19{fill:none;stroke:#000000;stroke-linecap:round;stroke-linejoin:round;stroke-miterlimit:10;}
	.st20{fill:none;stroke:#B3B3B3;stroke-width:2;stroke-linejoin:round;stroke-miterlimit:10;}
	.st21{fill:none;stroke:#000000;stroke-width:2;stroke-linejoin:round;stroke-miterlimit:10;}
	.st22{fill:#B3B3B3;}
	.st23{fill:none;stroke:#000000;stroke-width:3;stroke-miterlimit:10;}
	.st24{filter:url(#Adobe_OpacityMaskFilter_1_);}
	.st25{opacity:0.25;mask:url(#SVGID_8_);}
	.st26{fill:none;stroke:#000000;stroke-width:0.5;stroke-linecap:round;stroke-linejoin:round;stroke-miterlimit:10;}
	.st27{fill:#4D4D4D;}
	.st28{fill:none;stroke:#B3B3B3;stroke-width:2;stroke-linejoin:round;stroke-miterlimit:10;stroke-dasharray:2,2,2,2,2,2;}
	.st29{fill:none;stroke:#000000;stroke-miterlimit:10;}
	.st30{clip-path:url(#SVGID_10_);}
	.st31{clip-path:url(#SVGID_12_);fill:#4D4D4D;}
	.st32{fill:none;stroke:#FFFFFF;stroke-miterlimit:10;}
	.st33{filter:url(#Adobe_OpacityMaskFilter_2_);}
	.st34{opacity:0.25;mask:url(#SVGID_13_);}
	.st35{fill:none;stroke:#BDBDBD;stroke-width:0.5;stroke-miterlimit:10;}
	.st36{fill:none;stroke:#000000;stroke-width:1.5;stroke-miterlimit:10;}
	.st37{filter:url(#Adobe_OpacityMaskFilter_3_);}
	.st38{opacity:0.25;mask:url(#SVGID_14_);}
	.st39{clip-path:url(#SVGID_16_);}
	.st40{clip-path:url(#SVGID_18_);fill:#4D4D4D;}
	.st41{filter:url(#Adobe_OpacityMaskFilter_4_);}
	.st42{opacity:0.25;mask:url(#SVGID_19_);}
	.st43{filter:url(#Adobe_OpacityMaskFilter_5_);}
	.st44{opacity:0.25;mask:url(#SVGID_20_);}
	.st45{filter:url(#Adobe_OpacityMaskFilter_6_);}
	.st46{opacity:0.25;mask:url(#SVGID_21_);}
	.st47{filter:url(#Adobe_OpacityMaskFilter_7_);}
	.st48{opacity:0.25;mask:url(#SVGID_22_);}
	.st49{filter:url(#Adobe_OpacityMaskFilter_8_);}
	.st50{opacity:0.25;mask:url(#SVGID_23_);}
	.st51{fill:none;stroke:#000000;stroke-width:0.5;stroke-miterlimit:10;}
	.st52{fill:none;stroke:#E0E0E0;stroke-width:2;stroke-linejoin:round;stroke-miterlimit:10;}
	.st53{opacity:0.2;fill:#f15b27;}
	.st54{fill:none;stroke:#f15b27;stroke-width:2;stroke-linejoin:round;stroke-miterlimit:10;}
	.st55{fill:none;stroke:#4D4D4D;stroke-width:2;stroke-linejoin:round;stroke-miterlimit:10;}
	.st56{clip-path:url(#SVGID_25_);}
	.st57{fill:#E0E0E0;}
	.st58{fill:none;stroke:#f15b27;stroke-miterlimit:10;}
	.st59{fill:none;stroke:#E0E0E0;stroke-width:0.75;stroke-miterlimit:10;}
	.st60{filter:url(#Adobe_OpacityMaskFilter_9_);}
	.st61{opacity:0.25;mask:url(#SVGID_26_);}
	.st62{filter:url(#Adobe_OpacityMaskFilter_10_);}
	.st63{opacity:0.25;mask:url(#SVGID_27_);}
	.st64{opacity:0.12;}
	.st65{opacity:8.000000e-02;fill:none;}
	.st66{fill:none;stroke:#BDBDBD;stroke-width:2;stroke-miterlimit:10;}
	.st67{fill:none;stroke:#f15b27;stroke-width:2;stroke-miterlimit:10;}
	.st68{fill:#B0AFAF;}
	.st69{fill:#F1F1F1;}
	.st70{opacity:0.5;fill:#f15b27;}
	.st71{fill:none;stroke:#E0E0E0;stroke-linecap:round;stroke-miterlimit:10;}
	.st72{fill:none;stroke:#000000;stroke-width:2;stroke-linecap:round;stroke-linejoin:round;stroke-miterlimit:10;}
	.st73{fill:none;stroke:#000000;stroke-width:2;stroke-miterlimit:10;}
	.st74{fill:none;stroke:#181818;stroke-width:0.5;stroke-miterlimit:10;}
	.st75{fill:#181818;}
	.st76{fill:none;stroke:#3C3C3B;stroke-width:0.5;stroke-miterlimit:10;}
	.st77{fill:none;stroke:#6E6E6E;stroke-width:0.5;stroke-miterlimit:10;}
	.st78{fill:#181818;stroke:#6E6E6E;stroke-width:0.5;stroke-miterlimit:10;}
	.st79{fill:#A4A3A3;}
	.st80{fill:#846D65;}
	.st81{clip-path:url(#SVGID_29_);}
</style>
<g id="Layer_1">
	<g>
		<polygon class="st72" points="409.5,409.5 409.5,426.3 605.5,451.8 605.5,543.4 573.1,543.4 573.1,556.6 751.6,550.6 763.6,474.5 
			638.4,386.5 636,397.2 680.9,427.2 677.7,451.2 		"/>
		<path class="st72" d="M572.5,574.6V447.5l-30.4-4c0,0,12.4,37,13.9,69.6c1.5,32.4-6.6,62.9-6.6,62.9L572.5,574.6z"/>
		<polygon class="st72" points="371.5,422.7 373.9,444.3 380.8,442.8 380.8,433.5 409.5,426.3 409.5,409.5 		"/>
		<path class="st72" d="M256.7,458.1c0,0,77,6,89,5.7c12-0.3,74.2,1.4,89.6,0c15.4-1.4,35.9-4.2,35.9-3.6c0,0.6,22.8,4.8,17.2,10.2
			c-5.6,5.4-48.7,7.4-48.7,7.4s-79.5,0.6-110.6-0.8s-73.1-3.8-73.1-3.8L256.7,458.1z"/>
		<path class="st72" d="M380.8,442.8c0,0,105.7,11,117.4,23.2c11.8,12.2-54.9,11.8-54.9,11.8s53.5-3.4,45.3-11.2
			c-12.2-11.6-114.7-22.3-114.7-22.3L380.8,442.8z"/>
		<path class="st72" d="M380.8,433.5c0,0,84.1,11.8,104.7,19.5c16.1,6,14.2,8.6,14.2,8.6l-0.2,7c0,0,1.1-2.1-12-7.8
			c-13.8-6-103.4-18.5-106.7-18V433.5z"/>
		<polygon class="st72" points="253.1,473.9 252.2,467.9 228.6,474.5 228.3,465.5 256.7,458.1 255.9,473.1 		"/>
		<path class="st72" d="M288.5,557.5c0,0-3-26.7-2.4-47c0.6-20.4,0.3-35.6,0.3-35.6h-3.6v81.8L288.5,557.5z"/>
		<polygon class="st72" points="228.6,474.5 281.9,478.1 282.8,474.8 255.9,473.1 253.1,473.9 252.2,467.9 		"/>
		<polygon class="st72" points="572.8,459 605.1,459 605.5,543.4 573.1,543.4 		"/>
		<polygon class="st72" points="680.9,427.2 606.5,440.6 510.8,425.3 636,397.2 		"/>
		<polygon class="st72" points="638.4,386.5 489.2,421.7 513.5,425.7 636,397.2 		"/>
		<polygon class="st72" points="572.8,559.2 691.9,564.6 691.9,553.4 573.1,556.6 		"/>
		<polygon class="st72" points="714,552 714,562.9 691.9,564.6 691.9,553.4 		"/>
		<path class="st72" d="M288.5,557.5l-2.1-82.7c0,0,125.5,6.2,161.9,3.9c36.4-2.2,48.5-6.7,48.5-6.7s32.4-0.4,41.3-12.6
			c9-12.1,4-15.9,4-15.9"/>
		<path class="st72" d="M542.4,443.5c17,51.6,18,95,7,132.6c0,0,17.1-20.1-47.9-24.9"/>
		<path class="st72" d="M442,485.5l37.3-1.8c0,0,6.3,17.1,7.6,37.3c1.3,20.2,0.4,27.9,0.4,27.9h-31.9c0,0,2.7-7.6-0.4-27.4
			C451.9,501.7,442,485.5,442,485.5z"/>
		<path class="st72" d="M461.8,543.9l26,0.7c1.1-20.1-1.5-40-8.2-59.7l-17.8,0.1V543.9z"/>
		<path class="st72" d="M359.8,485.5l42.7,0.4c0,0-1.8,18.4-2.2,37.7c-0.4,19.3-0.4,25.2-0.4,25.2l-40.9,0.9L359.8,485.5z"/>
		<path class="st72" d="M377.3,491.3l18.4-1.3v51.2l4-0.1c0-18,0.8-36.4,2.5-55l-25.9-0.2L377.3,491.3z"/>
		<path class="st72" d="M478.9,570.4l21.1,0.4c0,0,1.8-5.4,1.8-9.9s0-9.9,0-9.9l-21.1,0.4c0,0,1.8,5.8,0,12.1
			C478.9,570,478.9,570.4,478.9,570.4z"/>
		<path class="st72" d="M453.7,561.9c5.8,0.1,17.5-0.3,20.7,2.2c6.6,4.9,4.5,6.3,4.5,6.3l9-8.1v-9.9l-7.2-0.9c0,0-58.4-2.2-86.3-1.8
			c-27.9,0.4-65.2-0.4-65.2-0.4l2.7,14.4C331.9,563.7,447.9,561.8,453.7,561.9z"/>
		<polygon class="st72" points="290.5,549.4 288.5,557.1 319.7,562.2 319.7,549.4 		"/>
		<polygon class="st72" points="319.7,549.4 328.6,549.4 331.9,563.7 319.7,562.2 		"/>
		<polygon class="st72" points="376.2,549.2 376.2,547 378.4,547 378.4,544.4 381.4,544.2 381.8,540.8 399.3,541 399.8,548.9 		"/>
		<polygon class="st72" points="227.1,531.5 248.1,532.4 270.8,537.7 270.8,565.3 246,558.4 226.5,557.2 		"/>
		<line class="st72" x1="281" y1="531.5" x2="248.1" y2="532.4"/>
		<polyline class="st72" points="394.8,519.8 381.1,521 372.4,527.6 359.5,527.3 		"/>
		<path class="st72" d="M226.5,561.1l30.6,4.8l13.8-0.6c-24.9-6.9-24.9-6.9-24.9-6.9l-19.5-1.2V561.1z"/>
		<path class="st72" d="M549.4,576.1L442.5,580c0,0,38.9,0.8,55.7-9.2l0.4-34c0,0,1-4.4-5.4-7.4c-6.4-3-29.6-3.8-29.6-3.8
			l-169.9-0.6l0.1,24.2"/>
		<polyline class="st72" points="442.5,580 340.6,584.8 229.8,567.4 257,565.9 331.9,563.7 		"/>
		<polyline class="st72" points="281.9,548.2 104,559 371.8,613.5 896,565.6 732.4,551.3 		"/>
	</g>
</g>
<g id="Layer_2">
</g>
</svg>
