<svg id="Layer_1" data-name="Layer 1" xmlns="http://www.w3.org/2000/svg" viewBox="0 0 1000 1000"><defs><style>.cls-1{fill:none;stroke:#000;stroke-miterlimit:10;stroke-width:2px;}</style></defs><title>reports</title><path class="cls-1" d="M636.75,343.71H555.09c-8.2-22.66-29.69-39.07-55.09-39.07s-46.89,16.41-55.09,39.07H363.25a39.19,39.19,0,0,0-39.08,39.07V656.29a39.19,39.19,0,0,0,39.08,39.07h273.5a39.19,39.19,0,0,0,39.08-39.07V382.78A39.19,39.19,0,0,0,636.75,343.71Zm-136.75,0a19.54,19.54,0,1,1-19.54,19.54A19.6,19.6,0,0,1,500,343.71Zm39.07,273.51H402.32V578.15H539.07Zm58.61-78.15H402.32V500H597.68Zm0-78.14H402.32V421.85H597.68Z"/></svg>