<svg id="Layer_1" data-name="Layer 1" xmlns="http://www.w3.org/2000/svg" viewBox="0 0 1000 1000"><defs><style>.cls-1{fill:none;stroke:#000;stroke-miterlimit:10;stroke-width:2px;}</style></defs><title>settings</title><path class="cls-1" d="M645.2,519.15a134.53,134.53,0,0,0,0-38.3l41.22-32.23a9.85,9.85,0,0,0,2.34-12.5l-39.07-67.6a9.82,9.82,0,0,0-11.92-4.3l-48.64,19.54a142.75,142.75,0,0,0-33-19.15l-7.42-51.77a9.52,9.52,0,0,0-9.57-8.2H461a9.52,9.52,0,0,0-9.57,8.2L444,364.61a150.46,150.46,0,0,0-33,19.15l-48.65-19.54a9.52,9.52,0,0,0-11.91,4.3l-39.08,67.6a9.63,9.63,0,0,0,2.35,12.5l41.22,32.23a134.53,134.53,0,0,0,0,38.3l-41.22,32.23a9.86,9.86,0,0,0-2.35,12.5l39.08,67.6a9.81,9.81,0,0,0,11.91,4.3L411,616.24a142.9,142.9,0,0,0,33,19.15l7.43,51.77a9.52,9.52,0,0,0,9.57,8.2h78.15a9.52,9.52,0,0,0,9.57-8.2l7.42-51.77a150.3,150.3,0,0,0,33-19.15l48.64,19.54a9.53,9.53,0,0,0,11.92-4.3l39.07-67.6a9.85,9.85,0,0,0-2.34-12.5ZM500,568.38A68.38,68.38,0,1,1,568.42,500,68.45,68.45,0,0,1,500,568.38Z"/></svg>